NotoAmalgamated-DisplayBold.ufo
<glyph name="exclam" format="2">
  <advance width="276"/>
  <unicode hex="0021"/>
  <outline>
    <contour>
      <point x="225" y="252" type="line"/>
      <point x="249" y="714" type="line"/>
      <point x="28" y="714" type="line"/>
      <point x="52" y="252" type="line"/>
    </contour>
    <contour>
      <point x="32" y="81" type="curve" smooth="yes"/>
      <point x="32" y="15"/>
      <point x="81" y="-12"/>
      <point x="138" y="-12" type="curve" smooth="yes"/>
      <point x="194" y="-12"/>
      <point x="241" y="15"/>
      <point x="241" y="81" type="curve" smooth="yes"/>
      <point x="241" y="150"/>
      <point x="194" y="175"/>
      <point x="138" y="175" type="curve" smooth="yes"/>
      <point x="81" y="175"/>
      <point x="32" y="150"/>
    </contour>
  </outline>
</glyph>
<glyph name="exclam.serif" format="2">
  <advance width="418"/>
  <unicode hex="0021"/>
  <outline>
    <contour>
      <point x="202" y="238" type="line"/>
      <point x="217" y="238" type="line"/>
      <point x="318" y="714" type="line"/>
      <point x="101" y="714" type="line"/>
    </contour>
    <contour>
      <point x="211" y="-9" type="curve" smooth="yes"/>
      <point x="255" y="-9"/>
      <point x="294" y="13"/>
      <point x="294" y="80" type="curve" smooth="yes"/>
      <point x="294" y="148"/>
      <point x="255" y="169"/>
      <point x="211" y="169" type="curve" smooth="yes"/>
      <point x="164" y="169"/>
      <point x="128" y="148"/>
      <point x="128" y="80" type="curve" smooth="yes"/>
      <point x="128" y="13"/>
      <point x="164" y="-9"/>
    </contour>
  </outline>
</glyph>
<glyph name="numbersign" format="2">
  <advance width="631"/>
  <unicode hex="0023"/>
  <outline>
    <contour>
      <point x="490" y="397" type="line"/>
      <point x="616" y="397" type="line"/>
      <point x="616" y="524" type="line"/>
      <point x="513" y="524" type="line"/>
      <point x="546" y="714" type="line"/>
      <point x="409" y="714" type="line"/>
      <point x="378" y="524" type="line"/>
      <point x="310" y="524" type="line"/>
      <point x="343" y="714" type="line"/>
      <point x="207" y="714" type="line"/>
      <point x="176" y="524" type="line"/>
      <point x="45" y="524" type="line"/>
      <point x="45" y="397" type="line"/>
      <point x="150" y="397" type="line"/>
      <point x="140" y="315" type="line"/>
      <point x="15" y="315" type="line"/>
      <point x="15" y="191" type="line"/>
      <point x="115" y="191" type="line"/>
      <point x="83" y="0" type="line"/>
      <point x="218" y="0" type="line"/>
      <point x="250" y="191" type="line"/>
      <point x="320" y="191" type="line"/>
      <point x="288" y="0" type="line"/>
      <point x="423" y="0" type="line"/>
      <point x="456" y="191" type="line"/>
      <point x="588" y="191" type="line"/>
      <point x="588" y="315" type="line"/>
      <point x="480" y="315" type="line"/>
    </contour>
    <contour>
      <point x="275" y="315" type="line"/>
      <point x="285" y="397" type="line"/>
      <point x="353" y="397" type="line"/>
      <point x="344" y="315" type="line"/>
    </contour>
  </outline>
</glyph>
<glyph name="numbersign.serif" format="2">
  <advance width="559"/>
  <unicode hex="0023"/>
  <outline>
    <contour>
      <point x="100" y="0" type="line"/>
      <point x="110" y="0" type="line"/>
      <point x="153" y="233" type="line"/>
      <point x="344" y="233" type="line"/>
      <point x="301" y="0" type="line"/>
      <point x="311" y="0" type="line"/>
      <point x="354" y="233" type="line"/>
      <point x="502" y="233" type="line"/>
      <point x="502" y="243" type="line"/>
      <point x="356" y="243" type="line"/>
      <point x="401" y="488" type="line"/>
      <point x="534" y="488" type="line"/>
      <point x="534" y="498" type="line"/>
      <point x="403" y="498" type="line"/>
      <point x="443" y="714" type="line"/>
      <point x="433" y="714" type="line"/>
      <point x="393" y="498" type="line"/>
      <point x="202" y="498" type="line"/>
      <point x="242" y="714" type="line"/>
      <point x="232" y="714" type="line"/>
      <point x="192" y="498" type="line"/>
      <point x="57" y="498" type="line"/>
      <point x="57" y="488" type="line"/>
      <point x="190" y="488" type="line"/>
      <point x="145" y="243" type="line"/>
      <point x="25" y="243" type="line"/>
      <point x="25" y="233" type="line"/>
      <point x="143" y="233" type="line"/>
    </contour>
    <contour>
      <point x="155" y="243" type="line"/>
      <point x="200" y="488" type="line"/>
      <point x="391" y="488" type="line"/>
      <point x="346" y="243" type="line"/>
    </contour>
  </outline>
</glyph>
<glyph name="dollar" format="2">
  <advance width="558"/>
  <unicode hex="0024"/>
  <outline>
    <contour>
      <point x="226" y="22" type="curve"/>
      <point x="226" y="-58" type="line"/>
      <point x="326" y="-58" type="line"/>
      <point x="326" y="24" type="line"/>
      <point x="474" y="40"/>
      <point x="536" y="122"/>
      <point x="536" y="230" type="curve"/>
      <point x="536" y="348"/>
      <point x="473" y="388"/>
      <point x="326" y="430" type="curve"/>
      <point x="326" y="551" type="line"/>
      <point x="379" y="546"/>
      <point x="432" y="533"/>
      <point x="475" y="512" type="curve"/>
      <point x="514" y="646" type="line"/>
      <point x="468" y="668"/>
      <point x="405" y="688"/>
      <point x="326" y="692" type="curve"/>
      <point x="326" y="760" type="line"/>
      <point x="226" y="760" type="line"/>
      <point x="226" y="691" type="line"/>
      <point x="101" y="682"/>
      <point x="20" y="623"/>
      <point x="20" y="502" type="curve" smooth="yes"/>
      <point x="20" y="374"/>
      <point x="126" y="325"/>
      <point x="226" y="289" type="curve"/>
      <point x="226" y="166" type="line"/>
      <point x="174" y="171"/>
      <point x="106" y="188"/>
      <point x="43" y="216" type="curve"/>
      <point x="43" y="63" type="line"/>
      <point x="96" y="39"/>
      <point x="146" y="24"/>
    </contour>
    <contour>
      <point x="326" y="168" type="curve"/>
      <point x="326" y="266" type="line"/>
      <point x="367" y="252"/>
      <point x="375" y="239"/>
      <point x="375" y="214" type="curve" smooth="yes"/>
      <point x="375" y="189"/>
      <point x="359" y="174"/>
    </contour>
    <contour>
      <point x="226" y="550" type="curve"/>
      <point x="226" y="457" type="line"/>
      <point x="191" y="470"/>
      <point x="179" y="484"/>
      <point x="179" y="509" type="curve" smooth="yes"/>
      <point x="179" y="532"/>
      <point x="194" y="547"/>
    </contour>
  </outline>
</glyph>
<glyph name="dollar.serif" format="2">
  <advance width="559"/>
  <unicode hex="0024"/>
  <outline>
    <contour>
      <point x="284" y="41" type="curve"/>
      <point x="284" y="-79" type="line"/>
      <point x="294" y="-79" type="line"/>
      <point x="294" y="41" type="line"/>
      <point x="439" y="49"/>
      <point x="524" y="132"/>
      <point x="524" y="245" type="curve" smooth="yes"/>
      <point x="524" y="370"/>
      <point x="394" y="411"/>
      <point x="294" y="461" type="curve"/>
      <point x="294" y="673" type="line"/>
      <point x="349" y="665"/>
      <point x="373" y="622"/>
      <point x="373" y="514" type="curve"/>
      <point x="466" y="514"/>
      <point x="493" y="552"/>
      <point x="493" y="593" type="curve" smooth="yes"/>
      <point x="493" y="642"/>
      <point x="426" y="684"/>
      <point x="294" y="684" type="curve"/>
      <point x="294" y="760" type="line"/>
      <point x="284" y="760" type="line"/>
      <point x="284" y="684" type="line"/>
      <point x="143" y="681"/>
      <point x="62" y="607"/>
      <point x="62" y="505" type="curve" smooth="yes"/>
      <point x="62" y="372"/>
      <point x="186" y="334"/>
      <point x="284" y="289" type="curve"/>
      <point x="284" y="53" type="line"/>
      <point x="189" y="55"/>
      <point x="154" y="106"/>
      <point x="154" y="278" type="curve"/>
      <point x="105" y="278"/>
      <point x="44" y="259"/>
      <point x="44" y="188" type="curve" smooth="yes"/>
      <point x="44" y="138"/>
      <point x="90" y="42"/>
    </contour>
    <contour>
      <point x="294" y="53" type="curve"/>
      <point x="294" y="285" type="line"/>
      <point x="353" y="257"/>
      <point x="400" y="225"/>
      <point x="400" y="156" type="curve" smooth="yes"/>
      <point x="400" y="97"/>
      <point x="357" y="55"/>
    </contour>
    <contour>
      <point x="284" y="674" type="curve"/>
      <point x="284" y="466" type="line"/>
      <point x="227" y="496"/>
      <point x="183" y="529"/>
      <point x="183" y="584" type="curve" smooth="yes"/>
      <point x="183" y="639"/>
      <point x="215" y="674"/>
    </contour>
  </outline>
</glyph>
<glyph name="ampersand" format="2">
  <advance width="777"/>
  <unicode hex="0026"/>
  <outline>
    <contour>
      <point x="321" y="723" type="curve" smooth="yes"/>
      <point x="168" y="723"/>
      <point x="99" y="652"/>
      <point x="99" y="553" type="curve" smooth="yes"/>
      <point x="99" y="489"/>
      <point x="125" y="440"/>
      <point x="156" y="394" type="curve"/>
      <point x="73" y="350"/>
      <point x="30" y="283"/>
      <point x="30" y="198" type="curve" smooth="yes"/>
      <point x="30" y="83"/>
      <point x="114" y="-10"/>
      <point x="273" y="-10" type="curve" smooth="yes"/>
      <point x="404" y="-10"/>
      <point x="429" y="16"/>
      <point x="478" y="50" type="curve"/>
      <point x="519" y="0" type="line"/>
      <point x="784" y="0" type="line"/>
      <point x="633" y="150" type="line"/>
      <point x="673" y="209"/>
      <point x="722" y="304"/>
      <point x="742" y="401" type="curve"/>
      <point x="533" y="401" type="line"/>
      <point x="526" y="353"/>
      <point x="510" y="309"/>
      <point x="490" y="274" type="curve"/>
      <point x="421" y="366" type="line"/>
      <point x="490" y="412"/>
      <point x="535" y="470"/>
      <point x="535" y="553" type="curve" smooth="yes"/>
      <point x="535" y="660"/>
      <point x="458" y="723"/>
    </contour>
    <contour>
      <point x="263" y="289" type="curve"/>
      <point x="355" y="166" type="line"/>
      <point x="349" y="154"/>
      <point x="326" y="142"/>
      <point x="295" y="142" type="curve" smooth="yes"/>
      <point x="258" y="142"/>
      <point x="236" y="171"/>
      <point x="236" y="212" type="curve" smooth="yes"/>
      <point x="236" y="242"/>
      <point x="242" y="268"/>
    </contour>
    <contour>
      <point x="317" y="598" type="curve" smooth="yes"/>
      <point x="342" y="598"/>
      <point x="355" y="585"/>
      <point x="355" y="553" type="curve" smooth="yes"/>
      <point x="355" y="523"/>
      <point x="342" y="492"/>
      <point x="318" y="471" type="curve"/>
      <point x="299" y="492"/>
      <point x="279" y="518"/>
      <point x="279" y="547" type="curve" smooth="yes"/>
      <point x="279" y="583"/>
      <point x="294" y="598"/>
    </contour>
  </outline>
</glyph>
<glyph name="ampersand.serif" format="2">
  <advance width="844"/>
  <unicode hex="0026"/>
  <outline>
    <contour>
      <point x="327" y="-10" type="curve" smooth="yes"/>
      <point x="413" y="-10"/>
      <point x="484" y="8"/>
      <point x="541" y="52" type="curve"/>
      <point x="587" y="0" type="line"/>
      <point x="828" y="0" type="line"/>
      <point x="828" y="10" type="line"/>
      <point x="826" y="10" type="line" smooth="yes"/>
      <point x="805" y="10"/>
      <point x="781" y="30"/>
      <point x="724" y="92" type="curve" smooth="yes"/>
      <point x="637" y="186" type="line"/>
      <point x="653" y="225"/>
      <point x="665" y="270"/>
      <point x="673" y="322" type="curve" smooth="yes"/>
      <point x="685" y="396"/>
      <point x="714" y="420"/>
      <point x="782" y="420" type="curve" smooth="yes"/>
      <point x="803" y="420" type="line"/>
      <point x="803" y="430" type="line"/>
      <point x="566" y="430" type="line"/>
      <point x="566" y="382" type="line" smooth="yes"/>
      <point x="566" y="342"/>
      <point x="565" y="304"/>
      <point x="562" y="268" type="curve"/>
      <point x="418" y="424" type="line"/>
      <point x="517" y="452"/>
      <point x="570" y="501"/>
      <point x="570" y="578" type="curve" smooth="yes"/>
      <point x="570" y="659"/>
      <point x="508" y="724"/>
      <point x="369" y="724" type="curve" smooth="yes"/>
      <point x="231" y="724"/>
      <point x="159" y="666"/>
      <point x="159" y="561" type="curve" smooth="yes"/>
      <point x="159" y="499"/>
      <point x="182" y="456"/>
      <point x="245" y="383" type="curve"/>
      <point x="122" y="366"/>
      <point x="47" y="300"/>
      <point x="47" y="190" type="curve" smooth="yes"/>
      <point x="47" y="57"/>
      <point x="165" y="-10"/>
    </contour>
    <contour>
      <point x="368" y="3" type="curve" smooth="yes"/>
      <point x="325" y="3"/>
      <point x="228" y="14"/>
      <point x="228" y="216" type="curve" smooth="yes"/>
      <point x="228" y="284"/>
      <point x="238" y="337"/>
      <point x="258" y="368" type="curve"/>
      <point x="514" y="82" type="line"/>
      <point x="483" y="32"/>
      <point x="437" y="3"/>
    </contour>
    <contour>
      <point x="408" y="435" type="curve"/>
      <point x="331" y="518"/>
      <point x="311" y="550"/>
      <point x="311" y="609" type="curve" smooth="yes"/>
      <point x="311" y="681"/>
      <point x="341" y="714"/>
      <point x="379" y="714" type="curve" smooth="yes"/>
      <point x="414" y="714"/>
      <point x="447" y="687"/>
      <point x="447" y="586" type="curve" smooth="yes"/>
      <point x="447" y="523"/>
      <point x="435" y="465"/>
    </contour>
  </outline>
</glyph>
<glyph name="parenleft" format="2">
  <advance width="348"/>
  <unicode hex="0028"/>
  <outline>
    <contour>
      <point x="32" y="284" type="curve" smooth="yes"/>
      <point x="32" y="123"/>
      <point x="61" y="-41"/>
      <point x="156" y="-158" type="curve"/>
      <point x="324" y="-158" type="line"/>
      <point x="240" y="-36"/>
      <point x="210" y="130"/>
      <point x="210" y="285" type="curve" smooth="yes"/>
      <point x="210" y="443"/>
      <point x="240" y="609"/>
      <point x="324" y="734" type="curve"/>
      <point x="156" y="734" type="line"/>
      <point x="61" y="613"/>
      <point x="32" y="447"/>
    </contour>
  </outline>
</glyph>
<glyph name="parenleft.serif" format="2">
  <advance width="440"/>
  <unicode hex="0028"/>
  <outline>
    <contour>
      <point x="408" y="-147" type="curve"/>
      <point x="408" y="-137" type="line"/>
      <point x="294" y="-56"/>
      <point x="260" y="93"/>
      <point x="260" y="319" type="curve" smooth="yes"/>
      <point x="260" y="542"/>
      <point x="294" y="689"/>
      <point x="408" y="771" type="curve"/>
      <point x="408" y="781" type="line"/>
      <point x="156" y="680"/>
      <point x="57" y="515"/>
      <point x="57" y="319" type="curve" smooth="yes"/>
      <point x="57" y="121"/>
      <point x="156" y="-46"/>
    </contour>
  </outline>
</glyph>
<glyph name="parenright" format="2">
  <advance width="348"/>
  <unicode hex="0029"/>
  <outline>
    <contour>
      <point x="316" y="284" type="curve" smooth="yes"/>
      <point x="316" y="447"/>
      <point x="288" y="613"/>
      <point x="193" y="734" type="curve"/>
      <point x="24" y="734" type="line"/>
      <point x="108" y="609"/>
      <point x="139" y="443"/>
      <point x="139" y="285" type="curve" smooth="yes"/>
      <point x="139" y="130"/>
      <point x="108" y="-36"/>
      <point x="25" y="-158" type="curve"/>
      <point x="193" y="-158" type="line"/>
      <point x="288" y="-41"/>
      <point x="316" y="123"/>
    </contour>
  </outline>
</glyph>
<glyph name="parenright.serif" format="2">
  <advance width="440"/>
  <unicode hex="0029"/>
  <outline>
    <contour>
      <point x="32" y="-137" type="curve"/>
      <point x="32" y="-147" type="line"/>
      <point x="284" y="-46"/>
      <point x="383" y="121"/>
      <point x="383" y="319" type="curve" smooth="yes"/>
      <point x="383" y="515"/>
      <point x="284" y="680"/>
      <point x="32" y="781" type="curve"/>
      <point x="32" y="771" type="line"/>
      <point x="146" y="689"/>
      <point x="180" y="542"/>
      <point x="180" y="319" type="curve" smooth="yes"/>
      <point x="180" y="93"/>
      <point x="146" y="-56"/>
    </contour>
  </outline>
</glyph>
<glyph name="asterisk" format="2">
  <advance width="500"/>
  <unicode hex="002A"/>
  <outline>
    <contour>
      <point x="326" y="760" type="line"/>
      <point x="177" y="760" type="line"/>
      <point x="194" y="588" type="line"/>
      <point x="38" y="637" type="line"/>
      <point x="16" y="495" type="line"/>
      <point x="153" y="483" type="line"/>
      <point x="62" y="347" type="line"/>
      <point x="197" y="281" type="line"/>
      <point x="249" y="418" type="line"/>
      <point x="312" y="280" type="line"/>
      <point x="440" y="347" type="line"/>
      <point x="349" y="483" type="line"/>
      <point x="486" y="493" type="line"/>
      <point x="468" y="637" type="line"/>
      <point x="309" y="588" type="line"/>
    </contour>
  </outline>
</glyph>
<glyph name="asterisk.serif" format="2">
  <advance width="503"/>
  <unicode hex="002A"/>
  <outline>
    <contour>
      <point x="191" y="359" type="line"/>
      <point x="319" y="359" type="line"/>
      <point x="261" y="546" type="line"/>
      <point x="425" y="412" type="line"/>
      <point x="478" y="527" type="line"/>
      <point x="270" y="560" type="line"/>
      <point x="478" y="592" type="line"/>
      <point x="425" y="708" type="line"/>
      <point x="261" y="575" type="line"/>
      <point x="321" y="760" type="line"/>
      <point x="191" y="760" type="line"/>
      <point x="246" y="575" type="line"/>
      <point x="83" y="710" type="line"/>
      <point x="31" y="593" type="line"/>
      <point x="240" y="560" type="line"/>
      <point x="31" y="526" type="line"/>
      <point x="83" y="411" type="line"/>
      <point x="246" y="546" type="line"/>
    </contour>
  </outline>
</glyph>
<glyph name="plus" format="2">
  <advance width="570"/>
  <unicode hex="002B"/>
  <outline>
    <contour>
      <point x="352" y="418" type="line"/>
      <point x="352" y="597" type="line"/>
      <point x="216" y="597" type="line"/>
      <point x="216" y="418" type="line"/>
      <point x="49" y="418" type="line"/>
      <point x="49" y="287" type="line"/>
      <point x="216" y="287" type="line"/>
      <point x="216" y="111" type="line"/>
      <point x="352" y="111" type="line"/>
      <point x="352" y="287" type="line"/>
      <point x="520" y="287" type="line"/>
      <point x="520" y="418" type="line"/>
    </contour>
  </outline>
</glyph>
<glyph name="comma" format="2">
  <advance width="274"/>
  <unicode hex="002C"/>
  <outline>
    <contour>
      <point x="249" y="135" type="curve"/>
      <point x="242" y="146" type="line"/>
      <point x="70" y="146" type="line"/>
      <point x="62" y="66"/>
      <point x="43" y="-48"/>
      <point x="25" y="-139" type="curve"/>
      <point x="168" y="-139" type="line"/>
      <point x="199" y="-65"/>
      <point x="232" y="63"/>
    </contour>
  </outline>
</glyph>
<glyph name="hyphen" format="2">
  <advance width="297"/>
  <unicode hex="002D"/>
  <outline>
    <contour>
      <point x="15" y="192" type="line"/>
      <point x="282" y="192" type="line"/>
      <point x="282" y="344" type="line"/>
      <point x="15" y="344" type="line"/>
    </contour>
  </outline>
</glyph>
<glyph name="period" format="2">
  <advance width="274"/>
  <unicode hex="002E"/>
  <outline>
    <contour>
      <point x="32" y="81" type="curve" smooth="yes"/>
      <point x="32" y="15"/>
      <point x="81" y="-12"/>
      <point x="139" y="-12" type="curve" smooth="yes"/>
      <point x="194" y="-12"/>
      <point x="241" y="15"/>
      <point x="241" y="81" type="curve" smooth="yes"/>
      <point x="241" y="150"/>
      <point x="194" y="175"/>
      <point x="139" y="175" type="curve" smooth="yes"/>
      <point x="81" y="175"/>
      <point x="32" y="150"/>
    </contour>
  </outline>
</glyph>
<glyph name="period.serif" format="2">
  <advance width="326"/>
  <unicode hex="002E"/>
  <outline>
    <contour>
      <point x="163" y="-9" type="curve" smooth="yes"/>
      <point x="207" y="-9"/>
      <point x="246" y="13"/>
      <point x="246" y="80" type="curve" smooth="yes"/>
      <point x="246" y="148"/>
      <point x="207" y="169"/>
      <point x="163" y="169" type="curve" smooth="yes"/>
      <point x="116" y="169"/>
      <point x="80" y="148"/>
      <point x="80" y="80" type="curve" smooth="yes"/>
      <point x="80" y="13"/>
      <point x="116" y="-9"/>
    </contour>
  </outline>
</glyph>
<glyph name="slash" format="2">
  <advance width="431"/>
  <unicode hex="002F"/>
  <outline>
    <contour>
      <point x="431" y="724" type="line"/>
      <point x="254" y="724" type="line"/>
      <point x="4" y="-10" type="line"/>
      <point x="181" y="-10" type="line"/>
    </contour>
  </outline>
</glyph>
<glyph name="zero" format="2">
  <advance width="558"/>
  <unicode hex="0030"/>
  <outline>
    <contour>
      <point x="526" y="356" type="curve" smooth="yes"/>
      <point x="526" y="588"/>
      <point x="450" y="724"/>
      <point x="279" y="724" type="curve" smooth="yes"/>
      <point x="96" y="724"/>
      <point x="32" y="587"/>
      <point x="32" y="356" type="curve" smooth="yes"/>
      <point x="32" y="127"/>
      <point x="107" y="-10"/>
      <point x="279" y="-10" type="curve" smooth="yes"/>
      <point x="463" y="-10"/>
      <point x="526" y="127"/>
    </contour>
    <contour>
      <point x="235" y="356" type="curve" smooth="yes"/>
      <point x="235" y="497"/>
      <point x="240" y="570"/>
      <point x="279" y="570" type="curve" smooth="yes"/>
      <point x="317" y="570"/>
      <point x="323" y="497"/>
      <point x="323" y="356" type="curve" smooth="yes"/>
      <point x="323" y="215"/>
      <point x="317" y="144"/>
      <point x="279" y="144" type="curve" smooth="yes"/>
      <point x="240" y="144"/>
      <point x="235" y="216"/>
    </contour>
  </outline>
</glyph>
<glyph name="zero.serif" format="2">
  <advance width="569"/>
  <unicode hex="0030"/>
  <outline>
    <contour>
      <point x="285" y="-10" type="curve" smooth="yes"/>
      <point x="472" y="-10"/>
      <point x="538" y="137"/>
      <point x="538" y="358" type="curve" smooth="yes"/>
      <point x="538" y="580"/>
      <point x="472" y="724"/>
      <point x="286" y="724" type="curve" smooth="yes"/>
      <point x="89" y="724"/>
      <point x="31" y="580"/>
      <point x="31" y="359" type="curve" smooth="yes"/>
      <point x="31" y="137"/>
      <point x="89" y="-10"/>
    </contour>
    <contour>
      <point x="285" y="0" type="curve" smooth="yes"/>
      <point x="238" y="0"/>
      <point x="223" y="56"/>
      <point x="223" y="358" type="curve" smooth="yes"/>
      <point x="223" y="659"/>
      <point x="238" y="714"/>
      <point x="286" y="714" type="curve" smooth="yes"/>
      <point x="331" y="714"/>
      <point x="345" y="659"/>
      <point x="345" y="358" type="curve" smooth="yes"/>
      <point x="345" y="56"/>
      <point x="331" y="0"/>
    </contour>
  </outline>
</glyph>
<glyph name="one" format="2">
  <advance width="558"/>
  <unicode hex="0031"/>
  <outline>
    <contour>
      <point x="457" y="0" type="line"/>
      <point x="457" y="714" type="line"/>
      <point x="267" y="714" type="line"/>
      <point x="29" y="514" type="line"/>
      <point x="138" y="391" type="line"/>
      <point x="212" y="459" type="line" smooth="yes"/>
      <point x="224" y="470"/>
      <point x="230" y="484"/>
      <point x="251" y="504" type="curve"/>
      <point x="249" y="453"/>
      <point x="249" y="372"/>
      <point x="249" y="353" type="curve" smooth="yes"/>
      <point x="249" y="0" type="line"/>
    </contour>
  </outline>
</glyph>
<glyph name="one.serif" format="2">
  <advance width="569"/>
  <unicode hex="0031"/>
  <outline>
    <contour>
      <point x="82" y="0" type="line"/>
      <point x="529" y="0" type="line"/>
      <point x="529" y="10" type="line"/>
      <point x="454" y="10" type="line" smooth="yes"/>
      <point x="415" y="10"/>
      <point x="406" y="43"/>
      <point x="406" y="70" type="curve" smooth="yes"/>
      <point x="406" y="718" type="line"/>
      <point x="299" y="718" type="line"/>
      <point x="276" y="692" type="line" smooth="yes"/>
      <point x="208" y="614"/>
      <point x="148" y="584"/>
      <point x="29" y="584" type="curve"/>
      <point x="29" y="530"/>
      <point x="51" y="500"/>
      <point x="88" y="500" type="curve" smooth="yes"/>
      <point x="128" y="500"/>
      <point x="160" y="530"/>
      <point x="222" y="624" type="curve"/>
      <point x="222" y="70" type="line" smooth="yes"/>
      <point x="222" y="30"/>
      <point x="207" y="10"/>
      <point x="175" y="10" type="curve" smooth="yes"/>
      <point x="82" y="10" type="line"/>
    </contour>
  </outline>
</glyph>
<glyph name="two" format="2">
  <advance width="558"/>
  <unicode hex="0032"/>
  <outline>
    <contour>
      <point x="520" y="0" type="line"/>
      <point x="520" y="159" type="line"/>
      <point x="287" y="159" type="line"/>
      <point x="288" y="164" type="line"/>
      <point x="321" y="206" type="line" smooth="yes"/>
      <point x="433" y="347"/>
      <point x="510" y="405"/>
      <point x="510" y="529" type="curve" smooth="yes"/>
      <point x="510" y="641"/>
      <point x="419" y="724"/>
      <point x="280" y="724" type="curve" smooth="yes"/>
      <point x="139" y="724"/>
      <point x="74" y="667"/>
      <point x="12" y="610" type="curve"/>
      <point x="124" y="486" type="line"/>
      <point x="179" y="536"/>
      <point x="216" y="562"/>
      <point x="253" y="562" type="curve" smooth="yes"/>
      <point x="279" y="562"/>
      <point x="308" y="544"/>
      <point x="308" y="502" type="curve" smooth="yes"/>
      <point x="308" y="450"/>
      <point x="286" y="415"/>
      <point x="184" y="303" type="curve" smooth="yes"/>
      <point x="23" y="127" type="line"/>
      <point x="23" y="0" type="line"/>
    </contour>
  </outline>
</glyph>
<glyph name="two.serif" format="2">
  <advance width="569"/>
  <unicode hex="0032"/>
  <outline>
    <contour>
      <point x="32" y="0" type="line"/>
      <point x="530" y="0" type="line"/>
      <point x="538" y="237" type="line"/>
      <point x="528" y="237" type="line"/>
      <point x="526" y="217" type="line" smooth="yes"/>
      <point x="519" y="152"/>
      <point x="497" y="132"/>
      <point x="432" y="132" type="curve" smooth="yes"/>
      <point x="68" y="132" type="line"/>
      <point x="221" y="232" type="line" smooth="yes"/>
      <point x="464" y="392"/>
      <point x="513" y="447"/>
      <point x="513" y="539" type="curve" smooth="yes"/>
      <point x="513" y="665"/>
      <point x="419" y="724"/>
      <point x="267" y="724" type="curve" smooth="yes"/>
      <point x="96" y="724"/>
      <point x="32" y="647"/>
      <point x="32" y="573" type="curve" smooth="yes"/>
      <point x="32" y="495"/>
      <point x="104" y="473"/>
      <point x="183" y="473" type="curve"/>
      <point x="183" y="656"/>
      <point x="201" y="714"/>
      <point x="260" y="714" type="curve" smooth="yes"/>
      <point x="314" y="714"/>
      <point x="335" y="665"/>
      <point x="335" y="550" type="curve" smooth="yes"/>
      <point x="335" y="387"/>
      <point x="301" y="335"/>
      <point x="173" y="230" type="curve" smooth="yes"/>
      <point x="32" y="115" type="line"/>
    </contour>
  </outline>
</glyph>
<glyph name="three" format="2">
  <advance width="558"/>
  <unicode hex="0033"/>
  <outline>
    <contour>
      <point x="500" y="559" type="curve" smooth="yes"/>
      <point x="500" y="662"/>
      <point x="416" y="724"/>
      <point x="278" y="724" type="curve" smooth="yes"/>
      <point x="151" y="724"/>
      <point x="88" y="692"/>
      <point x="31" y="652" type="curve"/>
      <point x="111" y="523" type="line"/>
      <point x="124" y="536"/>
      <point x="180" y="569"/>
      <point x="240" y="569" type="curve" smooth="yes"/>
      <point x="272" y="569"/>
      <point x="303" y="551"/>
      <point x="303" y="513" type="curve" smooth="yes"/>
      <point x="303" y="469"/>
      <point x="262" y="438"/>
      <point x="172" y="438" type="curve" smooth="yes"/>
      <point x="135" y="438" type="line"/>
      <point x="135" y="293" type="line"/>
      <point x="171" y="293" type="line" smooth="yes"/>
      <point x="281" y="293"/>
      <point x="303" y="264"/>
      <point x="303" y="216" type="curve" smooth="yes"/>
      <point x="303" y="171"/>
      <point x="282" y="142"/>
      <point x="201" y="142" type="curve" smooth="yes"/>
      <point x="153" y="142"/>
      <point x="89" y="157"/>
      <point x="30" y="189" type="curve"/>
      <point x="30" y="29" type="line"/>
      <point x="88" y="5"/>
      <point x="141" y="-10"/>
      <point x="234" y="-10" type="curve" smooth="yes"/>
      <point x="432" y="-10"/>
      <point x="519" y="87"/>
      <point x="519" y="204" type="curve" smooth="yes"/>
      <point x="519" y="305"/>
      <point x="456" y="359"/>
      <point x="349" y="373" type="curve"/>
      <point x="349" y="376" type="line"/>
      <point x="428" y="399"/>
      <point x="500" y="457"/>
    </contour>
  </outline>
</glyph>
<glyph name="three.serif" format="2">
  <advance width="569"/>
  <unicode hex="0033"/>
  <outline>
    <contour>
      <point x="245" y="-10" type="curve" smooth="yes"/>
      <point x="430" y="-10"/>
      <point x="537" y="61"/>
      <point x="537" y="187" type="curve" smooth="yes"/>
      <point x="537" y="302"/>
      <point x="451" y="364"/>
      <point x="284" y="370" type="curve"/>
      <point x="439" y="388"/>
      <point x="512" y="447"/>
      <point x="512" y="554" type="curve" smooth="yes"/>
      <point x="512" y="659"/>
      <point x="418" y="724"/>
      <point x="265" y="724" type="curve" smooth="yes"/>
      <point x="107" y="724"/>
      <point x="34" y="655"/>
      <point x="34" y="588" type="curve" smooth="yes"/>
      <point x="34" y="520"/>
      <point x="91" y="495"/>
      <point x="177" y="495" type="curve"/>
      <point x="177" y="661"/>
      <point x="195" y="714"/>
      <point x="251" y="714" type="curve" smooth="yes"/>
      <point x="302" y="714"/>
      <point x="322" y="667"/>
      <point x="322" y="545" type="curve" smooth="yes"/>
      <point x="322" y="422"/>
      <point x="293" y="374"/>
      <point x="217" y="374" type="curve"/>
      <point x="136" y="374" type="line"/>
      <point x="136" y="364" type="line"/>
      <point x="210" y="364" type="line" smooth="yes"/>
      <point x="308" y="364"/>
      <point x="346" y="320"/>
      <point x="346" y="186" type="curve" smooth="yes"/>
      <point x="346" y="58"/>
      <point x="313" y="0"/>
      <point x="238" y="0" type="curve" smooth="yes"/>
      <point x="152" y="0"/>
      <point x="122" y="60"/>
      <point x="122" y="215" type="curve"/>
      <point x="70" y="215"/>
      <point x="21" y="186"/>
      <point x="21" y="127" type="curve" smooth="yes"/>
      <point x="21" y="48"/>
      <point x="80" y="-10"/>
    </contour>
  </outline>
</glyph>
<glyph name="four" format="2">
  <advance width="558"/>
  <unicode hex="0034"/>
  <outline>
    <contour>
      <point x="545" y="138" type="line"/>
      <point x="545" y="282" type="line"/>
      <point x="475" y="282" type="line"/>
      <point x="475" y="714" type="line"/>
      <point x="287" y="714" type="line"/>
      <point x="16" y="280" type="line"/>
      <point x="16" y="138" type="line"/>
      <point x="273" y="138" type="line"/>
      <point x="273" y="0" type="line"/>
      <point x="475" y="0" type="line"/>
      <point x="475" y="138" type="line"/>
    </contour>
    <contour>
      <point x="273" y="365" type="curve" smooth="yes"/>
      <point x="273" y="282" type="line"/>
      <point x="190" y="282" type="line"/>
      <point x="240" y="399" type="line" smooth="yes"/>
      <point x="251" y="426"/>
      <point x="258" y="441"/>
      <point x="271" y="470" type="curve"/>
      <point x="276" y="470" type="line"/>
      <point x="276" y="468"/>
      <point x="273" y="395"/>
    </contour>
  </outline>
</glyph>
<glyph name="four.serif" format="2">
  <advance width="569"/>
  <unicode hex="0034"/>
  <outline>
    <contour>
      <point x="159" y="0" type="line"/>
      <point x="547" y="0" type="line"/>
      <point x="547" y="10" type="line"/>
      <point x="534" y="10" type="line" smooth="yes"/>
      <point x="489" y="10"/>
      <point x="452" y="19"/>
      <point x="452" y="82" type="curve" smooth="yes"/>
      <point x="452" y="179" type="line"/>
      <point x="547" y="179" type="line"/>
      <point x="547" y="252" type="line"/>
      <point x="452" y="252" type="line"/>
      <point x="452" y="714" type="line"/>
      <point x="281" y="714" type="line"/>
      <point x="15" y="244" type="line"/>
      <point x="15" y="179" type="line"/>
      <point x="269" y="179" type="line"/>
      <point x="269" y="82" type="line" smooth="yes"/>
      <point x="269" y="19"/>
      <point x="232" y="10"/>
      <point x="187" y="10" type="curve" smooth="yes"/>
      <point x="159" y="10" type="line"/>
    </contour>
    <contour>
      <point x="31" y="252" type="line"/>
      <point x="222" y="589" type="line" smooth="yes"/>
      <point x="240" y="621"/>
      <point x="255" y="648"/>
      <point x="272" y="680" type="curve"/>
      <point x="270" y="618"/>
      <point x="270" y="560"/>
      <point x="270" y="502" type="curve" smooth="yes"/>
      <point x="270" y="252" type="line"/>
    </contour>
  </outline>
</glyph>
<glyph name="five" format="2">
  <advance width="558"/>
  <unicode hex="0035"/>
  <outline>
    <contour>
      <point x="318" y="468" type="curve" smooth="yes"/>
      <point x="273" y="468"/>
      <point x="262" y="463"/>
      <point x="242" y="459" type="curve"/>
      <point x="249" y="553" type="line"/>
      <point x="471" y="553" type="line"/>
      <point x="471" y="714" type="line"/>
      <point x="78" y="714" type="line"/>
      <point x="52" y="337" type="line"/>
      <point x="125" y="302" type="line"/>
      <point x="149" y="310"/>
      <point x="178" y="319"/>
      <point x="212" y="319" type="curve" smooth="yes"/>
      <point x="276" y="319"/>
      <point x="309" y="286"/>
      <point x="309" y="232" type="curve" smooth="yes"/>
      <point x="309" y="173"/>
      <point x="276" y="142"/>
      <point x="219" y="142" type="curve" smooth="yes"/>
      <point x="165" y="142"/>
      <point x="90" y="164"/>
      <point x="42" y="187" type="curve"/>
      <point x="42" y="29" type="line"/>
      <point x="94" y="3"/>
      <point x="158" y="-10"/>
      <point x="240" y="-10" type="curve" smooth="yes"/>
      <point x="427" y="-10"/>
      <point x="515" y="78"/>
      <point x="515" y="238" type="curve" smooth="yes"/>
      <point x="515" y="385"/>
      <point x="424" y="468"/>
    </contour>
  </outline>
</glyph>
<glyph name="five.serif" format="2">
  <advance width="569"/>
  <unicode hex="0035"/>
  <outline>
    <contour>
      <point x="253" y="-10" type="curve" smooth="yes"/>
      <point x="428" y="-10"/>
      <point x="526" y="78"/>
      <point x="526" y="221" type="curve" smooth="yes"/>
      <point x="526" y="356"/>
      <point x="428" y="438"/>
      <point x="268" y="438" type="curve" smooth="yes"/>
      <point x="186" y="438"/>
      <point x="127" y="416"/>
      <point x="94" y="370" type="curve"/>
      <point x="113" y="583" type="line"/>
      <point x="414" y="583" type="line" smooth="yes"/>
      <point x="460" y="583"/>
      <point x="471" y="571"/>
      <point x="474" y="533" type="curve" smooth="yes"/>
      <point x="476" y="510" type="line"/>
      <point x="486" y="510" type="line"/>
      <point x="479" y="715" type="line"/>
      <point x="116" y="715" type="line"/>
      <point x="82" y="356" type="line"/>
      <point x="92" y="352" type="line"/>
      <point x="119" y="394"/>
      <point x="166" y="419"/>
      <point x="207" y="419" type="curve" smooth="yes"/>
      <point x="299" y="419"/>
      <point x="337" y="350"/>
      <point x="337" y="209" type="curve" smooth="yes"/>
      <point x="337" y="34"/>
      <point x="283" y="1"/>
      <point x="228" y="1" type="curve" smooth="yes"/>
      <point x="146" y="1"/>
      <point x="127" y="78"/>
      <point x="127" y="202" type="curve"/>
      <point x="75" y="202"/>
      <point x="34" y="178"/>
      <point x="34" y="126" type="curve" smooth="yes"/>
      <point x="34" y="42"/>
      <point x="123" y="-10"/>
    </contour>
  </outline>
</glyph>
<glyph name="six" format="2">
  <advance width="558"/>
  <unicode hex="0036"/>
  <outline>
    <contour>
      <point x="31" y="302" type="curve" smooth="yes"/>
      <point x="31" y="88"/>
      <point x="141" y="-10"/>
      <point x="288" y="-10" type="curve" smooth="yes"/>
      <point x="438" y="-10"/>
      <point x="530" y="84"/>
      <point x="530" y="244" type="curve" smooth="yes"/>
      <point x="530" y="392"/>
      <point x="461" y="476"/>
      <point x="344" y="476" type="curve" smooth="yes"/>
      <point x="275" y="476"/>
      <point x="241" y="440"/>
      <point x="219" y="393" type="curve"/>
      <point x="213" y="393" type="line"/>
      <point x="219" y="506"/>
      <point x="261" y="574"/>
      <point x="380" y="574" type="curve" smooth="yes"/>
      <point x="435" y="574"/>
      <point x="464" y="570"/>
      <point x="490" y="565" type="curve"/>
      <point x="490" y="716" type="line"/>
      <point x="464" y="720"/>
      <point x="417" y="724"/>
      <point x="391" y="724" type="curve" smooth="yes"/>
      <point x="84" y="724"/>
      <point x="31" y="507"/>
    </contour>
    <contour>
      <point x="284" y="143" type="curve" smooth="yes"/>
      <point x="246" y="143"/>
      <point x="234" y="199"/>
      <point x="234" y="250" type="curve" smooth="yes"/>
      <point x="234" y="288"/>
      <point x="250" y="327"/>
      <point x="285" y="327" type="curve" smooth="yes"/>
      <point x="320" y="327"/>
      <point x="332" y="294"/>
      <point x="332" y="240" type="curve" smooth="yes"/>
      <point x="332" y="173"/>
      <point x="313" y="143"/>
    </contour>
  </outline>
</glyph>
<glyph name="six.serif" format="2">
  <advance width="569"/>
  <unicode hex="0036"/>
  <outline>
    <contour>
      <point x="298" y="-10" type="curve" smooth="yes"/>
      <point x="462" y="-10"/>
      <point x="541" y="88"/>
      <point x="541" y="232" type="curve" smooth="yes"/>
      <point x="541" y="364"/>
      <point x="462" y="441"/>
      <point x="341" y="441" type="curve" smooth="yes"/>
      <point x="289" y="441"/>
      <point x="253" y="432"/>
      <point x="216" y="403" type="curve"/>
      <point x="219" y="632"/>
      <point x="246" y="714"/>
      <point x="312" y="714" type="curve" smooth="yes"/>
      <point x="367" y="714"/>
      <point x="385" y="667"/>
      <point x="385" y="519" type="curve"/>
      <point x="486" y="519"/>
      <point x="521" y="561"/>
      <point x="521" y="610" type="curve" smooth="yes"/>
      <point x="521" y="670"/>
      <point x="465" y="724"/>
      <point x="323" y="724" type="curve" smooth="yes"/>
      <point x="134" y="724"/>
      <point x="38" y="572"/>
      <point x="38" y="329" type="curve" smooth="yes"/>
      <point x="38" y="97"/>
      <point x="139" y="-10"/>
    </contour>
    <contour>
      <point x="297" y="0" type="curve" smooth="yes"/>
      <point x="231" y="0"/>
      <point x="216" y="79"/>
      <point x="216" y="390" type="curve"/>
      <point x="239" y="410"/>
      <point x="269" y="425"/>
      <point x="292" y="425" type="curve" smooth="yes"/>
      <point x="347" y="425"/>
      <point x="364" y="376"/>
      <point x="364" y="222" type="curve" smooth="yes"/>
      <point x="364" y="53"/>
      <point x="348" y="0"/>
    </contour>
  </outline>
</glyph>
<glyph name="seven" format="2">
  <advance width="558"/>
  <unicode hex="0037"/>
  <outline>
    <contour>
      <point x="92" y="0" type="line"/>
      <point x="302" y="0" type="line"/>
      <point x="528" y="600" type="line"/>
      <point x="528" y="714" type="line"/>
      <point x="42" y="714" type="line"/>
      <point x="42" y="554" type="line"/>
      <point x="310" y="554" type="line"/>
    </contour>
  </outline>
</glyph>
<glyph name="seven.serif" format="2">
  <advance width="569"/>
  <unicode hex="0037"/>
  <outline>
    <contour>
      <point x="146" y="0" type="line"/>
      <point x="258" y="0" type="line"/>
      <point x="526" y="651" type="line"/>
      <point x="526" y="715" type="line"/>
      <point x="54" y="715" type="line"/>
      <point x="46" y="483" type="line"/>
      <point x="56" y="483" type="line"/>
      <point x="59" y="514" type="line" smooth="yes"/>
      <point x="64" y="567"/>
      <point x="83" y="584"/>
      <point x="139" y="584" type="curve" smooth="yes"/>
      <point x="488" y="584" type="line"/>
    </contour>
  </outline>
</glyph>
<glyph name="eight" format="2">
  <advance width="558"/>
  <unicode hex="0038"/>
  <outline>
    <contour>
      <point x="282" y="724" type="curve" smooth="yes"/>
      <point x="139" y="724"/>
      <point x="49" y="666"/>
      <point x="49" y="551" type="curve" smooth="yes"/>
      <point x="49" y="468"/>
      <point x="94" y="413"/>
      <point x="149" y="373" type="curve"/>
      <point x="79" y="335"/>
      <point x="30" y="287"/>
      <point x="30" y="188" type="curve" smooth="yes"/>
      <point x="30" y="71"/>
      <point x="98" y="-10"/>
      <point x="279" y="-10" type="curve" smooth="yes"/>
      <point x="465" y="-10"/>
      <point x="530" y="75"/>
      <point x="530" y="190" type="curve" smooth="yes"/>
      <point x="530" y="284"/>
      <point x="456" y="338"/>
      <point x="398" y="376" type="curve"/>
      <point x="465" y="411"/>
      <point x="511" y="464"/>
      <point x="511" y="550" type="curve" smooth="yes"/>
      <point x="511" y="667"/>
      <point x="424" y="724"/>
    </contour>
    <contour>
      <point x="216" y="196" type="curve" smooth="yes"/>
      <point x="216" y="239"/>
      <point x="248" y="268"/>
      <point x="280" y="291" type="curve"/>
      <point x="291" y="282" type="line" smooth="yes"/>
      <point x="305" y="270"/>
      <point x="344" y="236"/>
      <point x="344" y="192" type="curve" smooth="yes"/>
      <point x="344" y="153"/>
      <point x="324" y="129"/>
      <point x="277" y="129" type="curve" smooth="yes"/>
      <point x="240" y="129"/>
      <point x="216" y="156"/>
    </contour>
    <contour>
      <point x="281" y="585" type="curve" smooth="yes"/>
      <point x="300" y="585"/>
      <point x="320" y="565"/>
      <point x="320" y="533" type="curve" smooth="yes"/>
      <point x="320" y="495"/>
      <point x="295" y="475"/>
      <point x="278" y="459" type="curve"/>
      <point x="256" y="477"/>
      <point x="240" y="502"/>
      <point x="240" y="533" type="curve" smooth="yes"/>
      <point x="240" y="565"/>
      <point x="260" y="585"/>
    </contour>
  </outline>
</glyph>
<glyph name="eight.serif" format="2">
  <advance width="569"/>
  <unicode hex="0038"/>
  <outline>
    <contour>
      <point x="278" y="-10" type="curve" smooth="yes"/>
      <point x="450" y="-10"/>
      <point x="546" y="68"/>
      <point x="546" y="197" type="curve" smooth="yes"/>
      <point x="546" y="311"/>
      <point x="472" y="352"/>
      <point x="361" y="407" type="curve"/>
      <point x="462" y="429"/>
      <point x="521" y="483"/>
      <point x="521" y="561" type="curve" smooth="yes"/>
      <point x="521" y="648"/>
      <point x="449" y="724"/>
      <point x="286" y="724" type="curve" smooth="yes"/>
      <point x="116" y="724"/>
      <point x="46" y="641"/>
      <point x="46" y="535" type="curve" smooth="yes"/>
      <point x="46" y="437"/>
      <point x="107" y="396"/>
      <point x="203" y="342" type="curve"/>
      <point x="99" y="329"/>
      <point x="23" y="274"/>
      <point x="23" y="175" type="curve" smooth="yes"/>
      <point x="23" y="76"/>
      <point x="98" y="-10"/>
    </contour>
    <contour>
      <point x="283" y="0" type="curve" smooth="yes"/>
      <point x="206" y="0"/>
      <point x="176" y="55"/>
      <point x="176" y="160" type="curve" smooth="yes"/>
      <point x="176" y="231"/>
      <point x="189" y="285"/>
      <point x="222" y="331" type="curve"/>
      <point x="317" y="276"/>
      <point x="385" y="236"/>
      <point x="385" y="123" type="curve" smooth="yes"/>
      <point x="385" y="44"/>
      <point x="352" y="0"/>
    </contour>
    <contour>
      <point x="342" y="416" type="curve"/>
      <point x="252" y="460"/>
      <point x="202" y="487"/>
      <point x="202" y="592" type="curve" smooth="yes"/>
      <point x="202" y="668"/>
      <point x="229" y="714"/>
      <point x="289" y="714" type="curve" smooth="yes"/>
      <point x="347" y="714"/>
      <point x="372" y="667"/>
      <point x="372" y="559" type="curve" smooth="yes"/>
      <point x="372" y="498"/>
      <point x="365" y="447"/>
    </contour>
  </outline>
</glyph>
<glyph name="nine" format="2">
  <advance width="558"/>
  <unicode hex="0039"/>
  <outline>
    <contour>
      <point x="529" y="416" type="curve" smooth="yes"/>
      <point x="529" y="640"/>
      <point x="414" y="724"/>
      <point x="272" y="724" type="curve" smooth="yes"/>
      <point x="121" y="724"/>
      <point x="31" y="630"/>
      <point x="31" y="472" type="curve" smooth="yes"/>
      <point x="31" y="320"/>
      <point x="98" y="235"/>
      <point x="204" y="235" type="curve" smooth="yes"/>
      <point x="295" y="235"/>
      <point x="317" y="270"/>
      <point x="341" y="318" type="curve"/>
      <point x="346" y="318" type="line"/>
      <point x="342" y="229"/>
      <point x="305" y="140"/>
      <point x="163" y="140" type="curve" smooth="yes"/>
      <point x="115" y="140"/>
      <point x="92" y="143"/>
      <point x="65" y="148" type="curve"/>
      <point x="65" y="-5" type="line"/>
      <point x="92" y="-9"/>
      <point x="133" y="-10"/>
      <point x="176" y="-10" type="curve" smooth="yes"/>
      <point x="412" y="-10"/>
      <point x="529" y="122"/>
    </contour>
    <contour>
      <point x="278" y="571" type="curve" smooth="yes"/>
      <point x="317" y="571"/>
      <point x="327" y="518"/>
      <point x="327" y="464" type="curve" smooth="yes"/>
      <point x="327" y="427"/>
      <point x="314" y="383"/>
      <point x="276" y="383" type="curve" smooth="yes"/>
      <point x="245" y="383"/>
      <point x="228" y="419"/>
      <point x="228" y="474" type="curve" smooth="yes"/>
      <point x="228" y="542"/>
      <point x="245" y="571"/>
    </contour>
  </outline>
</glyph>
<glyph name="nine.serif" format="2">
  <advance width="569"/>
  <unicode hex="0039"/>
  <outline>
    <contour>
      <point x="234" y="-10" type="curve" smooth="yes"/>
      <point x="428" y="-10"/>
      <point x="531" y="142"/>
      <point x="531" y="382" type="curve" smooth="yes"/>
      <point x="531" y="617"/>
      <point x="433" y="724"/>
      <point x="268" y="724" type="curve" smooth="yes"/>
      <point x="108" y="724"/>
      <point x="28" y="623"/>
      <point x="28" y="485" type="curve" smooth="yes"/>
      <point x="28" y="352"/>
      <point x="103" y="275"/>
      <point x="231" y="275" type="curve" smooth="yes"/>
      <point x="282" y="275"/>
      <point x="318" y="288"/>
      <point x="353" y="337" type="curve"/>
      <point x="351" y="94"/>
      <point x="322" y="0"/>
      <point x="230" y="0" type="curve" smooth="yes"/>
      <point x="156" y="0"/>
      <point x="125" y="55"/>
      <point x="125" y="193" type="curve"/>
      <point x="86" y="193"/>
      <point x="54" y="160"/>
      <point x="54" y="111" type="curve" smooth="yes"/>
      <point x="54" y="36"/>
      <point x="127" y="-10"/>
    </contour>
    <contour>
      <point x="274" y="298" type="curve" smooth="yes"/>
      <point x="222" y="298"/>
      <point x="205" y="344"/>
      <point x="205" y="500" type="curve" smooth="yes"/>
      <point x="205" y="661"/>
      <point x="223" y="714"/>
      <point x="276" y="714" type="curve" smooth="yes"/>
      <point x="340" y="714"/>
      <point x="353" y="639"/>
      <point x="353" y="357" type="curve"/>
      <point x="323" y="308"/>
      <point x="299" y="298"/>
    </contour>
  </outline>
</glyph>
<glyph name="colon" format="2">
  <advance width="274"/>
  <unicode hex="003A"/>
  <outline>
    <contour>
      <point x="32" y="81" type="curve"/>
      <point x="32" y="15"/>
      <point x="81" y="-12"/>
      <point x="139" y="-12" type="curve" smooth="yes"/>
      <point x="194" y="-12"/>
      <point x="241" y="15"/>
      <point x="241" y="81" type="curve" smooth="yes"/>
      <point x="241" y="150"/>
      <point x="194" y="175"/>
      <point x="139" y="175" type="curve" smooth="yes"/>
      <point x="81" y="175"/>
      <point x="32" y="150"/>
    </contour>
    <contour>
      <point x="32" y="467" type="curve"/>
      <point x="32" y="400"/>
      <point x="81" y="373"/>
      <point x="139" y="373" type="curve" smooth="yes"/>
      <point x="194" y="373"/>
      <point x="241" y="400"/>
      <point x="241" y="467" type="curve" smooth="yes"/>
      <point x="241" y="535"/>
      <point x="194" y="560"/>
      <point x="139" y="560" type="curve" smooth="yes"/>
      <point x="81" y="560"/>
      <point x="32" y="535"/>
    </contour>
  </outline>
</glyph>
<glyph name="colon.serif" format="2">
  <advance width="317"/>
  <unicode hex="003A"/>
  <outline>
    <contour>
      <point x="158" y="370" type="curve" smooth="yes"/>
      <point x="202" y="370"/>
      <point x="241" y="392"/>
      <point x="241" y="459" type="curve" smooth="yes"/>
      <point x="241" y="527"/>
      <point x="202" y="548"/>
      <point x="158" y="548" type="curve" smooth="yes"/>
      <point x="111" y="548"/>
      <point x="75" y="527"/>
      <point x="75" y="459" type="curve" smooth="yes"/>
      <point x="75" y="392"/>
      <point x="111" y="370"/>
    </contour>
    <contour>
      <point x="158" y="-9" type="curve" smooth="yes"/>
      <point x="202" y="-9"/>
      <point x="241" y="13"/>
      <point x="241" y="80" type="curve" smooth="yes"/>
      <point x="241" y="148"/>
      <point x="202" y="169"/>
      <point x="158" y="169" type="curve" smooth="yes"/>
      <point x="111" y="169"/>
      <point x="75" y="148"/>
      <point x="75" y="80" type="curve" smooth="yes"/>
      <point x="75" y="13"/>
      <point x="111" y="-9"/>
    </contour>
  </outline>
</glyph>
<glyph name="semicolon" format="2">
  <advance width="274"/>
  <unicode hex="003B"/>
  <outline>
    <contour>
      <point x="249" y="135" type="curve"/>
      <point x="242" y="146" type="line"/>
      <point x="70" y="146" type="line"/>
      <point x="62" y="66"/>
      <point x="43" y="-48"/>
      <point x="25" y="-139" type="curve"/>
      <point x="168" y="-139" type="line"/>
      <point x="199" y="-65"/>
      <point x="232" y="63"/>
    </contour>
    <contour>
      <point x="36" y="467" type="curve"/>
      <point x="36" y="400"/>
      <point x="84" y="373"/>
      <point x="142" y="373" type="curve" smooth="yes"/>
      <point x="197" y="373"/>
      <point x="245" y="400"/>
      <point x="245" y="467" type="curve" smooth="yes"/>
      <point x="245" y="535"/>
      <point x="197" y="560"/>
      <point x="142" y="560" type="curve" smooth="yes"/>
      <point x="84" y="560"/>
      <point x="36" y="535"/>
    </contour>
  </outline>
</glyph>
<glyph name="semicolon.serif" format="2">
  <advance width="317"/>
  <unicode hex="003B"/>
  <outline>
    <contour>
      <point x="58" y="-144" type="curve"/>
      <point x="58" y="-154" type="line"/>
      <point x="196" y="-119"/>
      <point x="248" y="-43"/>
      <point x="248" y="45" type="curve" smooth="yes"/>
      <point x="248" y="119"/>
      <point x="212" y="169"/>
      <point x="151" y="169" type="curve" smooth="yes"/>
      <point x="101" y="169"/>
      <point x="68" y="138"/>
      <point x="68" y="85" type="curve" smooth="yes"/>
      <point x="68" y="-6"/>
      <point x="166" y="26"/>
      <point x="166" y="-50" type="curve" smooth="yes"/>
      <point x="166" y="-108"/>
      <point x="111" y="-127"/>
    </contour>
    <contour>
      <point x="158" y="370" type="curve" smooth="yes"/>
      <point x="202" y="370"/>
      <point x="241" y="392"/>
      <point x="241" y="459" type="curve" smooth="yes"/>
      <point x="241" y="527"/>
      <point x="202" y="548"/>
      <point x="158" y="548" type="curve" smooth="yes"/>
      <point x="111" y="548"/>
      <point x="75" y="527"/>
      <point x="75" y="459" type="curve" smooth="yes"/>
      <point x="75" y="392"/>
      <point x="111" y="370"/>
    </contour>
  </outline>
</glyph>
<glyph name="greater" format="2">
  <advance width="570"/>
  <unicode hex="003E"/>
  <outline>
    <contour>
      <point x="49" y="231" type="line"/>
      <point x="49" y="87" type="line"/>
      <point x="518" y="306" type="line"/>
      <point x="518" y="390" type="line"/>
      <point x="49" y="637" type="line"/>
      <point x="49" y="492" type="line"/>
      <point x="317" y="354" type="line"/>
    </contour>
  </outline>
</glyph>
<glyph name="question" format="2">
  <advance width="489"/>
  <unicode hex="003F"/>
  <outline>
    <contour>
      <point x="132" y="294" type="curve" smooth="yes"/>
      <point x="132" y="252" type="line"/>
      <point x="305" y="252" type="line"/>
      <point x="305" y="277" type="line" smooth="yes"/>
      <point x="305" y="308"/>
      <point x="318" y="329"/>
      <point x="367" y="362" type="curve" smooth="yes"/>
      <point x="446" y="416"/>
      <point x="475" y="469"/>
      <point x="475" y="546" type="curve" smooth="yes"/>
      <point x="475" y="653"/>
      <point x="393" y="724"/>
      <point x="249" y="724" type="curve" smooth="yes"/>
      <point x="153" y="724"/>
      <point x="71" y="697"/>
      <point x="-2" y="655" type="curve"/>
      <point x="70" y="522" type="line"/>
      <point x="135" y="556"/>
      <point x="192" y="574"/>
      <point x="232" y="574" type="curve" smooth="yes"/>
      <point x="263" y="574"/>
      <point x="286" y="557"/>
      <point x="286" y="525" type="curve" smooth="yes"/>
      <point x="286" y="492"/>
      <point x="274" y="472"/>
      <point x="222" y="439" type="curve" smooth="yes"/>
      <point x="149" y="392"/>
      <point x="132" y="354"/>
    </contour>
    <contour>
      <point x="117" y="81" type="curve" smooth="yes"/>
      <point x="117" y="15"/>
      <point x="165" y="-12"/>
      <point x="223" y="-12" type="curve" smooth="yes"/>
      <point x="280" y="-12"/>
      <point x="327" y="15"/>
      <point x="327" y="81" type="curve" smooth="yes"/>
      <point x="327" y="150"/>
      <point x="280" y="175"/>
      <point x="223" y="175" type="curve" smooth="yes"/>
      <point x="165" y="175"/>
      <point x="117" y="150"/>
    </contour>
  </outline>
</glyph>
<glyph name="question.serif" format="2">
  <advance width="587"/>
  <unicode hex="003F"/>
  <outline>
    <contour>
      <point x="196" y="350" type="curve"/>
      <point x="254" y="238" type="line"/>
      <point x="269" y="238" type="line"/>
      <point x="327" y="350" type="line"/>
      <point x="466" y="381"/>
      <point x="529" y="433"/>
      <point x="529" y="538" type="curve" smooth="yes"/>
      <point x="529" y="655"/>
      <point x="427" y="724"/>
      <point x="265" y="724" type="curve" smooth="yes"/>
      <point x="105" y="724"/>
      <point x="33" y="660"/>
      <point x="33" y="600" type="curve" smooth="yes"/>
      <point x="33" y="534"/>
      <point x="93" y="516"/>
      <point x="200" y="516" type="curve"/>
      <point x="200" y="663"/>
      <point x="217" y="714"/>
      <point x="266" y="714" type="curve" smooth="yes"/>
      <point x="312" y="714"/>
      <point x="333" y="672"/>
      <point x="333" y="532" type="curve" smooth="yes"/>
      <point x="333" y="403"/>
      <point x="296" y="354"/>
    </contour>
    <contour>
      <point x="259" y="-9" type="curve" smooth="yes"/>
      <point x="303" y="-9"/>
      <point x="342" y="13"/>
      <point x="342" y="80" type="curve" smooth="yes"/>
      <point x="342" y="148"/>
      <point x="303" y="169"/>
      <point x="259" y="169" type="curve" smooth="yes"/>
      <point x="212" y="169"/>
      <point x="176" y="148"/>
      <point x="176" y="80" type="curve" smooth="yes"/>
      <point x="176" y="13"/>
      <point x="212" y="-9"/>
    </contour>
  </outline>
</glyph>
<glyph name="at" format="2">
  <advance width="843"/>
  <unicode hex="0040"/>
  <outline>
    <contour>
      <point x="811" y="369" type="curve"/>
      <point x="811" y="588"/>
      <point x="667" y="723"/>
      <point x="441" y="723" type="curve" smooth="yes"/>
      <point x="192" y="723"/>
      <point x="32" y="538"/>
      <point x="32" y="298" type="curve" smooth="yes"/>
      <point x="32" y="67"/>
      <point x="176" y="-75"/>
      <point x="421" y="-75" type="curve" smooth="yes"/>
      <point x="505" y="-75"/>
      <point x="589" y="-58"/>
      <point x="656" y="-29" type="curve"/>
      <point x="656" y="83" type="line"/>
      <point x="576" y="54"/>
      <point x="480" y="36"/>
      <point x="412" y="36" type="curve" smooth="yes"/>
      <point x="249" y="36"/>
      <point x="170" y="138"/>
      <point x="170" y="296" type="curve" smooth="yes"/>
      <point x="170" y="481"/>
      <point x="264" y="614"/>
      <point x="444" y="614" type="curve" smooth="yes"/>
      <point x="611" y="614"/>
      <point x="678" y="519"/>
      <point x="678" y="370" type="curve" smooth="yes"/>
      <point x="678" y="289"/>
      <point x="659" y="220"/>
      <point x="630" y="220" type="curve" smooth="yes"/>
      <point x="619" y="220"/>
      <point x="614" y="231"/>
      <point x="614" y="262" type="curve" smooth="yes"/>
      <point x="614" y="280"/>
      <point x="616" y="301"/>
      <point x="615" y="308" type="curve"/>
      <point x="625" y="514" type="line"/>
      <point x="583" y="529"/>
      <point x="524" y="544"/>
      <point x="462" y="544" type="curve" smooth="yes"/>
      <point x="299" y="544"/>
      <point x="220" y="444"/>
      <point x="220" y="312" type="curve" smooth="yes"/>
      <point x="220" y="193"/>
      <point x="274" y="114"/>
      <point x="393" y="114" type="curve" smooth="yes"/>
      <point x="440" y="114"/>
      <point x="479" y="139"/>
      <point x="509" y="172" type="curve"/>
      <point x="515" y="172" type="line"/>
      <point x="544" y="134"/>
      <point x="590" y="114"/>
      <point x="635" y="114" type="curve" smooth="yes"/>
      <point x="746" y="114"/>
      <point x="811" y="244"/>
    </contour>
    <contour>
      <point x="361" y="313" type="curve" smooth="yes"/>
      <point x="361" y="380"/>
      <point x="395" y="437"/>
      <point x="462" y="437" type="curve" smooth="yes"/>
      <point x="468" y="437"/>
      <point x="470" y="436"/>
      <point x="481" y="434" type="curve"/>
      <point x="477" y="358" type="line" smooth="yes"/>
      <point x="471" y="260"/>
      <point x="455" y="220"/>
      <point x="412" y="220" type="curve" smooth="yes"/>
      <point x="382" y="220"/>
      <point x="361" y="248"/>
    </contour>
  </outline>
</glyph>
<glyph name="at.serif" format="2">
  <advance width="921"/>
  <unicode hex="0040"/>
  <outline>
    <contour>
      <point x="425" y="-142" type="curve" smooth="yes"/>
      <point x="536" y="-142"/>
      <point x="633" y="-111"/>
      <point x="728" y="-43" type="curve"/>
      <point x="721" y="-34" type="line"/>
      <point x="625" y="-102"/>
      <point x="532" y="-131"/>
      <point x="434" y="-131" type="curve" smooth="yes"/>
      <point x="246" y="-131"/>
      <point x="153" y="-20"/>
      <point x="153" y="203" type="curve" smooth="yes"/>
      <point x="153" y="495"/>
      <point x="312" y="704"/>
      <point x="551" y="704" type="curve" smooth="yes"/>
      <point x="713" y="704"/>
      <point x="801" y="612"/>
      <point x="801" y="403" type="curve" smooth="yes"/>
      <point x="801" y="241"/>
      <point x="748" y="87"/>
      <point x="676" y="87" type="curve" smooth="yes"/>
      <point x="647" y="87"/>
      <point x="638" y="112"/>
      <point x="638" y="147" type="curve" smooth="yes"/>
      <point x="638" y="181"/>
      <point x="647" y="225"/>
      <point x="655" y="266" type="curve" smooth="yes"/>
      <point x="706" y="520" type="line"/>
      <point x="694" y="520" type="line"/>
      <point x="586" y="484" type="line"/>
      <point x="570" y="510"/>
      <point x="550" y="529"/>
      <point x="496" y="529" type="curve" smooth="yes"/>
      <point x="323" y="529"/>
      <point x="245" y="353"/>
      <point x="245" y="234" type="curve" smooth="yes"/>
      <point x="245" y="131"/>
      <point x="304" y="77"/>
      <point x="385" y="77" type="curve" smooth="yes"/>
      <point x="449" y="77"/>
      <point x="503" y="116"/>
      <point x="529" y="218" type="curve"/>
      <point x="531" y="218" type="line"/>
      <point x="531" y="94"/>
      <point x="606" y="77"/>
      <point x="661" y="77" type="curve" smooth="yes"/>
      <point x="773" y="77"/>
      <point x="882" y="203"/>
      <point x="882" y="385" type="curve" smooth="yes"/>
      <point x="882" y="575"/>
      <point x="764" y="714"/>
      <point x="535" y="714" type="curve" smooth="yes"/>
      <point x="250" y="714"/>
      <point x="51" y="500"/>
      <point x="51" y="223" type="curve" smooth="yes"/>
      <point x="51" y="-24"/>
      <point x="209" y="-142"/>
    </contour>
    <contour>
      <point x="432" y="102" type="curve" smooth="yes"/>
      <point x="406" y="102"/>
      <point x="386" y="134"/>
      <point x="386" y="204" type="curve" smooth="yes"/>
      <point x="386" y="318"/>
      <point x="433" y="518"/>
      <point x="513" y="518" type="curve" smooth="yes"/>
      <point x="544" y="518"/>
      <point x="568" y="495"/>
      <point x="569" y="479" type="curve"/>
      <point x="526" y="251" type="line" smooth="yes"/>
      <point x="508" y="157"/>
      <point x="465" y="102"/>
    </contour>
  </outline>
</glyph>
<glyph name="A.serif" format="2">
  <advance width="788"/>
  <unicode hex="0041"/>
  <anchor x="620" y="0" name="bottom"/>
  <anchor x="394" y="714" name="top"/>
  <anchor x="668" y="714" name="topright"/>
  <outline>
    <contour>
      <point x="7" y="0" type="line"/>
      <point x="244" y="0" type="line"/>
      <point x="244" y="10" type="line"/>
      <point x="173" y="10" type="line" smooth="yes"/>
      <point x="143" y="10"/>
      <point x="133" y="22"/>
      <point x="133" y="43" type="curve" smooth="yes"/>
      <point x="133" y="60"/>
      <point x="140" y="82"/>
      <point x="148" y="108" type="curve" smooth="yes"/>
      <point x="197" y="262" type="line"/>
      <point x="444" y="262" type="line"/>
      <point x="498" y="90" type="line" smooth="yes"/>
      <point x="504" y="71"/>
      <point x="508" y="55"/>
      <point x="508" y="42" type="curve" smooth="yes"/>
      <point x="508" y="22"/>
      <point x="498" y="10"/>
      <point x="467" y="10" type="curve" smooth="yes"/>
      <point x="427" y="10" type="line"/>
      <point x="427" y="0" type="line"/>
      <point x="788" y="0" type="line"/>
      <point x="788" y="10" type="line"/>
      <point x="786" y="10" type="line" smooth="yes"/>
      <point x="749" y="10"/>
      <point x="721" y="29"/>
      <point x="704" y="77" type="curve" smooth="yes"/>
      <point x="481" y="714" type="line"/>
      <point x="330" y="714" type="line"/>
      <point x="128" y="79" type="line" smooth="yes"/>
      <point x="109" y="21"/>
      <point x="79" y="10"/>
      <point x="45" y="10" type="curve" smooth="yes"/>
      <point x="7" y="10" type="line"/>
    </contour>
    <contour>
      <point x="200" y="272" type="line"/>
      <point x="271" y="494" type="line" smooth="yes"/>
      <point x="289" y="550"/>
      <point x="308" y="610"/>
      <point x="322" y="659" type="curve"/>
      <point x="337" y="605"/>
      <point x="359" y="530"/>
      <point x="371" y="492" type="curve" smooth="yes"/>
      <point x="441" y="272" type="line"/>
    </contour>
  </outline>
</glyph>
<glyph name="B" format="2">
  <advance width="635"/>
  <unicode hex="0042"/>
  <anchor x="321" y="0" name="bottom"/>
  <anchor x="318" y="714" name="top"/>
  <anchor x="616" y="714" name="topright"/>
  <outline>
    <contour>
      <point x="314" y="714" type="curve" smooth="yes"/>
      <point x="66" y="714" type="line"/>
      <point x="66" y="0" type="line"/>
      <point x="333" y="0" type="line" smooth="yes"/>
      <point x="494" y="0"/>
      <point x="594" y="79"/>
      <point x="594" y="209" type="curve" smooth="yes"/>
      <point x="594" y="323"/>
      <point x="524" y="359"/>
      <point x="477" y="374" type="curve"/>
      <point x="477" y="379" type="line"/>
      <point x="518" y="392"/>
      <point x="583" y="442"/>
      <point x="583" y="536" type="curve" smooth="yes"/>
      <point x="583" y="651"/>
      <point x="516" y="714"/>
    </contour>
    <contour>
      <point x="308" y="440" type="curve" smooth="yes"/>
      <point x="270" y="440" type="line"/>
      <point x="270" y="568" type="line"/>
      <point x="307" y="568" type="line" smooth="yes"/>
      <point x="352" y="568"/>
      <point x="374" y="547"/>
      <point x="374" y="508" type="curve" smooth="yes"/>
      <point x="374" y="470"/>
      <point x="356" y="440"/>
    </contour>
    <contour>
      <point x="270" y="299" type="line"/>
      <point x="314" y="299" type="line"/>
      <point x="369" y="299"/>
      <point x="385" y="263"/>
      <point x="385" y="225" type="curve" smooth="yes"/>
      <point x="385" y="181"/>
      <point x="367" y="149"/>
      <point x="317" y="149" type="curve" smooth="yes"/>
      <point x="270" y="149" type="line"/>
    </contour>
  </outline>
</glyph>
<glyph name="B.serif" format="2">
  <advance width="720"/>
  <unicode hex="0042"/>
  <anchor x="360" y="0" name="bottom"/>
  <anchor x="360" y="714" name="top"/>
  <anchor x="700" y="714" name="topright"/>
  <outline>
    <contour>
      <point x="21" y="0" type="line"/>
      <point x="379" y="0" type="line" smooth="yes"/>
      <point x="590" y="0"/>
      <point x="690" y="66"/>
      <point x="690" y="194" type="curve" smooth="yes"/>
      <point x="690" y="319"/>
      <point x="595" y="377"/>
      <point x="411" y="378" type="curve"/>
      <point x="411" y="380" type="line"/>
      <point x="581" y="386"/>
      <point x="661" y="437"/>
      <point x="661" y="541" type="curve" smooth="yes"/>
      <point x="661" y="658"/>
      <point x="561" y="714"/>
      <point x="349" y="714" type="curve" smooth="yes"/>
      <point x="21" y="714" type="line"/>
      <point x="21" y="704" type="line"/>
      <point x="70" y="704" type="line" smooth="yes"/>
      <point x="89" y="704"/>
      <point x="113" y="692"/>
      <point x="113" y="649" type="curve" smooth="yes"/>
      <point x="113" y="65" type="line" smooth="yes"/>
      <point x="113" y="32"/>
      <point x="101" y="10"/>
      <point x="73" y="10" type="curve" smooth="yes"/>
      <point x="21" y="10" type="line"/>
    </contour>
    <contour>
      <point x="364" y="10" type="curve" smooth="yes"/>
      <point x="312" y="10" type="line"/>
      <point x="312" y="369" type="line"/>
      <point x="366" y="369" type="line" smooth="yes"/>
      <point x="441" y="369"/>
      <point x="477" y="312"/>
      <point x="477" y="191" type="curve" smooth="yes"/>
      <point x="477" y="68"/>
      <point x="441" y="10"/>
    </contour>
    <contour>
      <point x="340" y="379" type="curve" smooth="yes"/>
      <point x="312" y="379" type="line"/>
      <point x="312" y="704" type="line"/>
      <point x="338" y="704" type="line" smooth="yes"/>
      <point x="416" y="704"/>
      <point x="453" y="652"/>
      <point x="453" y="540" type="curve" smooth="yes"/>
      <point x="453" y="431"/>
      <point x="417" y="379"/>
    </contour>
  </outline>
</glyph>
<glyph name="C" format="2">
  <advance width="616"/>
  <unicode hex="0043"/>
  <anchor x="361" y="0" name="bottom"/>
  <anchor x="357" y="714" name="top"/>
  <anchor x="597" y="714" name="topright"/>
  <outline>
    <contour>
      <point x="382" y="566" type="curve" smooth="yes"/>
      <point x="439" y="566"/>
      <point x="483" y="547"/>
      <point x="528" y="522" type="curve"/>
      <point x="589" y="674" type="line"/>
      <point x="525" y="706"/>
      <point x="439" y="724"/>
      <point x="375" y="724" type="curve" smooth="yes"/>
      <point x="162" y="724"/>
      <point x="44" y="571"/>
      <point x="44" y="355" type="curve" smooth="yes"/>
      <point x="44" y="138"/>
      <point x="139" y="-10"/>
      <point x="365" y="-10" type="curve" smooth="yes"/>
      <point x="433" y="-10"/>
      <point x="499" y="2"/>
      <point x="558" y="30" type="curve"/>
      <point x="558" y="193" type="line"/>
      <point x="509" y="168"/>
      <point x="456" y="148"/>
      <point x="398" y="148" type="curve" smooth="yes"/>
      <point x="302" y="148"/>
      <point x="252" y="219"/>
      <point x="252" y="354" type="curve" smooth="yes"/>
      <point x="252" y="487"/>
      <point x="296" y="566"/>
    </contour>
  </outline>
</glyph>
<glyph name="C.serif" format="2">
  <advance width="708"/>
  <unicode hex="0043"/>
  <anchor x="445" y="-10" name="bottom"/>
  <anchor x="404" y="714" name="top"/>
  <anchor x="688" y="714" name="topright"/>
  <outline>
    <contour>
      <point x="414" y="-10" type="curve" smooth="yes"/>
      <point x="606" y="-10"/>
      <point x="665" y="78"/>
      <point x="665" y="135" type="curve" smooth="yes"/>
      <point x="665" y="165"/>
      <point x="652" y="184"/>
      <point x="630" y="193" type="curve"/>
      <point x="618" y="68"/>
      <point x="549" y="1"/>
      <point x="443" y="1" type="curve" smooth="yes"/>
      <point x="310" y="1"/>
      <point x="264" y="108"/>
      <point x="264" y="358" type="curve" smooth="yes"/>
      <point x="264" y="608"/>
      <point x="297" y="714"/>
      <point x="406" y="714" type="curve" smooth="yes"/>
      <point x="486" y="714"/>
      <point x="511" y="636"/>
      <point x="511" y="506" type="curve"/>
      <point x="615" y="506"/>
      <point x="664" y="550"/>
      <point x="664" y="605" type="curve" smooth="yes"/>
      <point x="664" y="671"/>
      <point x="582" y="724"/>
      <point x="417" y="724" type="curve" smooth="yes"/>
      <point x="178" y="724"/>
      <point x="54" y="574"/>
      <point x="54" y="358" type="curve" smooth="yes"/>
      <point x="54" y="137"/>
      <point x="162" y="-10"/>
    </contour>
  </outline>
</glyph>
<glyph name="D" format="2">
  <advance width="687"/>
  <unicode hex="0044"/>
  <anchor x="346" y="0" name="bottom"/>
  <anchor x="344" y="357" name="center"/>
  <anchor x="344" y="714" name="top"/>
  <anchor x="668" y="714" name="topright"/>
  <outline>
    <contour>
      <point x="643" y="372" type="curve" smooth="yes"/>
      <point x="643" y="593"/>
      <point x="530" y="714"/>
      <point x="310" y="714" type="curve" smooth="yes"/>
      <point x="66" y="714" type="line"/>
      <point x="66" y="0" type="line"/>
      <point x="298" y="0" type="line" smooth="yes"/>
      <point x="502" y="0"/>
      <point x="643" y="123"/>
    </contour>
    <contour>
      <point x="432" y="365" type="curve" smooth="yes"/>
      <point x="432" y="225"/>
      <point x="392" y="158"/>
      <point x="298" y="158" type="curve" smooth="yes"/>
      <point x="270" y="158" type="line"/>
      <point x="270" y="558" type="line"/>
      <point x="309" y="558" type="line" smooth="yes"/>
      <point x="393" y="558"/>
      <point x="432" y="495"/>
    </contour>
  </outline>
</glyph>
<glyph name="D.serif" format="2">
  <advance width="796"/>
  <unicode hex="0044"/>
  <anchor x="398" y="0" name="bottom"/>
  <anchor x="398" y="357" name="center"/>
  <anchor x="398" y="714" name="top"/>
  <anchor x="776" y="714" name="topright"/>
  <outline>
    <contour>
      <point x="21" y="0" type="line"/>
      <point x="369" y="0" type="line"/>
      <point x="613" y="0"/>
      <point x="743" y="160"/>
      <point x="743" y="379" type="curve" smooth="yes"/>
      <point x="743" y="606"/>
      <point x="601" y="714"/>
      <point x="369" y="714" type="curve" smooth="yes"/>
      <point x="21" y="714" type="line"/>
      <point x="21" y="704" type="line"/>
      <point x="66" y="704" type="line" smooth="yes"/>
      <point x="94" y="704"/>
      <point x="113" y="687"/>
      <point x="113" y="650" type="curve" smooth="yes"/>
      <point x="113" y="64" type="line" smooth="yes"/>
      <point x="113" y="34"/>
      <point x="98" y="10"/>
      <point x="74" y="10" type="curve" smooth="yes"/>
      <point x="21" y="10" type="line"/>
    </contour>
    <contour>
      <point x="345" y="10" type="curve" smooth="yes"/>
      <point x="312" y="10" type="line"/>
      <point x="312" y="704" type="line"/>
      <point x="346" y="704" type="line"/>
      <point x="479" y="704"/>
      <point x="531" y="613"/>
      <point x="531" y="379" type="curve" smooth="yes"/>
      <point x="531" y="113"/>
      <point x="479" y="10"/>
    </contour>
  </outline>
</glyph>
<glyph name="E" format="2">
  <advance width="510"/>
  <unicode hex="0045"/>
  <anchor x="274" y="0" name="bottom"/>
  <anchor x="266" y="714" name="top"/>
  <anchor x="492" y="714" name="topright"/>
  <outline>
    <contour>
      <point x="471" y="0" type="line"/>
      <point x="471" y="157" type="line"/>
      <point x="270" y="157" type="line"/>
      <point x="270" y="292" type="line"/>
      <point x="456" y="292" type="line"/>
      <point x="456" y="447" type="line"/>
      <point x="270" y="447" type="line"/>
      <point x="270" y="559" type="line"/>
      <point x="471" y="559" type="line"/>
      <point x="471" y="714" type="line"/>
      <point x="66" y="714" type="line"/>
      <point x="66" y="0" type="line"/>
    </contour>
  </outline>
</glyph>
<glyph name="E.serif" format="2">
  <advance width="675"/>
  <unicode hex="0045"/>
  <anchor x="338" y="0" name="bottom"/>
  <anchor x="338" y="714" name="top"/>
  <anchor x="655" y="714" name="topright"/>
  <outline>
    <contour>
      <point x="21" y="0" type="line"/>
      <point x="644" y="0" type="line"/>
      <point x="651" y="191" type="line"/>
      <point x="641" y="191" type="line"/>
      <point x="638" y="160" type="line" smooth="yes"/>
      <point x="627" y="46"/>
      <point x="589" y="10"/>
      <point x="478" y="10" type="curve" smooth="yes"/>
      <point x="312" y="10" type="line"/>
      <point x="312" y="368" type="line"/>
      <point x="548" y="368" type="line"/>
      <point x="548" y="378" type="line"/>
      <point x="312" y="378" type="line"/>
      <point x="312" y="704" type="line"/>
      <point x="444" y="704" type="line" smooth="yes"/>
      <point x="554" y="704"/>
      <point x="593" y="668"/>
      <point x="604" y="554" type="curve" smooth="yes"/>
      <point x="607" y="523" type="line"/>
      <point x="617" y="523" type="line"/>
      <point x="610" y="714" type="line"/>
      <point x="21" y="714" type="line"/>
      <point x="21" y="704" type="line"/>
      <point x="70" y="704" type="line" smooth="yes"/>
      <point x="92" y="704"/>
      <point x="113" y="697"/>
      <point x="113" y="650" type="curve" smooth="yes"/>
      <point x="113" y="59" type="line" smooth="yes"/>
      <point x="113" y="31"/>
      <point x="99" y="10"/>
      <point x="72" y="10" type="curve" smooth="yes"/>
      <point x="21" y="10" type="line"/>
    </contour>
  </outline>
</glyph>
<glyph name="F" format="2">
  <advance width="502"/>
  <unicode hex="0046"/>
  <anchor x="252" y="0" name="bottom"/>
  <anchor x="266" y="714" name="top"/>
  <anchor x="483" y="714" name="topright"/>
  <outline>
    <contour>
      <point x="266" y="0" type="line"/>
      <point x="266" y="268" type="line"/>
      <point x="453" y="268" type="line"/>
      <point x="453" y="423" type="line"/>
      <point x="266" y="423" type="line"/>
      <point x="266" y="559" type="line"/>
      <point x="470" y="559" type="line"/>
      <point x="470" y="714" type="line"/>
      <point x="66" y="714" type="line"/>
      <point x="66" y="0" type="line"/>
    </contour>
  </outline>
</glyph>
<glyph name="F.serif" format="2">
  <advance width="644"/>
  <unicode hex="0046"/>
  <anchor x="213" y="0" name="bottom"/>
  <anchor x="322" y="714" name="top"/>
  <anchor x="624" y="714" name="topright"/>
  <outline>
    <contour>
      <point x="21" y="0" type="line"/>
      <point x="426" y="0" type="line"/>
      <point x="426" y="10" type="line"/>
      <point x="366" y="10" type="line" smooth="yes"/>
      <point x="326" y="10"/>
      <point x="312" y="29"/>
      <point x="312" y="59" type="curve" smooth="yes"/>
      <point x="312" y="346" type="line"/>
      <point x="547" y="346" type="line"/>
      <point x="547" y="356" type="line"/>
      <point x="312" y="356" type="line"/>
      <point x="312" y="704" type="line"/>
      <point x="444" y="704" type="line" smooth="yes"/>
      <point x="555" y="704"/>
      <point x="593" y="668"/>
      <point x="604" y="554" type="curve" smooth="yes"/>
      <point x="607" y="523" type="line"/>
      <point x="617" y="523" type="line"/>
      <point x="610" y="714" type="line"/>
      <point x="21" y="714" type="line"/>
      <point x="21" y="704" type="line"/>
      <point x="71" y="704" type="line" smooth="yes"/>
      <point x="94" y="704"/>
      <point x="113" y="689"/>
      <point x="113" y="654" type="curve" smooth="yes"/>
      <point x="113" y="58" type="line" smooth="yes"/>
      <point x="113" y="24"/>
      <point x="98" y="10"/>
      <point x="56" y="10" type="curve" smooth="yes"/>
      <point x="21" y="10" type="line"/>
    </contour>
  </outline>
</glyph>
<glyph name="G" format="2">
  <advance width="704"/>
  <unicode hex="0047"/>
  <anchor x="372" y="0" name="bottom"/>
  <anchor x="377" y="714" name="top"/>
  <anchor x="685" y="714" name="topright"/>
  <outline>
    <contour>
      <point x="344" y="418" type="line"/>
      <point x="344" y="269" type="line"/>
      <point x="459" y="269" type="line"/>
      <point x="459" y="157" type="line"/>
      <point x="447" y="153"/>
      <point x="404" y="149"/>
      <point x="393" y="149" type="curve" smooth="yes"/>
      <point x="310" y="149"/>
      <point x="254" y="221"/>
      <point x="254" y="354" type="curve" smooth="yes"/>
      <point x="254" y="470"/>
      <point x="281" y="566"/>
      <point x="400" y="566" type="curve" smooth="yes"/>
      <point x="460" y="566"/>
      <point x="510" y="553"/>
      <point x="562" y="528" type="curve"/>
      <point x="625" y="679" type="line"/>
      <point x="570" y="705"/>
      <point x="488" y="724"/>
      <point x="398" y="724" type="curve" smooth="yes"/>
      <point x="166" y="724"/>
      <point x="44" y="583"/>
      <point x="44" y="359" type="curve" smooth="yes"/>
      <point x="44" y="109"/>
      <point x="185" y="-10"/>
      <point x="375" y="-10" type="curve" smooth="yes"/>
      <point x="474" y="-10"/>
      <point x="577" y="8"/>
      <point x="646" y="33" type="curve"/>
      <point x="646" y="418" type="line"/>
    </contour>
  </outline>
</glyph>
<glyph name="H" format="2">
  <advance width="722"/>
  <unicode hex="0048"/>
  <anchor x="363" y="0" name="bottom"/>
  <anchor x="361" y="357" name="center"/>
  <anchor x="361" y="714" name="top"/>
  <anchor x="702" y="714" name="topright"/>
  <outline>
    <contour>
      <point x="656" y="0" type="line"/>
      <point x="656" y="714" type="line"/>
      <point x="450" y="714" type="line"/>
      <point x="450" y="449" type="line"/>
      <point x="271" y="449" type="line"/>
      <point x="271" y="714" type="line"/>
      <point x="66" y="714" type="line"/>
      <point x="66" y="0" type="line"/>
      <point x="271" y="0" type="line"/>
      <point x="271" y="291" type="line"/>
      <point x="450" y="291" type="line"/>
      <point x="450" y="0" type="line"/>
    </contour>
  </outline>
</glyph>
<glyph name="I" format="2">
  <advance width="440"/>
  <unicode hex="0049"/>
  <anchor x="220" y="0" name="bottom"/>
  <anchor x="220" y="714" name="top"/>
  <anchor x="422" y="714" name="topright"/>
  <outline>
    <contour>
      <point x="407" y="0" type="line"/>
      <point x="407" y="110" type="line"/>
      <point x="323" y="144" type="line"/>
      <point x="323" y="571" type="line"/>
      <point x="407" y="604" type="line"/>
      <point x="407" y="714" type="line"/>
      <point x="33" y="714" type="line"/>
      <point x="33" y="604" type="line"/>
      <point x="118" y="571" type="line"/>
      <point x="118" y="144" type="line"/>
      <point x="33" y="110" type="line"/>
      <point x="33" y="0" type="line"/>
    </contour>
  </outline>
</glyph>
<glyph name="I.serif" format="2">
  <advance width="426"/>
  <unicode hex="0049"/>
  <anchor x="213" y="0" name="bottom"/>
  <anchor x="213" y="714" name="top"/>
  <anchor x="406" y="714" name="topright"/>
  <outline>
    <contour>
      <point x="21" y="0" type="line"/>
      <point x="406" y="0" type="line"/>
      <point x="406" y="10" type="line"/>
      <point x="361" y="10" type="line" smooth="yes"/>
      <point x="325" y="10"/>
      <point x="313" y="22"/>
      <point x="313" y="59" type="curve" smooth="yes"/>
      <point x="313" y="650" type="line" smooth="yes"/>
      <point x="313" y="691"/>
      <point x="325" y="704"/>
      <point x="361" y="704" type="curve" smooth="yes"/>
      <point x="406" y="704" type="line"/>
      <point x="406" y="714" type="line"/>
      <point x="21" y="714" type="line"/>
      <point x="21" y="704" type="line"/>
      <point x="64" y="704" type="line" smooth="yes"/>
      <point x="101" y="704"/>
      <point x="113" y="691"/>
      <point x="113" y="651" type="curve" smooth="yes"/>
      <point x="113" y="57" type="line" smooth="yes"/>
      <point x="113" y="21"/>
      <point x="101" y="10"/>
      <point x="64" y="10" type="curve" smooth="yes"/>
      <point x="21" y="10" type="line"/>
    </contour>
  </outline>
</glyph>
<glyph name="J" format="2">
  <advance width="342"/>
  <unicode hex="004A"/>
  <anchor x="23" y="-224" name="bottom"/>
  <anchor x="171" y="714" name="top"/>
  <anchor x="323" y="714" name="topright"/>
  <outline>
    <contour>
      <point x="23" y="-224" type="curve" smooth="yes"/>
      <point x="172" y="-224"/>
      <point x="276" y="-145"/>
      <point x="276" y="70" type="curve" smooth="yes"/>
      <point x="276" y="714" type="line"/>
      <point x="71" y="714" type="line"/>
      <point x="71" y="53" type="line" smooth="yes"/>
      <point x="71" y="-32"/>
      <point x="63" y="-74"/>
      <point x="-10" y="-74" type="curve" smooth="yes"/>
      <point x="-36" y="-74"/>
      <point x="-57" y="-68"/>
      <point x="-77" y="-64" type="curve"/>
      <point x="-77" y="-214" type="line"/>
      <point x="-53" y="-219"/>
      <point x="-21" y="-224"/>
    </contour>
  </outline>
</glyph>
<glyph name="J.serif" format="2">
  <advance width="425"/>
  <unicode hex="004A"/>
  <anchor x="120" y="-240" name="bottom"/>
  <anchor x="220" y="714" name="top"/>
  <anchor x="388" y="714" name="topright"/>
  <outline>
    <contour>
      <point x="-27" y="-240" type="line"/>
      <point x="23" y="-240" type="line" smooth="yes"/>
      <point x="166" y="-240"/>
      <point x="317" y="-180"/>
      <point x="317" y="2" type="curve" smooth="yes"/>
      <point x="317" y="652" type="line" smooth="yes"/>
      <point x="317" y="687"/>
      <point x="339" y="704"/>
      <point x="357" y="704" type="curve" smooth="yes"/>
      <point x="410" y="704" type="line"/>
      <point x="410" y="714" type="line"/>
      <point x="25" y="714" type="line"/>
      <point x="25" y="704" type="line"/>
      <point x="79" y="704" type="line" smooth="yes"/>
      <point x="95" y="704"/>
      <point x="117" y="687"/>
      <point x="117" y="653" type="curve" smooth="yes"/>
      <point x="117" y="-55" type="line" smooth="yes"/>
      <point x="117" y="-183"/>
      <point x="45" y="-230"/>
      <point x="-3" y="-230" type="curve" smooth="yes"/>
      <point x="-27" y="-230" type="line"/>
    </contour>
  </outline>
</glyph>
<glyph name="K" format="2">
  <advance width="658"/>
  <unicode hex="004B"/>
  <anchor x="345" y="0" name="bottom"/>
  <anchor x="350" y="714" name="top"/>
  <anchor x="640" y="714" name="topright"/>
  <outline>
    <contour>
      <point x="658" y="0" type="line"/>
      <point x="467" y="394" type="line"/>
      <point x="665" y="714" type="line"/>
      <point x="444" y="714" type="line"/>
      <point x="324" y="496" type="line" smooth="yes"/>
      <point x="309" y="467"/>
      <point x="284" y="435"/>
      <point x="271" y="404" type="curve"/>
      <point x="271" y="714" type="line"/>
      <point x="66" y="714" type="line"/>
      <point x="66" y="0" type="line"/>
      <point x="271" y="0" type="line"/>
      <point x="271" y="239" type="line"/>
      <point x="321" y="273" type="line"/>
      <point x="429" y="0" type="line"/>
    </contour>
  </outline>
</glyph>
<glyph name="L" format="2">
  <advance width="556"/>
  <unicode hex="004C"/>
  <anchor x="291" y="0" name="bottom"/>
  <anchor x="278" y="357" name="center"/>
  <anchor x="163" y="714" name="top"/>
  <anchor x="332" y="714" name="topright"/>
  <outline>
    <contour>
      <point x="66" y="0" type="line"/>
      <point x="520" y="0" type="line"/>
      <point x="520" y="156" type="line"/>
      <point x="270" y="156" type="line"/>
      <point x="270" y="714" type="line"/>
      <point x="66" y="714" type="line"/>
    </contour>
  </outline>
</glyph>
<glyph name="M" format="2">
  <advance width="923"/>
  <unicode hex="004D"/>
  <anchor x="461" y="0" name="bottom"/>
  <anchor x="467" y="714" name="top"/>
  <anchor x="903" y="714" name="topright"/>
  <outline>
    <contour>
      <point x="369" y="0" type="line"/>
      <point x="555" y="0" type="line"/>
      <point x="674" y="523" type="line"/>
      <point x="678" y="523" type="line"/>
      <point x="674" y="483"/>
      <point x="671" y="390"/>
      <point x="671" y="323" type="curve" smooth="yes"/>
      <point x="671" y="0" type="line"/>
      <point x="857" y="0" type="line"/>
      <point x="857" y="714" type="line"/>
      <point x="564" y="714" type="line"/>
      <point x="467" y="274" type="line"/>
      <point x="463" y="274" type="line"/>
      <point x="359" y="714" type="line"/>
      <point x="66" y="714" type="line"/>
      <point x="66" y="0" type="line"/>
      <point x="246" y="0" type="line"/>
      <point x="246" y="320" type="line" smooth="yes"/>
      <point x="246" y="393"/>
      <point x="239" y="484"/>
      <point x="236" y="524" type="curve"/>
      <point x="240" y="524" type="line"/>
    </contour>
  </outline>
</glyph>
<glyph name="M.serif" format="2">
  <advance width="962"/>
  <unicode hex="004D"/>
  <anchor x="478" y="0" name="bottom"/>
  <anchor x="481" y="714" name="top"/>
  <anchor x="942" y="714" name="topright"/>
  <outline>
    <contour>
      <point x="21" y="0" type="line"/>
      <point x="282" y="0" type="line"/>
      <point x="282" y="10" type="line"/>
      <point x="228" y="10" type="line" smooth="yes"/>
      <point x="180" y="10"/>
      <point x="153" y="17"/>
      <point x="153" y="70" type="curve" smooth="yes"/>
      <point x="153" y="660" type="line"/>
      <point x="368" y="0" type="line"/>
      <point x="447" y="0" type="line"/>
      <point x="654" y="681" type="line"/>
      <point x="654" y="71" type="line" smooth="yes"/>
      <point x="654" y="26"/>
      <point x="639" y="10"/>
      <point x="597" y="10" type="curve" smooth="yes"/>
      <point x="582" y="10" type="line"/>
      <point x="582" y="0" type="line"/>
      <point x="942" y="0" type="line"/>
      <point x="942" y="10" type="line"/>
      <point x="899" y="10" type="line" smooth="yes"/>
      <point x="866" y="10"/>
      <point x="851" y="27"/>
      <point x="851" y="57" type="curve" smooth="yes"/>
      <point x="851" y="656" type="line" smooth="yes"/>
      <point x="851" y="687"/>
      <point x="871" y="704"/>
      <point x="889" y="704" type="curve" smooth="yes"/>
      <point x="942" y="704" type="line"/>
      <point x="942" y="714" type="line"/>
      <point x="653" y="714" type="line"/>
      <point x="508" y="237" type="line"/>
      <point x="353" y="714" type="line"/>
      <point x="21" y="714" type="line"/>
      <point x="21" y="704" type="line"/>
      <point x="100" y="704" type="line" smooth="yes"/>
      <point x="121" y="704"/>
      <point x="143" y="687"/>
      <point x="143" y="649" type="curve" smooth="yes"/>
      <point x="143" y="65" type="line" smooth="yes"/>
      <point x="143" y="26"/>
      <point x="121" y="10"/>
      <point x="84" y="10" type="curve" smooth="yes"/>
      <point x="21" y="10" type="line"/>
    </contour>
  </outline>
</glyph>
<glyph name="N" format="2">
  <advance width="796"/>
  <unicode hex="004E"/>
  <anchor x="398" y="0" name="bottom"/>
  <anchor x="398" y="714" name="top"/>
  <anchor x="777" y="714" name="topright"/>
  <outline>
    <contour>
      <point x="730" y="0" type="line"/>
      <point x="730" y="714" type="line"/>
      <point x="549" y="714" type="line"/>
      <point x="549" y="391" type="line" smooth="yes"/>
      <point x="549" y="324"/>
      <point x="557" y="218"/>
      <point x="556" y="218" type="curve"/>
      <point x="553" y="218" type="line"/>
      <point x="335" y="714" type="line"/>
      <point x="66" y="714" type="line"/>
      <point x="66" y="0" type="line"/>
      <point x="246" y="0" type="line"/>
      <point x="246" y="322" type="line" smooth="yes"/>
      <point x="246" y="395"/>
      <point x="236" y="503"/>
      <point x="237" y="503" type="curve"/>
      <point x="241" y="503" type="line"/>
      <point x="460" y="0" type="line"/>
    </contour>
  </outline>
</glyph>
<glyph name="O" format="2">
  <advance width="750"/>
  <unicode hex="004F"/>
  <anchor x="373" y="0" name="bottom"/>
  <anchor x="375" y="357" name="center"/>
  <anchor x="375" y="725" name="top"/>
  <anchor x="731" y="725" name="topright"/>
  <outline>
    <contour>
      <point x="704" y="358" type="curve" smooth="yes"/>
      <point x="704" y="580"/>
      <point x="611" y="725"/>
      <point x="375" y="725" type="curve" smooth="yes"/>
      <point x="145" y="725"/>
      <point x="44" y="581"/>
      <point x="44" y="359" type="curve" smooth="yes"/>
      <point x="44" y="136"/>
      <point x="145" y="-10"/>
      <point x="374" y="-10" type="curve" smooth="yes"/>
      <point x="611" y="-10"/>
      <point x="704" y="137"/>
    </contour>
    <contour>
      <point x="258" y="358" type="curve" smooth="yes"/>
      <point x="258" y="487"/>
      <point x="288" y="567"/>
      <point x="375" y="567" type="curve" smooth="yes"/>
      <point x="461" y="567"/>
      <point x="490" y="487"/>
      <point x="490" y="358" type="curve" smooth="yes"/>
      <point x="490" y="229"/>
      <point x="461" y="151"/>
      <point x="374" y="151" type="curve" smooth="yes"/>
      <point x="290" y="151"/>
      <point x="258" y="229"/>
    </contour>
  </outline>
</glyph>
<glyph name="P" format="2">
  <advance width="597"/>
  <unicode hex="0050"/>
  <anchor x="299" y="0" name="bottom"/>
  <anchor x="306" y="714" name="top"/>
  <anchor x="578" y="714" name="topright"/>
  <outline>
    <contour>
      <point x="308" y="714" type="curve" smooth="yes"/>
      <point x="66" y="714" type="line"/>
      <point x="66" y="0" type="line"/>
      <point x="270" y="0" type="line"/>
      <point x="270" y="237" type="line"/>
      <point x="315" y="237" type="line" smooth="yes"/>
      <point x="503" y="237"/>
      <point x="566" y="357"/>
      <point x="566" y="487" type="curve" smooth="yes"/>
      <point x="566" y="632"/>
      <point x="477" y="714"/>
    </contour>
    <contour>
      <point x="307" y="558" type="line"/>
      <point x="345" y="558"/>
      <point x="364" y="527"/>
      <point x="364" y="482" type="curve" smooth="yes"/>
      <point x="364" y="417"/>
      <point x="328" y="394"/>
      <point x="299" y="394" type="curve" smooth="yes"/>
      <point x="270" y="394" type="line"/>
      <point x="270" y="558" type="line"/>
    </contour>
  </outline>
</glyph>
<glyph name="P.serif" format="2">
  <advance width="663"/>
  <unicode hex="0050"/>
  <anchor x="213" y="0" name="bottom"/>
  <anchor x="332" y="714" name="top"/>
  <anchor x="683" y="714" name="topright"/>
  <outline>
    <contour>
      <point x="21" y="0" type="line"/>
      <point x="426" y="0" type="line"/>
      <point x="426" y="10" type="line"/>
      <point x="359" y="10" type="line" smooth="yes"/>
      <point x="334" y="10"/>
      <point x="312" y="16"/>
      <point x="312" y="65" type="curve" smooth="yes"/>
      <point x="312" y="269" type="line"/>
      <point x="335" y="269" type="line" smooth="yes"/>
      <point x="572" y="269"/>
      <point x="660" y="367"/>
      <point x="660" y="500" type="curve" smooth="yes"/>
      <point x="660" y="643"/>
      <point x="565" y="714"/>
      <point x="357" y="714" type="curve" smooth="yes"/>
      <point x="21" y="714" type="line"/>
      <point x="21" y="704" type="line"/>
      <point x="66" y="704" type="line" smooth="yes"/>
      <point x="88" y="704"/>
      <point x="113" y="697"/>
      <point x="113" y="648" type="curve" smooth="yes"/>
      <point x="113" y="70" type="line" smooth="yes"/>
      <point x="113" y="17"/>
      <point x="89" y="10"/>
      <point x="61" y="10" type="curve" smooth="yes"/>
      <point x="21" y="10" type="line"/>
    </contour>
    <contour>
      <point x="326" y="279" type="curve" smooth="yes"/>
      <point x="312" y="279" type="line"/>
      <point x="312" y="704" type="line"/>
      <point x="340" y="704" type="line" smooth="yes"/>
      <point x="423" y="704"/>
      <point x="452" y="650"/>
      <point x="452" y="496" type="curve" smooth="yes"/>
      <point x="452" y="335"/>
      <point x="419" y="279"/>
    </contour>
  </outline>
</glyph>
<glyph name="Q" format="2">
  <advance width="749"/>
  <unicode hex="0051"/>
  <anchor x="375" y="-170" name="bottom"/>
  <anchor x="375" y="725" name="top"/>
  <anchor x="731" y="725" name="topright"/>
  <outline>
    <contour>
      <point x="704" y="358" type="curve" smooth="yes"/>
      <point x="704" y="580"/>
      <point x="611" y="725"/>
      <point x="375" y="725" type="curve" smooth="yes"/>
      <point x="145" y="725"/>
      <point x="44" y="581"/>
      <point x="44" y="359" type="curve" smooth="yes"/>
      <point x="44" y="136"/>
      <point x="145" y="-10"/>
      <point x="374" y="-10" type="curve" smooth="yes"/>
      <point x="373" y="-10"/>
      <point x="379" y="-10"/>
      <point x="378" y="-10" type="curve"/>
      <point x="485" y="-170" type="line"/>
      <point x="735" y="-170" type="line"/>
      <point x="571" y="31" type="line"/>
      <point x="667" y="91"/>
      <point x="704" y="209"/>
    </contour>
    <contour>
      <point x="258" y="358" type="curve" smooth="yes"/>
      <point x="258" y="487"/>
      <point x="288" y="567"/>
      <point x="375" y="567" type="curve" smooth="yes"/>
      <point x="461" y="567"/>
      <point x="490" y="487"/>
      <point x="490" y="358" type="curve" smooth="yes"/>
      <point x="490" y="229"/>
      <point x="461" y="151"/>
      <point x="374" y="151" type="curve" smooth="yes"/>
      <point x="290" y="151"/>
      <point x="258" y="229"/>
    </contour>
  </outline>
</glyph>
<glyph name="Q.serif" format="2">
  <advance width="820"/>
  <unicode hex="0051"/>
  <anchor x="410" y="-240" name="bottom"/>
  <anchor x="410" y="714" name="top"/>
  <anchor x="800" y="714" name="topright"/>
  <outline>
    <contour>
      <point x="590" y="-240" type="curve" smooth="yes"/>
      <point x="683" y="-240" type="line"/>
      <point x="683" y="-230" type="line"/>
      <point x="667" y="-230" type="line" smooth="yes"/>
      <point x="612" y="-230"/>
      <point x="538" y="-207"/>
      <point x="526" y="4" type="curve"/>
      <point x="681" y="46"/>
      <point x="766" y="178"/>
      <point x="766" y="358" type="curve" smooth="yes"/>
      <point x="766" y="580"/>
      <point x="639" y="725"/>
      <point x="412" y="725" type="curve" smooth="yes"/>
      <point x="171" y="725"/>
      <point x="54" y="580"/>
      <point x="54" y="359" type="curve" smooth="yes"/>
      <point x="54" y="168"/>
      <point x="141" y="33"/>
      <point x="317" y="-2" type="curve"/>
      <point x="332" y="-170"/>
      <point x="461" y="-240"/>
    </contour>
    <contour>
      <point x="411" y="0" type="curve" smooth="yes"/>
      <point x="302" y="0"/>
      <point x="264" y="93"/>
      <point x="264" y="358" type="curve" smooth="yes"/>
      <point x="264" y="622"/>
      <point x="302" y="715"/>
      <point x="412" y="715" type="curve" smooth="yes"/>
      <point x="519" y="715"/>
      <point x="556" y="622"/>
      <point x="556" y="358" type="curve" smooth="yes"/>
      <point x="556" y="93"/>
      <point x="518" y="0"/>
    </contour>
  </outline>
</glyph>
<glyph name="R" format="2">
  <advance width="645"/>
  <unicode hex="0052"/>
  <anchor x="331" y="0" name="bottom"/>
  <anchor x="320" y="714" name="top"/>
  <anchor x="627" y="714" name="topright"/>
  <outline>
    <contour>
      <point x="300" y="714" type="curve" smooth="yes"/>
      <point x="66" y="714" type="line"/>
      <point x="66" y="0" type="line"/>
      <point x="270" y="0" type="line"/>
      <point x="270" y="260" type="line"/>
      <point x="299" y="260" type="line"/>
      <point x="431" y="0" type="line"/>
      <point x="663" y="0" type="line"/>
      <point x="469" y="311" type="line"/>
      <point x="542" y="353"/>
      <point x="576" y="416"/>
      <point x="576" y="503" type="curve" smooth="yes"/>
      <point x="576" y="642"/>
      <point x="482" y="714"/>
    </contour>
    <contour>
      <point x="301" y="568" type="line"/>
      <point x="352" y="568"/>
      <point x="371" y="540"/>
      <point x="371" y="494" type="curve" smooth="yes"/>
      <point x="371" y="427"/>
      <point x="330" y="405"/>
      <point x="297" y="405" type="curve" smooth="yes"/>
      <point x="270" y="405" type="line"/>
      <point x="270" y="568" type="line"/>
    </contour>
  </outline>
</glyph>
<glyph name="R.serif" format="2">
  <advance width="753"/>
  <unicode hex="0052"/>
  <anchor x="414" y="0" name="bottom"/>
  <anchor x="377" y="714" name="top"/>
  <anchor x="733" y="714" name="topright"/>
  <outline>
    <contour>
      <point x="21" y="0" type="line"/>
      <point x="386" y="0" type="line"/>
      <point x="386" y="10" type="line"/>
      <point x="362" y="10" type="line" smooth="yes"/>
      <point x="333" y="10"/>
      <point x="313" y="16"/>
      <point x="313" y="65" type="curve" smooth="yes"/>
      <point x="313" y="334" type="line"/>
      <point x="352" y="334" type="line"/>
      <point x="461" y="90" type="line" smooth="yes"/>
      <point x="496" y="12"/>
      <point x="580" y="0"/>
      <point x="696" y="0" type="curve" smooth="yes"/>
      <point x="753" y="0" type="line"/>
      <point x="753" y="10" type="line"/>
      <point x="751" y="10" type="line" smooth="yes"/>
      <point x="733" y="10"/>
      <point x="718" y="18"/>
      <point x="675" y="97" type="curve" smooth="yes"/>
      <point x="541" y="341" type="line"/>
      <point x="618" y="362"/>
      <point x="683" y="410"/>
      <point x="683" y="525" type="curve" smooth="yes"/>
      <point x="683" y="638"/>
      <point x="606" y="714"/>
      <point x="382" y="714" type="curve" smooth="yes"/>
      <point x="21" y="714" type="line"/>
      <point x="21" y="704" type="line"/>
      <point x="59" y="704" type="line" smooth="yes"/>
      <point x="79" y="704"/>
      <point x="113" y="697"/>
      <point x="113" y="648" type="curve" smooth="yes"/>
      <point x="113" y="65" type="line" smooth="yes"/>
      <point x="113" y="16"/>
      <point x="84" y="10"/>
      <point x="59" y="10" type="curve" smooth="yes"/>
      <point x="21" y="10" type="line"/>
    </contour>
    <contour>
      <point x="358" y="344" type="curve" smooth="yes"/>
      <point x="313" y="344" type="line"/>
      <point x="313" y="704" type="line"/>
      <point x="356" y="704" type="line" smooth="yes"/>
      <point x="440" y="704"/>
      <point x="470" y="654"/>
      <point x="470" y="513" type="curve" smooth="yes"/>
      <point x="470" y="395"/>
      <point x="441" y="344"/>
    </contour>
  </outline>
</glyph>
<glyph name="S" format="2">
  <advance width="556"/>
  <unicode hex="0053"/>
  <anchor x="282" y="0" name="bottom"/>
  <anchor x="294" y="714" name="top"/>
  <anchor x="537" y="714" name="topright"/>
  <outline>
    <contour>
      <point x="528" y="217" type="curve" smooth="yes"/>
      <point x="528" y="328"/>
      <point x="475" y="379"/>
      <point x="380" y="424" type="curve" smooth="yes"/>
      <point x="273" y="475"/>
      <point x="245" y="490"/>
      <point x="245" y="524" type="curve" smooth="yes"/>
      <point x="245" y="550"/>
      <point x="261" y="570"/>
      <point x="304" y="570" type="curve" smooth="yes"/>
      <point x="350" y="570"/>
      <point x="415" y="552"/>
      <point x="469" y="524" type="curve"/>
      <point x="530" y="673" type="line"/>
      <point x="483" y="699"/>
      <point x="408" y="724"/>
      <point x="310" y="724" type="curve" smooth="yes"/>
      <point x="154" y="724"/>
      <point x="43" y="653"/>
      <point x="43" y="515" type="curve" smooth="yes"/>
      <point x="43" y="392"/>
      <point x="87" y="343"/>
      <point x="207" y="293" type="curve" smooth="yes"/>
      <point x="302" y="253"/>
      <point x="323" y="237"/>
      <point x="323" y="200" type="curve" smooth="yes"/>
      <point x="323" y="169"/>
      <point x="300" y="147"/>
      <point x="256" y="147" type="curve" smooth="yes"/>
      <point x="200" y="147"/>
      <point x="117" y="168"/>
      <point x="40" y="207" type="curve"/>
      <point x="40" y="35" type="line"/>
      <point x="109" y="3"/>
      <point x="152" y="-10"/>
      <point x="256" y="-10" type="curve" smooth="yes"/>
      <point x="454" y="-10"/>
      <point x="528" y="100"/>
    </contour>
  </outline>
</glyph>
<glyph name="S.serif" format="2">
  <advance width="605"/>
  <unicode hex="0053"/>
  <anchor x="315" y="-10" name="bottom"/>
  <anchor x="303" y="714" name="top"/>
  <anchor x="585" y="714" name="topright"/>
  <outline>
    <contour>
      <point x="284" y="-10" type="curve" smooth="yes"/>
      <point x="462" y="-10"/>
      <point x="575" y="82"/>
      <point x="575" y="212" type="curve" smooth="yes"/>
      <point x="575" y="345"/>
      <point x="488" y="390"/>
      <point x="380" y="438" type="curve" smooth="yes"/>
      <point x="237" y="501"/>
      <point x="183" y="526"/>
      <point x="183" y="605" type="curve" smooth="yes"/>
      <point x="183" y="676"/>
      <point x="227" y="713"/>
      <point x="288" y="713" type="curve" smooth="yes"/>
      <point x="366" y="713"/>
      <point x="402" y="651"/>
      <point x="402" y="509" type="curve"/>
      <point x="509" y="509"/>
      <point x="547" y="548"/>
      <point x="547" y="598" type="curve" smooth="yes"/>
      <point x="547" y="659"/>
      <point x="477" y="724"/>
      <point x="315" y="724" type="curve" smooth="yes"/>
      <point x="163" y="724"/>
      <point x="46" y="646"/>
      <point x="46" y="518" type="curve" smooth="yes"/>
      <point x="46" y="385"/>
      <point x="143" y="337"/>
      <point x="240" y="293" type="curve" smooth="yes"/>
      <point x="365" y="237"/>
      <point x="436" y="214"/>
      <point x="436" y="116" type="curve" smooth="yes"/>
      <point x="436" y="45"/>
      <point x="392" y="1"/>
      <point x="311" y="1" type="curve" smooth="yes"/>
      <point x="205" y="1"/>
      <point x="157" y="77"/>
      <point x="157" y="241" type="curve"/>
      <point x="90" y="241"/>
      <point x="24" y="218"/>
      <point x="24" y="129" type="curve" smooth="yes"/>
      <point x="24" y="78"/>
      <point x="69" y="-10"/>
    </contour>
  </outline>
</glyph>
<glyph name="T" format="2">
  <advance width="562"/>
  <unicode hex="0054"/>
  <anchor x="281" y="0" name="bottom"/>
  <anchor x="281" y="357" name="center"/>
  <anchor x="281" y="714" name="top"/>
  <anchor x="543" y="714" name="topright"/>
  <outline>
    <contour>
      <point x="383" y="0" type="line"/>
      <point x="383" y="556" type="line"/>
      <point x="536" y="556" type="line"/>
      <point x="536" y="714" type="line"/>
      <point x="26" y="714" type="line"/>
      <point x="26" y="556" type="line"/>
      <point x="179" y="556" type="line"/>
      <point x="179" y="0" type="line"/>
    </contour>
  </outline>
</glyph>
<glyph name="U" format="2">
  <advance width="712"/>
  <unicode hex="0055"/>
  <anchor x="355" y="0" name="bottom"/>
  <anchor x="357" y="714" name="top"/>
  <anchor x="693" y="714" name="topright"/>
  <outline>
    <contour>
      <point x="650" y="284" type="curve" smooth="yes"/>
      <point x="650" y="714" type="line"/>
      <point x="446" y="714" type="line"/>
      <point x="446" y="296" type="line" smooth="yes"/>
      <point x="446" y="194"/>
      <point x="420" y="151"/>
      <point x="356" y="151" type="curve" smooth="yes"/>
      <point x="298" y="151"/>
      <point x="267" y="194"/>
      <point x="267" y="295" type="curve" smooth="yes"/>
      <point x="267" y="714" type="line"/>
      <point x="62" y="714" type="line"/>
      <point x="62" y="280" type="line" smooth="yes"/>
      <point x="62" y="95"/>
      <point x="164" y="-10"/>
      <point x="354" y="-10" type="curve" smooth="yes"/>
      <point x="551" y="-10"/>
      <point x="650" y="104"/>
    </contour>
  </outline>
</glyph>
<glyph name="U.serif" format="2">
  <advance width="769"/>
  <unicode hex="0055"/>
  <anchor x="385" y="0" name="bottom"/>
  <anchor x="439" y="714" name="top"/>
  <anchor x="769" y="714" name="topright"/>
  <outline>
    <contour>
      <point x="396" y="-10" type="curve" smooth="yes"/>
      <point x="584" y="-10"/>
      <point x="639" y="84"/>
      <point x="639" y="217" type="curve" smooth="yes"/>
      <point x="639" y="644" type="line" smooth="yes"/>
      <point x="639" y="697"/>
      <point x="667" y="704"/>
      <point x="703" y="704" type="curve" smooth="yes"/>
      <point x="753" y="704" type="line"/>
      <point x="753" y="714" type="line"/>
      <point x="503" y="714" type="line"/>
      <point x="503" y="704" type="line"/>
      <point x="567" y="704" type="line" smooth="yes"/>
      <point x="603" y="704"/>
      <point x="629" y="697"/>
      <point x="629" y="648" type="curve" smooth="yes"/>
      <point x="629" y="213" type="line" smooth="yes"/>
      <point x="629" y="82"/>
      <point x="563" y="9"/>
      <point x="446" y="9" type="curve" smooth="yes"/>
      <point x="356" y="9"/>
      <point x="310" y="56"/>
      <point x="310" y="156" type="curve" smooth="yes"/>
      <point x="310" y="644" type="line" smooth="yes"/>
      <point x="310" y="697"/>
      <point x="338" y="704"/>
      <point x="373" y="704" type="curve" smooth="yes"/>
      <point x="402" y="704" type="line"/>
      <point x="402" y="714" type="line"/>
      <point x="17" y="714" type="line"/>
      <point x="17" y="704" type="line"/>
      <point x="46" y="704" type="line" smooth="yes"/>
      <point x="81" y="704"/>
      <point x="110" y="697"/>
      <point x="110" y="648" type="curve" smooth="yes"/>
      <point x="110" y="219" type="line" smooth="yes"/>
      <point x="110" y="55"/>
      <point x="229" y="-10"/>
    </contour>
  </outline>
</glyph>
<glyph name="V" format="2">
  <advance width="676"/>
  <unicode hex="0056"/>
  <anchor x="333" y="0" name="bottom"/>
  <anchor x="337" y="714" name="top"/>
  <anchor x="657" y="714" name="topright"/>
  <outline>
    <contour>
      <point x="676" y="714" type="line"/>
      <point x="440" y="714" type="line"/>
      <point x="362" y="350" type="line" smooth="yes"/>
      <point x="353" y="308"/>
      <point x="341" y="224"/>
      <point x="338" y="184" type="curve"/>
      <point x="337" y="224"/>
      <point x="318" y="310"/>
      <point x="310" y="352" type="curve" smooth="yes"/>
      <point x="237" y="714" type="line"/>
      <point x="0" y="714" type="line"/>
      <point x="214" y="0" type="line"/>
      <point x="460" y="0" type="line"/>
    </contour>
  </outline>
</glyph>
<glyph name="V.serif" format="2">
  <advance width="715"/>
  <unicode hex="0056"/>
  <anchor x="368" y="0" name="bottom"/>
  <anchor x="408" y="714" name="top"/>
  <anchor x="735" y="714" name="topright"/>
  <outline>
    <contour>
      <point x="86" y="660" type="curve" smooth="yes"/>
      <point x="317" y="0" type="line"/>
      <point x="417" y="0" type="line"/>
      <point x="599" y="634" type="line" smooth="yes"/>
      <point x="616" y="692"/>
      <point x="632" y="704"/>
      <point x="662" y="704" type="curve" smooth="yes"/>
      <point x="715" y="704" type="line"/>
      <point x="715" y="714" type="line"/>
      <point x="457" y="714" type="line"/>
      <point x="457" y="704" type="line"/>
      <point x="544" y="704" type="line" smooth="yes"/>
      <point x="575" y="704"/>
      <point x="590" y="687"/>
      <point x="590" y="657" type="curve" smooth="yes"/>
      <point x="590" y="646"/>
      <point x="588" y="633"/>
      <point x="584" y="619" type="curve" smooth="yes"/>
      <point x="481" y="258" type="line" smooth="yes"/>
      <point x="471" y="223"/>
      <point x="461" y="188"/>
      <point x="452" y="152" type="curve"/>
      <point x="446" y="174"/>
      <point x="432" y="213"/>
      <point x="409" y="284" type="curve" smooth="yes"/>
      <point x="296" y="629" type="line" smooth="yes"/>
      <point x="290" y="648"/>
      <point x="284" y="666"/>
      <point x="284" y="680" type="curve" smooth="yes"/>
      <point x="284" y="694"/>
      <point x="291" y="704"/>
      <point x="313" y="704" type="curve" smooth="yes"/>
      <point x="361" y="704" type="line"/>
      <point x="361" y="714" type="line"/>
      <point x="0" y="714" type="line"/>
      <point x="0" y="704" type="line"/>
      <point x="30" y="704" type="line" smooth="yes"/>
      <point x="50" y="704"/>
      <point x="74" y="695"/>
    </contour>
  </outline>
</glyph>
<glyph name="W" format="2">
  <advance width="1015"/>
  <unicode hex="0057"/>
  <anchor x="510" y="0" name="bottom"/>
  <anchor x="508" y="714" name="top"/>
  <anchor x="996" y="714" name="topright"/>
  <outline>
    <contour>
      <point x="993" y="714" type="line"/>
      <point x="803" y="714" type="line"/>
      <point x="735" y="355" type="line" smooth="yes"/>
      <point x="728" y="319"/>
      <point x="710" y="226"/>
      <point x="702" y="167" type="curve"/>
      <point x="692" y="233"/>
      <point x="684" y="292"/>
      <point x="674" y="349" type="curve" smooth="yes"/>
      <point x="607" y="714" type="line"/>
      <point x="416" y="714" type="line"/>
      <point x="344" y="340" type="line" smooth="yes"/>
      <point x="333" y="281"/>
      <point x="324" y="227"/>
      <point x="317" y="167" type="curve"/>
      <point x="312" y="224"/>
      <point x="298" y="311"/>
      <point x="291" y="346" type="curve" smooth="yes"/>
      <point x="217" y="714" type="line"/>
      <point x="22" y="714" type="line"/>
      <point x="186" y="0" type="line"/>
      <point x="430" y="0" type="line"/>
      <point x="483" y="301" type="line" smooth="yes"/>
      <point x="487" y="324"/>
      <point x="505" y="427"/>
      <point x="510" y="486" type="curve"/>
      <point x="515" y="427"/>
      <point x="531" y="324"/>
      <point x="535" y="301" type="curve" smooth="yes"/>
      <point x="587" y="0" type="line"/>
      <point x="830" y="0" type="line"/>
    </contour>
  </outline>
</glyph>
<glyph name="W.serif" format="2">
  <advance width="1082"/>
  <unicode hex="0057"/>
  <anchor x="541" y="0" name="bottom"/>
  <anchor x="601" y="714" name="top"/>
  <anchor x="1112" y="714" name="topright"/>
  <outline>
    <contour>
      <point x="78" y="651" type="curve" smooth="yes"/>
      <point x="271" y="0" type="line"/>
      <point x="396" y="0" type="line"/>
      <point x="528" y="549" type="line"/>
      <point x="693" y="0" type="line"/>
      <point x="816" y="0" type="line"/>
      <point x="976" y="626" type="line" smooth="yes"/>
      <point x="993" y="692"/>
      <point x="1013" y="704"/>
      <point x="1052" y="704" type="curve" smooth="yes"/>
      <point x="1089" y="704" type="line"/>
      <point x="1089" y="714" type="line"/>
      <point x="868" y="714" type="line"/>
      <point x="868" y="704" type="line"/>
      <point x="909" y="704" type="line" smooth="yes"/>
      <point x="948" y="704"/>
      <point x="966" y="690"/>
      <point x="966" y="653" type="curve" smooth="yes"/>
      <point x="966" y="635"/>
      <point x="962" y="611"/>
      <point x="954" y="581" type="curve" smooth="yes"/>
      <point x="853" y="186" type="line" smooth="yes"/>
      <point x="847" y="163"/>
      <point x="840" y="133"/>
      <point x="833" y="102" type="curve"/>
      <point x="824" y="139"/>
      <point x="814" y="177"/>
      <point x="801" y="221" type="curve" smooth="yes"/>
      <point x="657" y="707" type="line"/>
      <point x="556" y="707" type="line"/>
      <point x="436" y="211" type="line" smooth="yes"/>
      <point x="433" y="199"/>
      <point x="424" y="161"/>
      <point x="417" y="126" type="curve"/>
      <point x="401" y="191"/>
      <point x="387" y="244"/>
      <point x="370" y="311" type="curve" smooth="yes"/>
      <point x="298" y="589" type="line" smooth="yes"/>
      <point x="293" y="610"/>
      <point x="286" y="645"/>
      <point x="286" y="656" type="curve" smooth="yes"/>
      <point x="286" y="689"/>
      <point x="306" y="704"/>
      <point x="346" y="704" type="curve" smooth="yes"/>
      <point x="371" y="704" type="line"/>
      <point x="371" y="714" type="line"/>
      <point x="-6" y="714" type="line"/>
      <point x="-6" y="704" type="line"/>
      <point x="7" y="704" type="line" smooth="yes"/>
      <point x="46" y="704"/>
      <point x="66" y="693"/>
    </contour>
  </outline>
</glyph>
<glyph name="X" format="2">
  <advance width="709"/>
  <unicode hex="0058"/>
  <anchor x="355" y="0" name="bottom"/>
  <anchor x="346" y="714" name="top"/>
  <anchor x="690" y="714" name="topright"/>
  <outline>
    <contour>
      <point x="705" y="0" type="line"/>
      <point x="475" y="350" type="line"/>
      <point x="689" y="714" type="line"/>
      <point x="452" y="714" type="line"/>
      <point x="350" y="493" type="line"/>
      <point x="242" y="714" type="line"/>
      <point x="16" y="714" type="line"/>
      <point x="226" y="365" type="line"/>
      <point x="3" y="0" type="line"/>
      <point x="237" y="0" type="line"/>
      <point x="352" y="223" type="line"/>
      <point x="469" y="0" type="line"/>
    </contour>
  </outline>
</glyph>
<glyph name="X.serif" format="2">
  <advance width="785"/>
  <unicode hex="0058"/>
  <anchor x="363" y="0" name="bottom"/>
  <anchor x="433" y="714" name="top"/>
  <anchor x="765" y="714" name="topright"/>
  <outline>
    <contour>
      <point x="11" y="0" type="line"/>
      <point x="246" y="0" type="line"/>
      <point x="246" y="10" type="line"/>
      <point x="201" y="10" type="line" smooth="yes"/>
      <point x="158" y="10"/>
      <point x="144" y="17"/>
      <point x="144" y="38" type="curve" smooth="yes"/>
      <point x="144" y="55"/>
      <point x="151" y="69"/>
      <point x="172" y="99" type="curve" smooth="yes"/>
      <point x="323" y="315" type="line"/>
      <point x="441" y="113" type="line" smooth="yes"/>
      <point x="458" y="84"/>
      <point x="466" y="62"/>
      <point x="466" y="46" type="curve" smooth="yes"/>
      <point x="466" y="21"/>
      <point x="446" y="10"/>
      <point x="404" y="10" type="curve" smooth="yes"/>
      <point x="399" y="10" type="line"/>
      <point x="399" y="0" type="line"/>
      <point x="773" y="0" type="line"/>
      <point x="773" y="10" type="line"/>
      <point x="760" y="10" type="line" smooth="yes"/>
      <point x="723" y="10"/>
      <point x="703" y="23"/>
      <point x="680" y="63" type="curve" smooth="yes"/>
      <point x="469" y="426" type="line"/>
      <point x="612" y="632" type="line" smooth="yes"/>
      <point x="650" y="687"/>
      <point x="674" y="704"/>
      <point x="711" y="704" type="curve" smooth="yes"/>
      <point x="749" y="704" type="line"/>
      <point x="749" y="714" type="line"/>
      <point x="514" y="714" type="line"/>
      <point x="514" y="704" type="line"/>
      <point x="559" y="704" type="line" smooth="yes"/>
      <point x="602" y="704"/>
      <point x="616" y="697"/>
      <point x="616" y="676" type="curve" smooth="yes"/>
      <point x="616" y="659"/>
      <point x="609" y="645"/>
      <point x="588" y="615" type="curve" smooth="yes"/>
      <point x="463" y="435" type="line"/>
      <point x="357" y="616" type="line" smooth="yes"/>
      <point x="344" y="638"/>
      <point x="337" y="655"/>
      <point x="337" y="669" type="curve" smooth="yes"/>
      <point x="337" y="693"/>
      <point x="360" y="704"/>
      <point x="407" y="704" type="curve" smooth="yes"/>
      <point x="413" y="704" type="line"/>
      <point x="413" y="714" type="line"/>
      <point x="38" y="714" type="line"/>
      <point x="38" y="704" type="line"/>
      <point x="51" y="704" type="line" smooth="yes"/>
      <point x="86" y="704"/>
      <point x="104" y="691"/>
      <point x="127" y="651" type="curve" smooth="yes"/>
      <point x="317" y="325" type="line"/>
      <point x="148" y="82" type="line" smooth="yes"/>
      <point x="110" y="27"/>
      <point x="86" y="10"/>
      <point x="49" y="10" type="curve" smooth="yes"/>
      <point x="11" y="10" type="line"/>
    </contour>
  </outline>
</glyph>
<glyph name="Y" format="2">
  <advance width="645"/>
  <unicode hex="0059"/>
  <anchor x="323" y="0" name="bottom"/>
  <anchor x="323" y="714" name="top"/>
  <anchor x="626" y="714" name="topright"/>
  <outline>
    <contour>
      <point x="323" y="449" type="line"/>
      <point x="222" y="714" type="line"/>
      <point x="0" y="714" type="line"/>
      <point x="220" y="273" type="line"/>
      <point x="220" y="0" type="line"/>
      <point x="425" y="0" type="line"/>
      <point x="425" y="279" type="line"/>
      <point x="645" y="714" type="line"/>
      <point x="425" y="714" type="line"/>
    </contour>
  </outline>
</glyph>
<glyph name="Y.serif" format="2">
  <advance width="743"/>
  <unicode hex="0059"/>
  <anchor x="372" y="0" name="bottom"/>
  <anchor x="442" y="714" name="top"/>
  <anchor x="723" y="714" name="topright"/>
  <outline>
    <contour>
      <point x="168" y="0" type="line"/>
      <point x="580" y="0" type="line"/>
      <point x="580" y="10" type="line"/>
      <point x="532" y="10" type="line" smooth="yes"/>
      <point x="501" y="10"/>
      <point x="475" y="20"/>
      <point x="475" y="75" type="curve" smooth="yes"/>
      <point x="475" y="243" type="line"/>
      <point x="638" y="627" type="line" smooth="yes"/>
      <point x="664" y="689"/>
      <point x="691" y="704"/>
      <point x="729" y="704" type="curve" smooth="yes"/>
      <point x="741" y="704" type="line"/>
      <point x="741" y="714" type="line"/>
      <point x="516" y="714" type="line"/>
      <point x="516" y="704" type="line"/>
      <point x="555" y="704" type="line" smooth="yes"/>
      <point x="607" y="704"/>
      <point x="631" y="692"/>
      <point x="631" y="660" type="curve" smooth="yes"/>
      <point x="631" y="644"/>
      <point x="624" y="622"/>
      <point x="612" y="593" type="curve" smooth="yes"/>
      <point x="492" y="309" type="line" smooth="yes"/>
      <point x="483" y="289"/>
      <point x="476" y="271"/>
      <point x="469" y="254" type="curve"/>
      <point x="426" y="340"/>
      <point x="420" y="354"/>
      <point x="392" y="411" type="curve" smooth="yes"/>
      <point x="303" y="592" type="line" smooth="yes"/>
      <point x="288" y="623"/>
      <point x="280" y="645"/>
      <point x="280" y="662" type="curve" smooth="yes"/>
      <point x="280" y="693"/>
      <point x="305" y="704"/>
      <point x="359" y="704" type="curve" smooth="yes"/>
      <point x="373" y="704" type="line"/>
      <point x="373" y="714" type="line"/>
      <point x="4" y="714" type="line"/>
      <point x="4" y="704" type="line"/>
      <point x="6" y="704" type="line" smooth="yes"/>
      <point x="29" y="704"/>
      <point x="49" y="690"/>
      <point x="68" y="651" type="curve" smooth="yes"/>
      <point x="273" y="230" type="line"/>
      <point x="273" y="77" type="line" smooth="yes"/>
      <point x="273" y="21"/>
      <point x="246" y="10"/>
      <point x="203" y="10" type="curve" smooth="yes"/>
      <point x="168" y="10" type="line"/>
    </contour>
  </outline>
</glyph>
<glyph name="Z" format="2">
  <advance width="591"/>
  <unicode hex="005A"/>
  <anchor x="302" y="0" name="bottom"/>
  <anchor x="306" y="714" name="top"/>
  <anchor x="572" y="714" name="topright"/>
  <outline>
    <contour>
      <point x="567" y="0" type="line"/>
      <point x="567" y="156" type="line"/>
      <point x="287" y="156" type="line"/>
      <point x="560" y="595" type="line"/>
      <point x="560" y="714" type="line"/>
      <point x="37" y="714" type="line"/>
      <point x="37" y="558" type="line"/>
      <point x="304" y="558" type="line"/>
      <point x="31" y="119" type="line"/>
      <point x="31" y="0" type="line"/>
    </contour>
  </outline>
</glyph>
<glyph name="Z.serif" format="2">
  <advance width="721"/>
  <unicode hex="005A"/>
  <anchor x="361" y="0" name="bottom"/>
  <anchor x="361" y="714" name="top"/>
  <anchor x="701" y="714" name="topright"/>
  <outline>
    <contour>
      <point x="46" y="0" type="line"/>
      <point x="667" y="0" type="line"/>
      <point x="675" y="229" type="line"/>
      <point x="665" y="229" type="line"/>
      <point x="661" y="190" type="line" smooth="yes"/>
      <point x="647" y="53"/>
      <point x="605" y="10"/>
      <point x="471" y="10" type="curve" smooth="yes"/>
      <point x="259" y="10" type="line"/>
      <point x="648" y="704" type="line"/>
      <point x="648" y="714" type="line"/>
      <point x="73" y="714" type="line"/>
      <point x="65" y="485" type="line"/>
      <point x="75" y="485" type="line"/>
      <point x="78" y="524" type="line" smooth="yes"/>
      <point x="89" y="661"/>
      <point x="135" y="704"/>
      <point x="268" y="704" type="curve" smooth="yes"/>
      <point x="434" y="704" type="line"/>
      <point x="46" y="10" type="line"/>
    </contour>
  </outline>
</glyph>
<glyph name="bracketright" format="2">
  <advance width="302"/>
  <unicode hex="005D"/>
  <outline>
    <contour>
      <point x="21" y="-44" type="line"/>
      <point x="21" y="-168" type="line"/>
      <point x="255" y="-168" type="line"/>
      <point x="255" y="734" type="line"/>
      <point x="21" y="734" type="line"/>
      <point x="21" y="610" type="line"/>
      <point x="94" y="610" type="line"/>
      <point x="94" y="-44" type="line"/>
    </contour>
  </outline>
</glyph>
<glyph name="bracketright.serif" format="2">
  <advance width="454"/>
  <unicode hex="005D"/>
  <outline>
    <contour>
      <point x="37" y="-128" type="line"/>
      <point x="354" y="-128" type="line"/>
      <point x="354" y="760" type="line"/>
      <point x="37" y="760" type="line"/>
      <point x="37" y="750" type="line"/>
      <point x="80" y="750" type="line" smooth="yes"/>
      <point x="125" y="750"/>
      <point x="162" y="741"/>
      <point x="162" y="678" type="curve" smooth="yes"/>
      <point x="162" y="-46" type="line" smooth="yes"/>
      <point x="162" y="-109"/>
      <point x="125" y="-118"/>
      <point x="80" y="-118" type="curve" smooth="yes"/>
      <point x="37" y="-118" type="line"/>
    </contour>
  </outline>
</glyph>
<glyph name="asciicircum" format="2">
  <advance width="469"/>
  <unicode hex="005E"/>
  <outline>
    <contour>
      <point x="-24" y="245" type="line"/>
      <point x="121" y="245" type="line"/>
      <point x="226" y="527" type="line"/>
      <point x="350" y="245" type="line"/>
      <point x="500" y="245" type="line"/>
      <point x="264" y="717" type="line"/>
      <point x="179" y="717" type="line"/>
    </contour>
  </outline>
</glyph>
<glyph name="grave" format="2">
  <advance width="427"/>
  <unicode hex="0060"/>
  <outline>
    <contour>
      <point x="260" y="766" type="curve"/>
      <point x="40" y="766" type="line"/>
      <point x="40" y="756" type="line"/>
      <point x="90" y="718"/>
      <point x="201" y="640"/>
      <point x="253" y="606" type="curve"/>
      <point x="387" y="606" type="line"/>
      <point x="387" y="620" type="line"/>
      <point x="356" y="657"/>
      <point x="295" y="721"/>
    </contour>
  </outline>
</glyph>
<glyph name="grave.serif" format="2">
  <advance width="326"/>
  <unicode hex="0060"/>
  <outline>
    <contour>
      <point x="276" y="605" type="curve"/>
      <point x="286" y="605" type="line"/>
      <point x="286" y="615" type="line"/>
      <point x="256" y="653"/>
      <point x="212" y="721"/>
      <point x="186" y="766" type="curve"/>
      <point x="40" y="766" type="line"/>
      <point x="40" y="756" type="line"/>
      <point x="76" y="721"/>
      <point x="206" y="641"/>
    </contour>
  </outline>
</glyph>
<glyph name="a.serif" format="2">
  <advance width="626"/>
  <unicode hex="0061"/>
  <anchor x="444" y="0" name="bottom"/>
  <anchor x="313" y="536" name="top"/>
  <anchor x="606" y="536" name="topright"/>
  <outline>
    <contour>
      <point x="210" y="-10" type="curve" smooth="yes"/>
      <point x="268" y="-10"/>
      <point x="318" y="6"/>
      <point x="342" y="80" type="curve"/>
      <point x="344" y="80" type="line"/>
      <point x="344" y="0" type="line"/>
      <point x="601" y="0" type="line"/>
      <point x="601" y="10" type="line"/>
      <point x="597" y="10" type="line" smooth="yes"/>
      <point x="552" y="10"/>
      <point x="538" y="26"/>
      <point x="538" y="80" type="curve" smooth="yes"/>
      <point x="538" y="383" type="line" smooth="yes"/>
      <point x="538" y="507"/>
      <point x="461" y="551"/>
      <point x="308" y="551" type="curve" smooth="yes"/>
      <point x="185" y="551"/>
      <point x="83" y="521"/>
      <point x="83" y="445" type="curve" smooth="yes"/>
      <point x="83" y="394"/>
      <point x="133" y="375"/>
      <point x="239" y="375" type="curve"/>
      <point x="239" y="501"/>
      <point x="251" y="541"/>
      <point x="293" y="541" type="curve" smooth="yes"/>
      <point x="331" y="541"/>
      <point x="343" y="515"/>
      <point x="343" y="434" type="curve" smooth="yes"/>
      <point x="343" y="298" type="line"/>
      <point x="262" y="295" type="line" smooth="yes"/>
      <point x="114" y="290"/>
      <point x="41" y="240"/>
      <point x="41" y="141" type="curve" smooth="yes"/>
      <point x="41" y="43"/>
      <point x="110" y="-10"/>
    </contour>
    <contour>
      <point x="283" y="31" type="curve" smooth="yes"/>
      <point x="253" y="31"/>
      <point x="239" y="69"/>
      <point x="239" y="152" type="curve" smooth="yes"/>
      <point x="239" y="246"/>
      <point x="256" y="282"/>
      <point x="312" y="286" type="curve" smooth="yes"/>
      <point x="344" y="288" type="line"/>
      <point x="344" y="161" type="line" smooth="yes"/>
      <point x="344" y="88"/>
      <point x="320" y="31"/>
    </contour>
  </outline>
</glyph>
<glyph name="b" format="2">
  <advance width="610"/>
  <unicode hex="0062"/>
  <anchor x="313" y="0" name="bottom"/>
  <anchor x="310" y="760" name="top"/>
  <anchor x="569" y="760" name="topright"/>
  <outline>
    <contour>
      <point x="258" y="588" type="curve" smooth="yes"/>
      <point x="258" y="760" type="line"/>
      <point x="56" y="760" type="line"/>
      <point x="56" y="0" type="line"/>
      <point x="215" y="0" type="line"/>
      <point x="245" y="54" type="line"/>
      <point x="258" y="54" type="line"/>
      <point x="284" y="23"/>
      <point x="313" y="-10"/>
      <point x="385" y="-10" type="curve" smooth="yes"/>
      <point x="495" y="-10"/>
      <point x="571" y="89"/>
      <point x="571" y="278" type="curve" smooth="yes"/>
      <point x="571" y="463"/>
      <point x="496" y="563"/>
      <point x="392" y="563" type="curve" smooth="yes"/>
      <point x="323" y="563"/>
      <point x="284" y="527"/>
      <point x="258" y="482" type="curve"/>
      <point x="251" y="482" type="line"/>
      <point x="255" y="513"/>
      <point x="258" y="549"/>
    </contour>
    <contour>
      <point x="314" y="413" type="curve"/>
      <point x="353" y="413"/>
      <point x="366" y="368"/>
      <point x="366" y="280" type="curve" smooth="yes"/>
      <point x="366" y="191"/>
      <point x="350" y="144"/>
      <point x="316" y="144" type="curve" smooth="yes"/>
      <point x="273" y="144"/>
      <point x="258" y="185"/>
      <point x="258" y="271" type="curve" smooth="yes"/>
      <point x="258" y="298" type="line" smooth="yes"/>
      <point x="258" y="377"/>
      <point x="278" y="413"/>
    </contour>
  </outline>
</glyph>
<glyph name="c" format="2">
  <advance width="520"/>
  <unicode hex="0063"/>
  <anchor x="309" y="0" name="bottom"/>
  <anchor x="279" y="553" name="top"/>
  <anchor x="499" y="553" name="topright"/>
  <outline>
    <contour>
      <point x="309" y="-10" type="curve" smooth="yes"/>
      <point x="380" y="-10"/>
      <point x="437" y="9"/>
      <point x="481" y="39" type="curve"/>
      <point x="481" y="191" type="line"/>
      <point x="439" y="160"/>
      <point x="387" y="142"/>
      <point x="345" y="142" type="curve" smooth="yes"/>
      <point x="288" y="142"/>
      <point x="243" y="179"/>
      <point x="243" y="275" type="curve" smooth="yes"/>
      <point x="243" y="368"/>
      <point x="289" y="413"/>
      <point x="344" y="413" type="curve" smooth="yes"/>
      <point x="377" y="413"/>
      <point x="407" y="402"/>
      <point x="443" y="382" type="curve"/>
      <point x="496" y="521" type="line"/>
      <point x="446" y="547"/>
      <point x="383" y="563"/>
      <point x="324" y="563" type="curve" smooth="yes"/>
      <point x="162" y="563"/>
      <point x="38" y="475"/>
      <point x="38" y="274" type="curve" smooth="yes"/>
      <point x="38" y="77"/>
      <point x="148" y="-10"/>
    </contour>
  </outline>
</glyph>
<glyph name="c.serif" format="2">
  <advance width="553"/>
  <unicode hex="0063"/>
  <anchor x="297" y="0" name="bottom"/>
  <anchor x="297" y="536" name="top"/>
  <anchor x="533" y="536" name="topright"/>
  <outline>
    <contour>
      <point x="304" y="-10" type="curve" smooth="yes"/>
      <point x="455" y="-10"/>
      <point x="515" y="58"/>
      <point x="515" y="110" type="curve" smooth="yes"/>
      <point x="515" y="136"/>
      <point x="500" y="158"/>
      <point x="476" y="166" type="curve"/>
      <point x="462" y="47"/>
      <point x="406" y="2"/>
      <point x="342" y="2" type="curve" smooth="yes"/>
      <point x="262" y="2"/>
      <point x="237" y="66"/>
      <point x="237" y="268" type="curve" smooth="yes"/>
      <point x="237" y="475"/>
      <point x="252" y="541"/>
      <point x="302" y="541" type="curve" smooth="yes"/>
      <point x="345" y="541"/>
      <point x="359" y="493"/>
      <point x="359" y="343" type="curve"/>
      <point x="497" y="343"/>
      <point x="518" y="403"/>
      <point x="518" y="439" type="curve" smooth="yes"/>
      <point x="518" y="496"/>
      <point x="465" y="551"/>
      <point x="302" y="551" type="curve" smooth="yes"/>
      <point x="156" y="551"/>
      <point x="41" y="484"/>
      <point x="41" y="267" type="curve" smooth="yes"/>
      <point x="41" y="55"/>
      <point x="146" y="-10"/>
    </contour>
  </outline>
</glyph>
<glyph name="d" format="2">
  <advance width="610"/>
  <unicode hex="0064"/>
  <anchor x="302" y="0" name="bottom"/>
  <anchor x="305" y="277" name="center"/>
  <anchor x="293" y="760" name="top"/>
  <anchor x="577" y="760" name="topright"/>
  <outline>
    <contour>
      <point x="217" y="-10" type="curve" smooth="yes"/>
      <point x="287" y="-10"/>
      <point x="327" y="26"/>
      <point x="351" y="70" type="curve"/>
      <point x="358" y="70" type="line"/>
      <point x="403" y="0" type="line"/>
      <point x="554" y="0" type="line"/>
      <point x="554" y="760" type="line"/>
      <point x="351" y="760" type="line"/>
      <point x="351" y="612" type="line" smooth="yes"/>
      <point x="351" y="565"/>
      <point x="353" y="510"/>
      <point x="358" y="482" type="curve"/>
      <point x="355" y="482" type="line"/>
      <point x="328" y="528"/>
      <point x="293" y="563"/>
      <point x="225" y="563" type="curve" smooth="yes"/>
      <point x="115" y="563"/>
      <point x="38" y="465"/>
      <point x="38" y="276" type="curve" smooth="yes"/>
      <point x="38" y="89"/>
      <point x="114" y="-10"/>
    </contour>
    <contour>
      <point x="304" y="141" type="curve" smooth="yes"/>
      <point x="269" y="141"/>
      <point x="242" y="181"/>
      <point x="242" y="273" type="curve" smooth="yes"/>
      <point x="242" y="366"/>
      <point x="269" y="409"/>
      <point x="302" y="409" type="curve" smooth="yes"/>
      <point x="354" y="409"/>
      <point x="369" y="361"/>
      <point x="369" y="274" type="curve" smooth="yes"/>
      <point x="369" y="259" type="line" smooth="yes"/>
      <point x="369" y="179"/>
      <point x="350" y="141"/>
    </contour>
  </outline>
</glyph>
<glyph name="e" format="2">
  <advance width="595"/>
  <unicode hex="0065"/>
  <anchor x="333" y="0" name="bottom"/>
  <anchor x="297" y="553" name="top"/>
  <anchor x="576" y="553" name="topright"/>
  <outline>
    <contour>
      <point x="303" y="563" type="curve" smooth="yes"/>
      <point x="145" y="563"/>
      <point x="38" y="472"/>
      <point x="38" y="273" type="curve" smooth="yes"/>
      <point x="38" y="76"/>
      <point x="159" y="-10"/>
      <point x="317" y="-10" type="curve" smooth="yes"/>
      <point x="414" y="-10"/>
      <point x="471" y="3"/>
      <point x="520" y="31" type="curve"/>
      <point x="520" y="168" type="line"/>
      <point x="463" y="139"/>
      <point x="412" y="126"/>
      <point x="347" y="126" type="curve" smooth="yes"/>
      <point x="277" y="126"/>
      <point x="244" y="167"/>
      <point x="242" y="225" type="curve"/>
      <point x="556" y="225" type="line"/>
      <point x="556" y="310" type="line"/>
      <point x="556" y="479"/>
      <point x="459" y="563"/>
    </contour>
    <contour>
      <point x="312" y="433" type="curve" smooth="yes"/>
      <point x="352" y="433"/>
      <point x="375" y="394"/>
      <point x="376" y="345" type="curve"/>
      <point x="246" y="345" type="line"/>
      <point x="250" y="406"/>
      <point x="277" y="433"/>
    </contour>
  </outline>
</glyph>
<glyph name="e.serif" format="2">
  <advance width="598"/>
  <unicode hex="0065"/>
  <anchor x="309" y="0" name="bottom"/>
  <anchor x="309" y="536" name="top"/>
  <anchor x="578" y="536" name="topright"/>
  <outline>
    <contour>
      <point x="324" y="-10" type="curve" smooth="yes"/>
      <point x="459" y="-10"/>
      <point x="542" y="40"/>
      <point x="542" y="113" type="curve" smooth="yes"/>
      <point x="542" y="147"/>
      <point x="521" y="164"/>
      <point x="488" y="171" type="curve"/>
      <point x="486" y="54"/>
      <point x="451" y="4"/>
      <point x="375" y="4" type="curve" smooth="yes"/>
      <point x="276" y="4"/>
      <point x="237" y="83"/>
      <point x="236" y="285" type="curve"/>
      <point x="561" y="285" type="line"/>
      <point x="561" y="309" type="line" smooth="yes"/>
      <point x="561" y="468"/>
      <point x="465" y="551"/>
      <point x="308" y="551" type="curve" smooth="yes"/>
      <point x="138" y="551"/>
      <point x="41" y="454"/>
      <point x="41" y="266" type="curve" smooth="yes"/>
      <point x="41" y="91"/>
      <point x="135" y="-10"/>
    </contour>
    <contour>
      <point x="370" y="295" type="curve"/>
      <point x="236" y="295" type="line"/>
      <point x="236" y="482"/>
      <point x="259" y="541"/>
      <point x="307" y="541" type="curve" smooth="yes"/>
      <point x="356" y="541"/>
      <point x="370" y="482"/>
    </contour>
  </outline>
</glyph>
<glyph name="f" format="2">
  <advance width="402"/>
  <unicode hex="0066"/>
  <anchor x="186" y="0" name="bottom"/>
  <anchor x="263" y="765" name="top"/>
  <anchor x="415" y="765" name="topright"/>
  <outline>
    <contour>
      <point x="393" y="410" type="line"/>
      <point x="393" y="553" type="line"/>
      <point x="288" y="553" type="line"/>
      <point x="288" y="568" type="line" smooth="yes"/>
      <point x="288" y="608"/>
      <point x="297" y="625"/>
      <point x="318" y="625" type="curve" smooth="yes"/>
      <point x="339" y="625"/>
      <point x="359" y="620"/>
      <point x="375" y="615" type="curve"/>
      <point x="415" y="739" type="line"/>
      <point x="356" y="756"/>
      <point x="319" y="765"/>
      <point x="266" y="765" type="curve" smooth="yes"/>
      <point x="131" y="765"/>
      <point x="92" y="703"/>
      <point x="92" y="560" type="curve" smooth="yes"/>
      <point x="92" y="551" type="line"/>
      <point x="22" y="504" type="line"/>
      <point x="22" y="410" type="line"/>
      <point x="86" y="410" type="line"/>
      <point x="86" y="0" type="line"/>
      <point x="288" y="0" type="line"/>
      <point x="288" y="410" type="line"/>
    </contour>
  </outline>
</glyph>
<glyph name="f.serif" format="2">
  <advance width="435"/>
  <unicode hex="0066"/>
  <anchor x="218" y="0" name="bottom"/>
  <anchor x="293" y="768" name="top"/>
  <anchor x="515" y="768" name="topright"/>
  <outline>
    <contour>
      <point x="13" y="0" type="line"/>
      <point x="416" y="0" type="line"/>
      <point x="416" y="10" type="line"/>
      <point x="362" y="10" type="line" smooth="yes"/>
      <point x="339" y="10"/>
      <point x="299" y="17"/>
      <point x="299" y="70" type="curve" smooth="yes"/>
      <point x="299" y="526" type="line"/>
      <point x="435" y="526" type="line"/>
      <point x="435" y="536" type="line"/>
      <point x="299" y="536" type="line"/>
      <point x="299" y="643" type="line" smooth="yes"/>
      <point x="299" y="730"/>
      <point x="309" y="758"/>
      <point x="336" y="758" type="curve" smooth="yes"/>
      <point x="366" y="758"/>
      <point x="374" y="724"/>
      <point x="374" y="615" type="curve"/>
      <point x="481" y="615"/>
      <point x="504" y="653"/>
      <point x="504" y="693" type="curve" smooth="yes"/>
      <point x="504" y="726"/>
      <point x="476" y="768"/>
      <point x="328" y="768" type="curve" smooth="yes"/>
      <point x="164" y="768"/>
      <point x="105" y="691"/>
      <point x="105" y="563" type="curve" smooth="yes"/>
      <point x="105" y="536" type="line"/>
      <point x="17" y="536" type="line"/>
      <point x="17" y="526" type="line"/>
      <point x="105" y="526" type="line"/>
      <point x="105" y="70" type="line" smooth="yes"/>
      <point x="105" y="17"/>
      <point x="59" y="10"/>
      <point x="42" y="10" type="curve" smooth="yes"/>
      <point x="13" y="10" type="line"/>
    </contour>
  </outline>
</glyph>
<glyph name="g" format="2">
  <advance width="610"/>
  <unicode hex="0067"/>
  <anchor x="273" y="-240" name="bottom"/>
  <anchor x="295" y="553" name="top"/>
  <anchor x="579" y="553" name="topright"/>
  <outline>
    <contour>
      <point x="222" y="563" type="curve" smooth="yes"/>
      <point x="117" y="563"/>
      <point x="38" y="463"/>
      <point x="38" y="276" type="curve" smooth="yes"/>
      <point x="38" y="89"/>
      <point x="115" y="-10"/>
      <point x="220" y="-10" type="curve" smooth="yes"/>
      <point x="297" y="-10"/>
      <point x="334" y="26"/>
      <point x="352" y="70" type="curve"/>
      <point x="359" y="70" type="line"/>
      <point x="354" y="43"/>
      <point x="352" y="18"/>
      <point x="352" y="1" type="curve" smooth="yes"/>
      <point x="352" y="-9" type="line"/>
      <point x="352" y="-62"/>
      <point x="317" y="-91"/>
      <point x="244" y="-91" type="curve" smooth="yes"/>
      <point x="156" y="-91"/>
      <point x="119" y="-77"/>
      <point x="56" y="-49" type="curve"/>
      <point x="56" y="-208" type="line"/>
      <point x="115" y="-232"/>
      <point x="175" y="-240"/>
      <point x="265" y="-240" type="curve" smooth="yes"/>
      <point x="464" y="-240"/>
      <point x="554" y="-157"/>
      <point x="554" y="-1" type="curve"/>
      <point x="554" y="553" type="line"/>
      <point x="378" y="553" type="line"/>
      <point x="364" y="485" type="line"/>
      <point x="360" y="485" type="line"/>
      <point x="338" y="529"/>
      <point x="300" y="563"/>
    </contour>
    <contour>
      <point x="303" y="415" type="curve" smooth="yes"/>
      <point x="361" y="415"/>
      <point x="369" y="365"/>
      <point x="369" y="279" type="curve" smooth="yes"/>
      <point x="369" y="256" type="line" smooth="yes"/>
      <point x="369" y="177"/>
      <point x="357" y="138"/>
      <point x="306" y="138" type="curve" smooth="yes"/>
      <point x="263" y="138"/>
      <point x="243" y="177"/>
      <point x="243" y="273" type="curve" smooth="yes"/>
      <point x="243" y="366"/>
      <point x="262" y="415"/>
    </contour>
  </outline>
</glyph>
<glyph name="h" format="2">
  <advance width="637"/>
  <unicode hex="0068"/>
  <anchor x="325" y="0" name="bottom"/>
  <anchor x="318" y="277" name="center"/>
  <anchor x="159" y="760" name="top"/>
  <anchor x="588" y="760" name="topright"/>
  <outline>
    <contour>
      <point x="258" y="652" type="curve" smooth="yes"/>
      <point x="258" y="760" type="line"/>
      <point x="56" y="760" type="line"/>
      <point x="56" y="0" type="line"/>
      <point x="258" y="0" type="line"/>
      <point x="258" y="243" type="line" smooth="yes"/>
      <point x="258" y="352"/>
      <point x="275" y="413"/>
      <point x="329" y="413" type="curve" smooth="yes"/>
      <point x="363" y="413"/>
      <point x="379" y="375"/>
      <point x="379" y="302" type="curve" smooth="yes"/>
      <point x="379" y="0" type="line"/>
      <point x="583" y="0" type="line"/>
      <point x="583" y="360" type="line" smooth="yes"/>
      <point x="583" y="503"/>
      <point x="496" y="563"/>
      <point x="398" y="563" type="curve" smooth="yes"/>
      <point x="337" y="563"/>
      <point x="293" y="542"/>
      <point x="259" y="485" type="curve"/>
      <point x="250" y="485" type="line"/>
      <point x="253" y="514"/>
      <point x="258" y="570"/>
    </contour>
  </outline>
</glyph>
<glyph name="h.serif" format="2">
  <advance width="691"/>
  <unicode hex="0068"/>
  <anchor x="346" y="0" name="bottom"/>
  <anchor x="346" y="268" name="center"/>
  <anchor x="346" y="760" name="top"/>
  <anchor x="631" y="760" name="topright"/>
  <outline>
    <contour>
      <point x="21" y="0" type="line"/>
      <point x="356" y="0" type="line"/>
      <point x="356" y="10" type="line"/>
      <point x="352" y="10" type="line"/>
      <point x="308" y="10"/>
      <point x="289" y="20"/>
      <point x="289" y="74" type="curve" smooth="yes"/>
      <point x="289" y="342" type="line" smooth="yes"/>
      <point x="289" y="421"/>
      <point x="304" y="502"/>
      <point x="355" y="502" type="curve" smooth="yes"/>
      <point x="398" y="502"/>
      <point x="409" y="463"/>
      <point x="409" y="378" type="curve" smooth="yes"/>
      <point x="409" y="0" type="line"/>
      <point x="666" y="0" type="line"/>
      <point x="666" y="10" type="line"/>
      <point x="662" y="10" type="line" smooth="yes"/>
      <point x="617" y="10"/>
      <point x="603" y="19"/>
      <point x="603" y="80" type="curve" smooth="yes"/>
      <point x="603" y="360" type="line" smooth="yes"/>
      <point x="603" y="494"/>
      <point x="548" y="551"/>
      <point x="441" y="551" type="curve" smooth="yes"/>
      <point x="353" y="551"/>
      <point x="306" y="513"/>
      <point x="289" y="439" type="curve"/>
      <point x="287" y="439" type="line"/>
      <point x="289" y="486"/>
      <point x="289" y="524"/>
      <point x="289" y="571" type="curve" smooth="yes"/>
      <point x="289" y="760" type="line"/>
      <point x="16" y="760" type="line"/>
      <point x="16" y="750" type="line"/>
      <point x="30" y="750" type="line" smooth="yes"/>
      <point x="74" y="750"/>
      <point x="94" y="741"/>
      <point x="94" y="687" type="curve" smooth="yes"/>
      <point x="94" y="77" type="line" smooth="yes"/>
      <point x="94" y="19"/>
      <point x="70" y="10"/>
      <point x="25" y="10" type="curve" smooth="yes"/>
      <point x="21" y="10" type="line"/>
    </contour>
  </outline>
</glyph>
<glyph name="i" format="2">
  <advance width="316"/>
  <unicode hex="0069"/>
  <anchor x="162" y="0" name="bottom"/>
  <anchor x="159" y="776" name="top"/>
  <anchor x="297" y="776" name="topright"/>
  <outline>
    <contour>
      <point x="259" y="553" type="line"/>
      <point x="57" y="553" type="line"/>
      <point x="57" y="0" type="line"/>
      <point x="259" y="0" type="line"/>
    </contour>
    <contour>
      <point x="159" y="776" type="curve" smooth="yes"/>
      <point x="100" y="776"/>
      <point x="53" y="759"/>
      <point x="53" y="691" type="curve"/>
      <point x="53" y="625"/>
      <point x="100" y="607"/>
      <point x="159" y="607" type="curve" smooth="yes"/>
      <point x="216" y="607"/>
      <point x="265" y="625"/>
      <point x="265" y="691" type="curve" smooth="yes"/>
      <point x="265" y="759"/>
      <point x="216" y="776"/>
    </contour>
  </outline>
</glyph>
<glyph name="j" format="2">
  <advance width="315"/>
  <unicode hex="006A"/>
  <anchor x="58" y="-240" name="bottom"/>
  <anchor x="157" y="776" name="top"/>
  <anchor x="297" y="776" name="topright"/>
  <outline>
    <contour>
      <point x="58" y="-240" type="curve" smooth="yes"/>
      <point x="208" y="-240"/>
      <point x="257" y="-145"/>
      <point x="257" y="-45" type="curve" smooth="yes"/>
      <point x="257" y="553" type="line"/>
      <point x="56" y="553" type="line"/>
      <point x="56" y="-5" type="line" smooth="yes"/>
      <point x="56" y="-72"/>
      <point x="33" y="-88"/>
      <point x="9" y="-88" type="curve" smooth="yes"/>
      <point x="-9" y="-88"/>
      <point x="-23" y="-85"/>
      <point x="-41" y="-79" type="curve"/>
      <point x="-41" y="-228" type="line"/>
      <point x="-16" y="-235"/>
      <point x="31" y="-240"/>
    </contour>
    <contour>
      <point x="52" y="691" type="curve" smooth="yes"/>
      <point x="52" y="625"/>
      <point x="99" y="607"/>
      <point x="157" y="607" type="curve" smooth="yes"/>
      <point x="215" y="607"/>
      <point x="264" y="625"/>
      <point x="264" y="691" type="curve" smooth="yes"/>
      <point x="264" y="759"/>
      <point x="215" y="776"/>
      <point x="157" y="776" type="curve" smooth="yes"/>
      <point x="99" y="776"/>
      <point x="52" y="759"/>
    </contour>
  </outline>
</glyph>
<glyph name="k" format="2">
  <advance width="640"/>
  <unicode hex="006B"/>
  <anchor x="321" y="0" name="bottom"/>
  <anchor x="156" y="760" name="top"/>
  <anchor x="461" y="890" name="topright"/>
  <outline>
    <contour>
      <point x="259" y="461" type="curve" smooth="yes"/>
      <point x="259" y="760" type="line"/>
      <point x="56" y="760" type="line"/>
      <point x="56" y="0" type="line"/>
      <point x="259" y="0" type="line"/>
      <point x="259" y="151" type="line"/>
      <point x="316" y="198" type="line"/>
      <point x="411" y="0" type="line"/>
      <point x="640" y="0" type="line"/>
      <point x="462" y="318" type="line"/>
      <point x="630" y="553" type="line"/>
      <point x="406" y="553" type="line"/>
      <point x="303" y="397" type="line" smooth="yes"/>
      <point x="281" y="364"/>
      <point x="261" y="331"/>
      <point x="252" y="311" type="curve"/>
      <point x="247" y="311" type="line"/>
      <point x="255" y="356"/>
      <point x="259" y="416"/>
    </contour>
  </outline>
</glyph>
<glyph name="m" format="2">
  <advance width="949"/>
  <unicode hex="006D"/>
  <anchor x="479" y="0" name="bottom"/>
  <anchor x="499" y="553" name="top"/>
  <anchor x="926" y="553" name="topright"/>
  <outline>
    <contour>
      <point x="708" y="563" type="curve" smooth="yes"/>
      <point x="640" y="563"/>
      <point x="591" y="535"/>
      <point x="557" y="486" type="curve"/>
      <point x="555" y="486" type="line"/>
      <point x="523" y="534"/>
      <point x="477" y="563"/>
      <point x="401" y="563" type="curve" smooth="yes"/>
      <point x="313" y="563"/>
      <point x="266" y="530"/>
      <point x="241" y="485" type="curve"/>
      <point x="238" y="485" type="line"/>
      <point x="207" y="553" type="line"/>
      <point x="56" y="553" type="line"/>
      <point x="56" y="0" type="line"/>
      <point x="258" y="0" type="line"/>
      <point x="258" y="242" type="line" smooth="yes"/>
      <point x="258" y="352"/>
      <point x="270" y="413"/>
      <point x="323" y="413" type="curve" smooth="yes"/>
      <point x="357" y="413"/>
      <point x="374" y="381"/>
      <point x="374" y="301" type="curve" smooth="yes"/>
      <point x="374" y="0" type="line"/>
      <point x="576" y="0" type="line"/>
      <point x="576" y="258" type="line" smooth="yes"/>
      <point x="576" y="357"/>
      <point x="589" y="413"/>
      <point x="639" y="413" type="curve" smooth="yes"/>
      <point x="674" y="413"/>
      <point x="694" y="385"/>
      <point x="694" y="301" type="curve" smooth="yes"/>
      <point x="694" y="0" type="line"/>
      <point x="895" y="0" type="line"/>
      <point x="895" y="360" type="line" smooth="yes"/>
      <point x="895" y="502"/>
      <point x="828" y="563"/>
    </contour>
  </outline>
</glyph>
<glyph name="n" format="2">
  <advance width="637"/>
  <unicode hex="006E"/>
  <anchor x="318" y="0" name="bottom"/>
  <anchor x="318" y="553" name="top"/>
  <anchor x="603" y="553" name="topright"/>
  <outline>
    <contour>
      <point x="400" y="563" type="curve" smooth="yes"/>
      <point x="322" y="563"/>
      <point x="274" y="532"/>
      <point x="241" y="480" type="curve"/>
      <point x="235" y="480" type="line"/>
      <point x="207" y="553" type="line"/>
      <point x="56" y="553" type="line"/>
      <point x="56" y="0" type="line"/>
      <point x="258" y="0" type="line"/>
      <point x="258" y="242" type="line" smooth="yes"/>
      <point x="258" y="352"/>
      <point x="271" y="413"/>
      <point x="329" y="413" type="curve" smooth="yes"/>
      <point x="366" y="413"/>
      <point x="381" y="375"/>
      <point x="381" y="302" type="curve" smooth="yes"/>
      <point x="381" y="0" type="line"/>
      <point x="583" y="0" type="line"/>
      <point x="583" y="360" type="line" smooth="yes"/>
      <point x="583" y="502"/>
      <point x="506" y="563"/>
    </contour>
  </outline>
</glyph>
<glyph name="o" format="2">
  <advance width="608"/>
  <unicode hex="006F"/>
  <anchor x="302" y="0" name="bottom"/>
  <anchor x="305" y="277" name="center"/>
  <anchor x="305" y="553" name="top"/>
  <anchor x="590" y="553" name="topright"/>
  <outline>
    <contour>
      <point x="569" y="278" type="curve" smooth="yes"/>
      <point x="569" y="461"/>
      <point x="458" y="563"/>
      <point x="306" y="563" type="curve" smooth="yes"/>
      <point x="139" y="563"/>
      <point x="38" y="461"/>
      <point x="38" y="278" type="curve" smooth="yes"/>
      <point x="38" y="93"/>
      <point x="149" y="-10"/>
      <point x="303" y="-10" type="curve" smooth="yes"/>
      <point x="469" y="-10"/>
      <point x="569" y="93"/>
    </contour>
    <contour>
      <point x="243" y="278" type="curve" smooth="yes"/>
      <point x="243" y="372"/>
      <point x="260" y="421"/>
      <point x="304" y="421" type="curve" smooth="yes"/>
      <point x="350" y="421"/>
      <point x="364" y="372"/>
      <point x="364" y="278" type="curve" smooth="yes"/>
      <point x="364" y="183"/>
      <point x="350" y="132"/>
      <point x="305" y="132" type="curve" smooth="yes"/>
      <point x="259" y="132"/>
      <point x="243" y="183"/>
    </contour>
  </outline>
</glyph>
<glyph name="p" format="2">
  <advance width="610"/>
  <unicode hex="0070"/>
  <anchor x="158" y="-240" name="bottom"/>
  <anchor x="305" y="553" name="top"/>
  <anchor x="591" y="553" name="topright"/>
  <outline>
    <contour>
      <point x="392" y="563" type="curve" smooth="yes"/>
      <point x="320" y="563"/>
      <point x="282" y="526"/>
      <point x="258" y="483" type="curve"/>
      <point x="248" y="483" type="line"/>
      <point x="220" y="553" type="line"/>
      <point x="56" y="553" type="line"/>
      <point x="56" y="-240" type="line"/>
      <point x="258" y="-240" type="line"/>
      <point x="258" y="-38" type="line" smooth="yes"/>
      <point x="258" y="1"/>
      <point x="255" y="29"/>
      <point x="253" y="54" type="curve"/>
      <point x="258" y="54" type="line"/>
      <point x="278" y="24"/>
      <point x="312" y="-10"/>
      <point x="385" y="-10" type="curve" smooth="yes"/>
      <point x="490" y="-10"/>
      <point x="571" y="89"/>
      <point x="571" y="278" type="curve" smooth="yes"/>
      <point x="571" y="462"/>
      <point x="506" y="563"/>
    </contour>
    <contour>
      <point x="311" y="413" type="curve" smooth="yes"/>
      <point x="345" y="413"/>
      <point x="366" y="377"/>
      <point x="366" y="280" type="curve" smooth="yes"/>
      <point x="366" y="182"/>
      <point x="346" y="144"/>
      <point x="312" y="144" type="curve" smooth="yes"/>
      <point x="269" y="144"/>
      <point x="258" y="191"/>
      <point x="258" y="279" type="curve" smooth="yes"/>
      <point x="258" y="294" type="line" smooth="yes"/>
      <point x="258" y="373"/>
      <point x="270" y="413"/>
    </contour>
  </outline>
</glyph>
<glyph name="p.serif" format="2">
  <advance width="668"/>
  <unicode hex="0070"/>
  <anchor x="334" y="-221" name="bottom"/>
  <anchor x="334" y="536" name="top"/>
  <anchor x="648" y="536" name="topright"/>
  <outline>
    <contour>
      <point x="9" y="-221" type="line"/>
      <point x="380" y="-221" type="line"/>
      <point x="380" y="-211" type="line"/>
      <point x="354" y="-211" type="line" smooth="yes"/>
      <point x="321" y="-211"/>
      <point x="282" y="-202"/>
      <point x="282" y="-142" type="curve" smooth="yes"/>
      <point x="282" y="5" type="line" smooth="yes"/>
      <point x="282" y="47"/>
      <point x="282" y="90"/>
      <point x="281" y="132" type="curve"/>
      <point x="283" y="132" type="line"/>
      <point x="303" y="33"/>
      <point x="341" y="-10"/>
      <point x="431" y="-10" type="curve" smooth="yes"/>
      <point x="560" y="-10"/>
      <point x="626" y="86"/>
      <point x="626" y="271" type="curve" smooth="yes"/>
      <point x="626" y="454"/>
      <point x="560" y="549"/>
      <point x="439" y="549" type="curve" smooth="yes"/>
      <point x="355" y="549"/>
      <point x="301" y="504"/>
      <point x="283" y="400" type="curve"/>
      <point x="281" y="400" type="line"/>
      <point x="281" y="536" type="line"/>
      <point x="28" y="536" type="line"/>
      <point x="28" y="526" type="line"/>
      <point x="30" y="526" type="line" smooth="yes"/>
      <point x="73" y="526"/>
      <point x="87" y="510"/>
      <point x="87" y="460" type="curve" smooth="yes"/>
      <point x="87" y="-142" type="line" smooth="yes"/>
      <point x="87" y="-202"/>
      <point x="48" y="-211"/>
      <point x="15" y="-211" type="curve" smooth="yes"/>
      <point x="9" y="-211" type="line"/>
    </contour>
    <contour>
      <point x="363" y="22" type="curve" smooth="yes"/>
      <point x="317" y="22"/>
      <point x="282" y="113"/>
      <point x="282" y="271" type="curve" smooth="yes"/>
      <point x="282" y="415"/>
      <point x="314" y="505"/>
      <point x="362" y="505" type="curve" smooth="yes"/>
      <point x="408" y="505"/>
      <point x="431" y="420"/>
      <point x="431" y="273" type="curve" smooth="yes"/>
      <point x="431" y="113"/>
      <point x="410" y="22"/>
    </contour>
  </outline>
</glyph>
<glyph name="q" format="2">
  <advance width="610"/>
  <unicode hex="0071"/>
  <anchor x="453" y="-240" name="bottom"/>
  <anchor x="305" y="553" name="top"/>
  <anchor x="583" y="553" name="topright"/>
  <outline>
    <contour>
      <point x="352" y="-11" type="curve" smooth="yes"/>
      <point x="352" y="-240" type="line"/>
      <point x="554" y="-240" type="line"/>
      <point x="554" y="553" type="line"/>
      <point x="378" y="553" type="line"/>
      <point x="365" y="485" type="line"/>
      <point x="361" y="485" type="line"/>
      <point x="335" y="529"/>
      <point x="294" y="563"/>
      <point x="223" y="563" type="curve" smooth="yes"/>
      <point x="113" y="563"/>
      <point x="38" y="463"/>
      <point x="38" y="276" type="curve" smooth="yes"/>
      <point x="38" y="89"/>
      <point x="112" y="-10"/>
      <point x="220" y="-10" type="curve" smooth="yes"/>
      <point x="289" y="-10"/>
      <point x="329" y="26"/>
      <point x="352" y="70" type="curve"/>
      <point x="358" y="70" type="line"/>
      <point x="354" y="43"/>
      <point x="352" y="16"/>
    </contour>
    <contour>
      <point x="306" y="138" type="curve" smooth="yes"/>
      <point x="263" y="138"/>
      <point x="243" y="177"/>
      <point x="243" y="273" type="curve" smooth="yes"/>
      <point x="243" y="366"/>
      <point x="263" y="415"/>
      <point x="303" y="415" type="curve" smooth="yes"/>
      <point x="357" y="415"/>
      <point x="369" y="365"/>
      <point x="369" y="279" type="curve" smooth="yes"/>
      <point x="369" y="256" type="line" smooth="yes"/>
      <point x="369" y="177"/>
      <point x="354" y="138"/>
    </contour>
  </outline>
</glyph>
<glyph name="q.serif" format="2">
  <advance width="673"/>
  <unicode hex="0071"/>
  <anchor x="337" y="-221" name="bottom"/>
  <anchor x="337" y="536" name="top"/>
  <anchor x="673" y="536" name="topright"/>
  <outline>
    <contour>
      <point x="278" y="-221" type="line"/>
      <point x="663" y="-221" type="line"/>
      <point x="663" y="-211" type="line"/>
      <point x="651" y="-211" type="line" smooth="yes"/>
      <point x="618" y="-211"/>
      <point x="579" y="-202"/>
      <point x="579" y="-142" type="curve" smooth="yes"/>
      <point x="579" y="460" type="line" smooth="yes"/>
      <point x="579" y="515"/>
      <point x="611" y="526"/>
      <point x="653" y="526" type="curve" smooth="yes"/>
      <point x="663" y="526" type="line"/>
      <point x="663" y="536" type="line"/>
      <point x="385" y="536" type="line"/>
      <point x="385" y="400" type="line"/>
      <point x="383" y="400" type="line"/>
      <point x="365" y="504"/>
      <point x="311" y="549"/>
      <point x="227" y="549" type="curve" smooth="yes"/>
      <point x="106" y="549"/>
      <point x="39" y="454"/>
      <point x="39" y="271" type="curve" smooth="yes"/>
      <point x="39" y="86"/>
      <point x="106" y="-10"/>
      <point x="235" y="-10" type="curve" smooth="yes"/>
      <point x="325" y="-10"/>
      <point x="364" y="33"/>
      <point x="383" y="132" type="curve"/>
      <point x="385" y="132" type="line"/>
      <point x="384" y="65"/>
      <point x="384" y="-1"/>
      <point x="384" y="-68" type="curve" smooth="yes"/>
      <point x="384" y="-142" type="line" smooth="yes"/>
      <point x="384" y="-202"/>
      <point x="345" y="-211"/>
      <point x="312" y="-211" type="curve" smooth="yes"/>
      <point x="278" y="-211" type="line"/>
    </contour>
    <contour>
      <point x="303" y="22" type="curve" smooth="yes"/>
      <point x="256" y="22"/>
      <point x="235" y="113"/>
      <point x="235" y="273" type="curve" smooth="yes"/>
      <point x="235" y="420"/>
      <point x="258" y="505"/>
      <point x="304" y="505" type="curve" smooth="yes"/>
      <point x="352" y="505"/>
      <point x="384" y="415"/>
      <point x="384" y="271" type="curve" smooth="yes"/>
      <point x="384" y="113"/>
      <point x="349" y="22"/>
    </contour>
  </outline>
</glyph>
<glyph name="r.serif" format="2">
  <advance width="561"/>
  <unicode hex="0072"/>
  <anchor x="201" y="0" name="bottom"/>
  <anchor x="281" y="536" name="top"/>
  <anchor x="571" y="536" name="topright"/>
  <outline>
    <contour>
      <point x="10" y="0" type="line"/>
      <point x="377" y="0" type="line"/>
      <point x="377" y="10" type="line"/>
      <point x="342" y="10" type="line" smooth="yes"/>
      <point x="305" y="10"/>
      <point x="281" y="18"/>
      <point x="281" y="77" type="curve" smooth="yes"/>
      <point x="281" y="318" type="line" smooth="yes"/>
      <point x="281" y="433"/>
      <point x="301" y="493"/>
      <point x="348" y="493" type="curve" smooth="yes"/>
      <point x="386" y="493"/>
      <point x="397" y="455"/>
      <point x="397" y="346" type="curve"/>
      <point x="489" y="346"/>
      <point x="546" y="383"/>
      <point x="546" y="451" type="curve" smooth="yes"/>
      <point x="546" y="508"/>
      <point x="506" y="549"/>
      <point x="430" y="549" type="curve" smooth="yes"/>
      <point x="356" y="549"/>
      <point x="302" y="510"/>
      <point x="282" y="435" type="curve"/>
      <point x="280" y="435" type="line"/>
      <point x="280" y="536" type="line"/>
      <point x="19" y="536" type="line"/>
      <point x="19" y="526" type="line"/>
      <point x="23" y="526" type="line" smooth="yes"/>
      <point x="67" y="526"/>
      <point x="86" y="517"/>
      <point x="86" y="458" type="curve" smooth="yes"/>
      <point x="86" y="82" type="line" smooth="yes"/>
      <point x="86" y="19"/>
      <point x="60" y="10"/>
      <point x="15" y="10" type="curve" smooth="yes"/>
      <point x="10" y="10" type="line"/>
    </contour>
  </outline>
</glyph>
<glyph name="s" format="2">
  <advance width="497"/>
  <unicode hex="0073"/>
  <anchor x="237" y="0" name="bottom"/>
  <anchor x="237" y="553" name="top"/>
  <anchor x="488" y="553" name="topright"/>
  <outline>
    <contour>
      <point x="458" y="170" type="curve" smooth="yes"/>
      <point x="458" y="267"/>
      <point x="422" y="307"/>
      <point x="330" y="346" type="curve" smooth="yes"/>
      <point x="245" y="382"/>
      <point x="227" y="390"/>
      <point x="227" y="411" type="curve" smooth="yes"/>
      <point x="227" y="426"/>
      <point x="240" y="434"/>
      <point x="261" y="434" type="curve" smooth="yes"/>
      <point x="284" y="434"/>
      <point x="350" y="418"/>
      <point x="403" y="393" type="curve"/>
      <point x="455" y="516" type="line"/>
      <point x="388" y="547"/>
      <point x="330" y="563"/>
      <point x="259" y="563" type="curve" smooth="yes"/>
      <point x="127" y="563"/>
      <point x="38" y="508"/>
      <point x="38" y="400" type="curve" smooth="yes"/>
      <point x="38" y="309"/>
      <point x="80" y="266"/>
      <point x="160" y="228" type="curve" smooth="yes"/>
      <point x="241" y="190"/>
      <point x="271" y="181"/>
      <point x="271" y="157" type="curve" smooth="yes"/>
      <point x="271" y="138"/>
      <point x="256" y="129"/>
      <point x="223" y="129" type="curve" smooth="yes"/>
      <point x="189" y="129"/>
      <point x="111" y="142"/>
      <point x="39" y="174" type="curve"/>
      <point x="39" y="21" type="line"/>
      <point x="104" y="-3"/>
      <point x="162" y="-10"/>
      <point x="238" y="-10" type="curve" smooth="yes"/>
      <point x="403" y="-10"/>
      <point x="458" y="65"/>
    </contour>
  </outline>
</glyph>
<glyph name="t" format="2">
  <advance width="446"/>
  <unicode hex="0074"/>
  <anchor x="260" y="0" name="bottom"/>
  <anchor x="213" y="277" name="center"/>
  <anchor x="217" y="664" name="top"/>
  <anchor x="309" y="890" name="topright"/>
  <outline>
    <contour>
      <point x="332" y="141" type="curve" smooth="yes"/>
      <point x="304" y="141"/>
      <point x="290" y="159"/>
      <point x="290" y="195" type="curve" smooth="yes"/>
      <point x="290" y="410" type="line"/>
      <point x="409" y="410" type="line"/>
      <point x="409" y="553" type="line"/>
      <point x="290" y="553" type="line"/>
      <point x="290" y="664" type="line"/>
      <point x="157" y="664" type="line"/>
      <point x="107" y="548" type="line"/>
      <point x="26" y="488" type="line"/>
      <point x="26" y="410" type="line"/>
      <point x="87" y="410" type="line"/>
      <point x="87" y="182" type="line" smooth="yes"/>
      <point x="87" y="32"/>
      <point x="155" y="-10"/>
      <point x="262" y="-10" type="curve" smooth="yes"/>
      <point x="338" y="-10"/>
      <point x="373" y="3"/>
      <point x="417" y="21" type="curve"/>
      <point x="417" y="160" type="line"/>
      <point x="388" y="149"/>
      <point x="365" y="141"/>
    </contour>
  </outline>
</glyph>
<glyph name="t.serif" format="2">
  <advance width="444"/>
  <unicode hex="0074"/>
  <anchor x="272" y="0" name="bottom"/>
  <anchor x="222" y="268" name="center"/>
  <anchor x="212" y="661" name="top"/>
  <anchor x="284" y="1030" name="topright"/>
  <outline>
    <contour>
      <point x="264" y="-10" type="curve" smooth="yes"/>
      <point x="347" y="-10"/>
      <point x="402" y="10"/>
      <point x="426" y="22" type="curve"/>
      <point x="426" y="32" type="line"/>
      <point x="401" y="21"/>
      <point x="378" y="15"/>
      <point x="358" y="15" type="curve" smooth="yes"/>
      <point x="316" y="15"/>
      <point x="291" y="42"/>
      <point x="291" y="100" type="curve" smooth="yes"/>
      <point x="291" y="526" type="line"/>
      <point x="417" y="526" type="line"/>
      <point x="417" y="536" type="line"/>
      <point x="291" y="536" type="line"/>
      <point x="291" y="661" type="line"/>
      <point x="281" y="661" type="line"/>
      <point x="257" y="617"/>
      <point x="223" y="585"/>
      <point x="177" y="564" type="curve" smooth="yes"/>
      <point x="136" y="545"/>
      <point x="84" y="536"/>
      <point x="22" y="536" type="curve"/>
      <point x="22" y="526" type="line"/>
      <point x="96" y="526" type="line"/>
      <point x="96" y="150" type="line" smooth="yes"/>
      <point x="96" y="32"/>
      <point x="161" y="-10"/>
    </contour>
  </outline>
</glyph>
<glyph name="u" format="2">
  <advance width="637"/>
  <unicode hex="0075"/>
  <anchor x="315" y="0" name="bottom"/>
  <anchor x="318" y="553" name="top"/>
  <anchor x="615" y="553" name="topright"/>
  <outline>
    <contour>
      <point x="581" y="553" type="line"/>
      <point x="379" y="553" type="line"/>
      <point x="379" y="311" type="line" smooth="yes"/>
      <point x="379" y="201"/>
      <point x="366" y="141"/>
      <point x="308" y="141" type="curve" smooth="yes"/>
      <point x="271" y="141"/>
      <point x="258" y="179"/>
      <point x="258" y="251" type="curve" smooth="yes"/>
      <point x="258" y="553" type="line"/>
      <point x="56" y="553" type="line"/>
      <point x="56" y="193" type="line" smooth="yes"/>
      <point x="56" y="51"/>
      <point x="139" y="-10"/>
      <point x="237" y="-10" type="curve" smooth="yes"/>
      <point x="301" y="-10"/>
      <point x="360" y="13"/>
      <point x="393" y="69" type="curve"/>
      <point x="405" y="69" type="line"/>
      <point x="430" y="0" type="line"/>
      <point x="581" y="0" type="line"/>
    </contour>
  </outline>
</glyph>
<glyph name="v" format="2">
  <advance width="597"/>
  <unicode hex="0076"/>
  <anchor x="301" y="0" name="bottom"/>
  <anchor x="298" y="553" name="top"/>
  <anchor x="578" y="553" name="topright"/>
  <outline>
    <contour>
      <point x="191" y="0" type="line"/>
      <point x="397" y="0" type="line"/>
      <point x="597" y="553" type="line"/>
      <point x="386" y="553" type="line"/>
      <point x="314" y="264" type="line" smooth="yes"/>
      <point x="302" y="217"/>
      <point x="298" y="192"/>
      <point x="295" y="170" type="curve"/>
      <point x="292" y="170" type="line"/>
      <point x="290" y="191"/>
      <point x="285" y="221"/>
      <point x="275" y="267" type="curve" smooth="yes"/>
      <point x="210" y="553" type="line"/>
      <point x="0" y="553" type="line"/>
    </contour>
  </outline>
</glyph>
<glyph name="v.serif" format="2">
  <advance width="626"/>
  <unicode hex="0076"/>
  <anchor x="323" y="0" name="bottom"/>
  <anchor x="323" y="536" name="top"/>
  <anchor x="636" y="536" name="topright"/>
  <outline>
    <contour>
      <point x="63" y="481" type="curve" smooth="yes"/>
      <point x="238" y="0" type="line"/>
      <point x="391" y="0" type="line"/>
      <point x="535" y="457" type="line" smooth="yes"/>
      <point x="552" y="511"/>
      <point x="567" y="526"/>
      <point x="592" y="526" type="curve" smooth="yes"/>
      <point x="628" y="526" type="line"/>
      <point x="628" y="536" type="line"/>
      <point x="434" y="536" type="line"/>
      <point x="434" y="526" type="line"/>
      <point x="490" y="526" type="line" smooth="yes"/>
      <point x="518" y="526"/>
      <point x="531" y="518"/>
      <point x="531" y="495" type="curve" smooth="yes"/>
      <point x="531" y="484"/>
      <point x="527" y="468"/>
      <point x="521" y="448" type="curve" smooth="yes"/>
      <point x="425" y="142" type="line" smooth="yes"/>
      <point x="417" y="116"/>
      <point x="409" y="90"/>
      <point x="401" y="63" type="curve"/>
      <point x="386" y="109"/>
      <point x="363" y="176"/>
      <point x="349" y="217" type="curve" smooth="yes"/>
      <point x="267" y="457" type="line" smooth="yes"/>
      <point x="261" y="474"/>
      <point x="258" y="488"/>
      <point x="258" y="498" type="curve" smooth="yes"/>
      <point x="258" y="518"/>
      <point x="271" y="526"/>
      <point x="298" y="526" type="curve" smooth="yes"/>
      <point x="333" y="526" type="line"/>
      <point x="333" y="536" type="line"/>
      <point x="7" y="536" type="line"/>
      <point x="7" y="526" type="line"/>
      <point x="37" y="526"/>
      <point x="51" y="515"/>
    </contour>
  </outline>
</glyph>
<glyph name="w" format="2">
  <advance width="883"/>
  <unicode hex="0077"/>
  <anchor x="436" y="0" name="bottom"/>
  <anchor x="442" y="553" name="top"/>
  <anchor x="865" y="553" name="topright"/>
  <outline>
    <contour>
      <point x="464" y="253" type="curve" smooth="yes"/>
      <point x="514" y="0" type="line"/>
      <point x="739" y="0" type="line"/>
      <point x="871" y="553" type="line"/>
      <point x="678" y="553" type="line"/>
      <point x="643" y="331" type="line" smooth="yes"/>
      <point x="635" y="278"/>
      <point x="628" y="212"/>
      <point x="624" y="159" type="curve"/>
      <point x="622" y="159" type="line"/>
      <point x="618" y="212"/>
      <point x="602" y="289"/>
      <point x="595" y="327" type="curve" smooth="yes"/>
      <point x="551" y="553" type="line"/>
      <point x="337" y="553" type="line"/>
      <point x="291" y="330" type="line" smooth="yes"/>
      <point x="287" y="309"/>
      <point x="267" y="212"/>
      <point x="263" y="159" type="curve"/>
      <point x="260" y="159" type="line"/>
      <point x="257" y="212"/>
      <point x="248" y="294"/>
      <point x="241" y="341" type="curve" smooth="yes"/>
      <point x="210" y="553" type="line"/>
      <point x="12" y="553" type="line"/>
      <point x="142" y="0" type="line"/>
      <point x="361" y="0" type="line"/>
      <point x="416" y="252" type="line" smooth="yes"/>
      <point x="428" y="309"/>
      <point x="438" y="360"/>
      <point x="440" y="391" type="curve"/>
      <point x="443" y="391" type="line"/>
      <point x="446" y="359"/>
      <point x="454" y="304"/>
    </contour>
  </outline>
</glyph>
<glyph name="w.serif" format="2">
  <advance width="852"/>
  <unicode hex="0077"/>
  <anchor x="426" y="0" name="bottom"/>
  <anchor x="426" y="536" name="top"/>
  <anchor x="862" y="536" name="topright"/>
  <outline>
    <contour>
      <point x="50" y="481" type="curve" smooth="yes"/>
      <point x="195" y="0" type="line"/>
      <point x="316" y="0" type="line"/>
      <point x="410" y="325" type="line"/>
      <point x="528" y="0" type="line"/>
      <point x="636" y="0" type="line"/>
      <point x="763" y="457" type="line" smooth="yes"/>
      <point x="778" y="511"/>
      <point x="795" y="526"/>
      <point x="820" y="526" type="curve" smooth="yes"/>
      <point x="854" y="526" type="line"/>
      <point x="854" y="536" type="line"/>
      <point x="662" y="536" type="line"/>
      <point x="662" y="526" type="line"/>
      <point x="718" y="526" type="line" smooth="yes"/>
      <point x="746" y="526"/>
      <point x="759" y="518"/>
      <point x="759" y="495" type="curve" smooth="yes"/>
      <point x="759" y="484"/>
      <point x="756" y="468"/>
      <point x="750" y="448" type="curve" smooth="yes"/>
      <point x="677" y="185" type="line" smooth="yes"/>
      <point x="673" y="170"/>
      <point x="666" y="145"/>
      <point x="657" y="110" type="curve"/>
      <point x="655" y="110" type="line"/>
      <point x="642" y="152"/>
      <point x="632" y="178"/>
      <point x="618" y="217" type="curve" smooth="yes"/>
      <point x="507" y="530" type="line"/>
      <point x="459" y="530" type="line"/>
      <point x="347" y="142" type="line"/>
      <point x="342" y="126"/>
      <point x="338" y="110"/>
      <point x="334" y="94" type="curve"/>
      <point x="332" y="94" type="line"/>
      <point x="321" y="142"/>
      <point x="312" y="184"/>
      <point x="303" y="217" type="curve" smooth="yes"/>
      <point x="241" y="457" type="line" smooth="yes"/>
      <point x="237" y="474"/>
      <point x="232" y="488"/>
      <point x="232" y="498" type="curve" smooth="yes"/>
      <point x="232" y="518"/>
      <point x="245" y="526"/>
      <point x="272" y="526" type="curve" smooth="yes"/>
      <point x="324" y="526" type="line"/>
      <point x="324" y="536" type="line"/>
      <point x="-6" y="536" type="line"/>
      <point x="-6" y="526" type="line"/>
      <point x="-4" y="526" type="line" smooth="yes"/>
      <point x="28" y="526"/>
      <point x="40" y="514"/>
    </contour>
  </outline>
</glyph>
<glyph name="x" format="2">
  <advance width="620"/>
  <unicode hex="0078"/>
  <anchor x="310" y="0" name="bottom"/>
  <anchor x="309" y="553" name="top"/>
  <anchor x="601" y="553" name="topright"/>
  <outline>
    <contour>
      <point x="169" y="282" type="line"/>
      <point x="5" y="0" type="line"/>
      <point x="234" y="0" type="line"/>
      <point x="310" y="168" type="line"/>
      <point x="386" y="0" type="line"/>
      <point x="615" y="0" type="line"/>
      <point x="449" y="282" type="line"/>
      <point x="609" y="553" type="line"/>
      <point x="380" y="553" type="line"/>
      <point x="310" y="398" type="line"/>
      <point x="243" y="553" type="line"/>
      <point x="13" y="553" type="line"/>
    </contour>
  </outline>
</glyph>
<glyph name="y" format="2">
  <advance width="595"/>
  <unicode hex="0079"/>
  <anchor x="140" y="-240" name="bottom"/>
  <anchor x="298" y="553" name="top"/>
  <anchor x="577" y="553" name="topright"/>
  <outline>
    <contour>
      <point x="-1" y="553" type="line"/>
      <point x="204" y="8" type="line"/>
      <point x="201" y="-4" type="line" smooth="yes"/>
      <point x="189" y="-51"/>
      <point x="171" y="-88"/>
      <point x="111" y="-88" type="curve" smooth="yes"/>
      <point x="90" y="-88"/>
      <point x="69" y="-85"/>
      <point x="56" y="-82" type="curve"/>
      <point x="56" y="-232" type="line"/>
      <point x="74" y="-236"/>
      <point x="97" y="-240"/>
      <point x="130" y="-240" type="curve" smooth="yes"/>
      <point x="288" y="-240"/>
      <point x="346" y="-171"/>
      <point x="393" y="-34" type="curve" smooth="yes"/>
      <point x="596" y="553" type="line"/>
      <point x="393" y="553" type="line"/>
      <point x="307" y="236" type="line" smooth="yes"/>
      <point x="303" y="222"/>
      <point x="302" y="200"/>
      <point x="300" y="176" type="curve"/>
      <point x="295" y="176" type="line"/>
      <point x="295" y="198"/>
      <point x="293" y="222"/>
      <point x="289" y="236" type="curve" smooth="yes"/>
      <point x="208" y="553" type="line"/>
    </contour>
  </outline>
</glyph>
<glyph name="y.serif" format="2">
  <advance width="589"/>
  <unicode hex="0079"/>
  <anchor x="165" y="-221" name="bottom"/>
  <anchor x="295" y="536" name="top"/>
  <anchor x="599" y="536" name="topright"/>
  <outline>
    <contour>
      <point x="19" y="-211" type="curve"/>
      <point x="19" y="-221" type="line"/>
      <point x="40" y="-221" type="line" smooth="yes"/>
      <point x="203" y="-221"/>
      <point x="255" y="-183"/>
      <point x="327" y="-4" type="curve" smooth="yes"/>
      <point x="509" y="448" type="line" smooth="yes"/>
      <point x="533" y="507"/>
      <point x="555" y="526"/>
      <point x="600" y="526" type="curve" smooth="yes"/>
      <point x="603" y="526" type="line"/>
      <point x="603" y="536" type="line"/>
      <point x="401" y="536" type="line"/>
      <point x="401" y="526" type="line"/>
      <point x="442" y="526" type="line" smooth="yes"/>
      <point x="486" y="526"/>
      <point x="506" y="516"/>
      <point x="506" y="489" type="curve" smooth="yes"/>
      <point x="506" y="476"/>
      <point x="501" y="458"/>
      <point x="492" y="435" type="curve" smooth="yes"/>
      <point x="418" y="251" type="line" smooth="yes"/>
      <point x="407" y="224"/>
      <point x="397" y="198"/>
      <point x="386" y="167" type="curve"/>
      <point x="373" y="201"/>
      <point x="359" y="230"/>
      <point x="346" y="260" type="curve" smooth="yes"/>
      <point x="261" y="450" type="line" smooth="yes"/>
      <point x="253" y="469"/>
      <point x="249" y="483"/>
      <point x="249" y="495" type="curve" smooth="yes"/>
      <point x="249" y="518"/>
      <point x="267" y="526"/>
      <point x="309" y="526" type="curve" smooth="yes"/>
      <point x="320" y="526" type="line"/>
      <point x="320" y="536" type="line"/>
      <point x="-3" y="536" type="line"/>
      <point x="-3" y="526" type="line"/>
      <point x="-1" y="526" type="line" smooth="yes"/>
      <point x="23" y="526"/>
      <point x="36" y="515"/>
      <point x="51" y="482" type="curve" smooth="yes"/>
      <point x="297" y="-50" type="line"/>
      <point x="234" y="-178"/>
      <point x="192" y="-211"/>
    </contour>
  </outline>
</glyph>
<glyph name="z" format="2">
  <advance width="487"/>
  <unicode hex="007A"/>
  <anchor x="243" y="0" name="bottom"/>
  <anchor x="244" y="553" name="top"/>
  <anchor x="458" y="553" name="topright"/>
  <outline>
    <contour>
      <point x="466" y="0" type="line"/>
      <point x="466" y="146" type="line"/>
      <point x="263" y="146" type="line"/>
      <point x="454" y="435" type="line"/>
      <point x="454" y="553" type="line"/>
      <point x="32" y="553" type="line"/>
      <point x="32" y="407" type="line"/>
      <point x="224" y="407" type="line"/>
      <point x="21" y="109" type="line"/>
      <point x="21" y="0" type="line"/>
    </contour>
  </outline>
</glyph>
<glyph name="z.serif" format="2">
  <advance width="542"/>
  <unicode hex="007A"/>
  <anchor x="271" y="0" name="bottom"/>
  <anchor x="271" y="536" name="top"/>
  <anchor x="522" y="536" name="topright"/>
  <outline>
    <contour>
      <point x="0" y="0" type="line"/>
      <point x="524" y="0" type="line"/>
      <point x="531" y="195" type="line"/>
      <point x="521" y="195" type="line"/>
      <point x="518" y="160" type="line" smooth="yes"/>
      <point x="508" y="44"/>
      <point x="470" y="10"/>
      <point x="358" y="10" type="curve" smooth="yes"/>
      <point x="186" y="10" type="line"/>
      <point x="516" y="526" type="line"/>
      <point x="516" y="536" type="line"/>
      <point x="48" y="536" type="line"/>
      <point x="35" y="359" type="line"/>
      <point x="45" y="359" type="line"/>
      <point x="48" y="386" type="line" smooth="yes"/>
      <point x="59" y="492"/>
      <point x="95" y="526"/>
      <point x="198" y="526" type="curve" smooth="yes"/>
      <point x="330" y="526" type="line"/>
      <point x="0" y="10" type="line"/>
    </contour>
  </outline>
</glyph>
<glyph name="braceleft" format="2">
  <advance width="428"/>
  <unicode hex="007B"/>
  <outline>
    <contour>
      <point x="402" y="-168" type="curve"/>
      <point x="402" y="-32" type="line"/>
      <point x="372" y="-31"/>
      <point x="310" y="-29"/>
      <point x="310" y="20" type="curve" smooth="yes"/>
      <point x="310" y="155" type="line" smooth="yes"/>
      <point x="310" y="231"/>
      <point x="271" y="263"/>
      <point x="198" y="275" type="curve"/>
      <point x="198" y="281" type="line"/>
      <point x="268" y="291"/>
      <point x="310" y="323"/>
      <point x="310" y="404" type="curve" smooth="yes"/>
      <point x="310" y="536" type="line" smooth="yes"/>
      <point x="310" y="586"/>
      <point x="370" y="587"/>
      <point x="402" y="588" type="curve"/>
      <point x="402" y="724" type="line"/>
      <point x="187" y="724"/>
      <point x="146" y="672"/>
      <point x="146" y="558" type="curve" smooth="yes"/>
      <point x="146" y="434" type="line" smooth="yes"/>
      <point x="146" y="373"/>
      <point x="84" y="351"/>
      <point x="36" y="351" type="curve"/>
      <point x="36" y="204" type="line"/>
      <point x="81" y="204"/>
      <point x="146" y="181"/>
      <point x="146" y="121" type="curve" smooth="yes"/>
      <point x="146" y="0" type="line" smooth="yes"/>
      <point x="146" y="-117"/>
      <point x="191" y="-168"/>
    </contour>
  </outline>
</glyph>
<glyph name="braceleft.serif" format="2">
  <advance width="452"/>
  <unicode hex="007B"/>
  <outline>
    <contour>
      <point x="320" y="-123" type="curve" smooth="yes"/>
      <point x="437" y="-123" type="line"/>
      <point x="437" y="-113" type="line"/>
      <point x="391" y="-113" type="line" smooth="yes"/>
      <point x="336" y="-113"/>
      <point x="328" y="-80"/>
      <point x="328" y="-21" type="curve" smooth="yes"/>
      <point x="328" y="150" type="line" smooth="yes"/>
      <point x="328" y="268"/>
      <point x="268" y="314"/>
      <point x="99" y="320" type="curve"/>
      <point x="99" y="322" type="line"/>
      <point x="268" y="327"/>
      <point x="328" y="372"/>
      <point x="328" y="489" type="curve" smooth="yes"/>
      <point x="328" y="659" type="line" smooth="yes"/>
      <point x="328" y="717"/>
      <point x="336" y="750"/>
      <point x="391" y="750" type="curve" smooth="yes"/>
      <point x="437" y="750" type="line"/>
      <point x="437" y="760" type="line"/>
      <point x="320" y="760" type="line" smooth="yes"/>
      <point x="195" y="760"/>
      <point x="130" y="706"/>
      <point x="130" y="612" type="curve" smooth="yes"/>
      <point x="130" y="441" type="line" smooth="yes"/>
      <point x="130" y="352"/>
      <point x="102" y="324"/>
      <point x="15" y="324" type="curve"/>
      <point x="15" y="314" type="line"/>
      <point x="102" y="314"/>
      <point x="130" y="286"/>
      <point x="130" y="197" type="curve" smooth="yes"/>
      <point x="130" y="28" type="line" smooth="yes"/>
      <point x="130" y="-65"/>
      <point x="195" y="-123"/>
    </contour>
  </outline>
</glyph>
<glyph name="braceright" format="2">
  <advance width="428"/>
  <unicode hex="007D"/>
  <outline>
    <contour>
      <point x="26" y="-32" type="curve"/>
      <point x="26" y="-168" type="line"/>
      <point x="237" y="-168"/>
      <point x="281" y="-117"/>
      <point x="281" y="0" type="curve" smooth="yes"/>
      <point x="281" y="121" type="line" smooth="yes"/>
      <point x="281" y="181"/>
      <point x="346" y="204"/>
      <point x="392" y="204" type="curve"/>
      <point x="392" y="351" type="line"/>
      <point x="343" y="351"/>
      <point x="281" y="373"/>
      <point x="281" y="434" type="curve" smooth="yes"/>
      <point x="281" y="558" type="line" smooth="yes"/>
      <point x="281" y="672"/>
      <point x="241" y="724"/>
      <point x="26" y="724" type="curve"/>
      <point x="26" y="588" type="line"/>
      <point x="57" y="587"/>
      <point x="118" y="586"/>
      <point x="118" y="536" type="curve" smooth="yes"/>
      <point x="118" y="404" type="line" smooth="yes"/>
      <point x="118" y="323"/>
      <point x="160" y="291"/>
      <point x="229" y="281" type="curve"/>
      <point x="229" y="275" type="line"/>
      <point x="157" y="263"/>
      <point x="118" y="231"/>
      <point x="118" y="155" type="curve" smooth="yes"/>
      <point x="118" y="20" type="line" smooth="yes"/>
      <point x="118" y="-29"/>
      <point x="56" y="-31"/>
    </contour>
  </outline>
</glyph>
<glyph name="braceright.serif" format="2">
  <advance width="452"/>
  <unicode hex="007D"/>
  <outline>
    <contour>
      <point x="15" y="-123" type="line"/>
      <point x="132" y="-123" type="line" smooth="yes"/>
      <point x="257" y="-123"/>
      <point x="322" y="-65"/>
      <point x="322" y="28" type="curve" smooth="yes"/>
      <point x="322" y="197" type="line" smooth="yes"/>
      <point x="322" y="286"/>
      <point x="350" y="314"/>
      <point x="437" y="314" type="curve"/>
      <point x="437" y="324" type="line"/>
      <point x="350" y="324"/>
      <point x="322" y="352"/>
      <point x="322" y="441" type="curve" smooth="yes"/>
      <point x="322" y="612" type="line" smooth="yes"/>
      <point x="322" y="706"/>
      <point x="257" y="760"/>
      <point x="132" y="760" type="curve" smooth="yes"/>
      <point x="15" y="760" type="line"/>
      <point x="15" y="750" type="line"/>
      <point x="61" y="750" type="line" smooth="yes"/>
      <point x="116" y="750"/>
      <point x="124" y="717"/>
      <point x="124" y="659" type="curve" smooth="yes"/>
      <point x="124" y="489" type="line" smooth="yes"/>
      <point x="124" y="372"/>
      <point x="184" y="327"/>
      <point x="353" y="322" type="curve"/>
      <point x="353" y="320" type="line"/>
      <point x="184" y="314"/>
      <point x="124" y="268"/>
      <point x="124" y="150" type="curve" smooth="yes"/>
      <point x="124" y="-21" type="line" smooth="yes"/>
      <point x="124" y="-80"/>
      <point x="116" y="-113"/>
      <point x="61" y="-113" type="curve" smooth="yes"/>
      <point x="15" y="-113" type="line"/>
    </contour>
  </outline>
</glyph>
<glyph name="asciitilde" format="2">
  <advance width="570"/>
  <unicode hex="007E"/>
  <outline>
    <contour>
      <point x="266" y="289" type="curve" smooth="yes"/>
      <point x="328" y="261"/>
      <point x="360" y="258"/>
      <point x="396" y="258" type="curve" smooth="yes"/>
      <point x="447" y="258"/>
      <point x="487" y="276"/>
      <point x="520" y="311" type="curve"/>
      <point x="520" y="448" type="line"/>
      <point x="487" y="415"/>
      <point x="448" y="389"/>
      <point x="414" y="389" type="curve" smooth="yes"/>
      <point x="385" y="389"/>
      <point x="348" y="395"/>
      <point x="302" y="416" type="curve" smooth="yes"/>
      <point x="241" y="444"/>
      <point x="209" y="447"/>
      <point x="172" y="447" type="curve" smooth="yes"/>
      <point x="120" y="447"/>
      <point x="81" y="429"/>
      <point x="49" y="394" type="curve"/>
      <point x="49" y="257" type="line"/>
      <point x="81" y="290"/>
      <point x="119" y="316"/>
      <point x="156" y="316" type="curve" smooth="yes"/>
      <point x="186" y="316"/>
      <point x="220" y="310"/>
    </contour>
  </outline>
</glyph>
<glyph name="exclamdown" format="2">
  <advance width="276"/>
  <unicode hex="00A1"/>
  <outline>
    <contour>
      <point x="53" y="299" type="line"/>
      <point x="29" y="-163" type="line"/>
      <point x="250" y="-163" type="line"/>
      <point x="226" y="299" type="line"/>
    </contour>
    <contour>
      <point x="246" y="470" type="curve" smooth="yes"/>
      <point x="246" y="536"/>
      <point x="197" y="563"/>
      <point x="140" y="563" type="curve" smooth="yes"/>
      <point x="83" y="563"/>
      <point x="36" y="536"/>
      <point x="36" y="470" type="curve" smooth="yes"/>
      <point x="36" y="401"/>
      <point x="83" y="376"/>
      <point x="140" y="376" type="curve" smooth="yes"/>
      <point x="197" y="376"/>
      <point x="246" y="401"/>
    </contour>
  </outline>
</glyph>
<glyph name="cent" format="2">
  <advance width="559"/>
  <unicode hex="00A2"/>
  <outline>
    <contour>
      <point x="363" y="649" type="curve"/>
      <point x="363" y="724" type="line"/>
      <point x="260" y="724" type="line"/>
      <point x="260" y="643" type="line"/>
      <point x="140" y="618"/>
      <point x="56" y="529"/>
      <point x="56" y="361" type="curve" smooth="yes"/>
      <point x="56" y="190"/>
      <point x="135" y="101"/>
      <point x="260" y="81" type="curve"/>
      <point x="260" y="-10" type="line"/>
      <point x="363" y="-10" type="line"/>
      <point x="363" y="78" type="line"/>
      <point x="422" y="84"/>
      <point x="465" y="101"/>
      <point x="499" y="126" type="curve"/>
      <point x="499" y="278" type="line"/>
      <point x="454" y="247"/>
      <point x="391" y="229"/>
      <point x="343" y="229" type="curve" smooth="yes"/>
      <point x="297" y="229"/>
      <point x="261" y="266"/>
      <point x="261" y="362" type="curve" smooth="yes"/>
      <point x="261" y="455"/>
      <point x="298" y="500"/>
      <point x="342" y="500" type="curve" smooth="yes"/>
      <point x="382" y="500"/>
      <point x="416" y="487"/>
      <point x="459" y="467" type="curve"/>
      <point x="518" y="608" type="line"/>
      <point x="470" y="631"/>
      <point x="415" y="646"/>
    </contour>
  </outline>
</glyph>
<glyph name="cent.serif" format="2">
  <advance width="559"/>
  <unicode hex="00A2"/>
  <outline>
    <contour>
      <point x="311" y="79" type="curve"/>
      <point x="311" y="0" type="line"/>
      <point x="321" y="0" type="line"/>
      <point x="321" y="79" type="line"/>
      <point x="459" y="83"/>
      <point x="528" y="149"/>
      <point x="528" y="201" type="curve" smooth="yes"/>
      <point x="528" y="226"/>
      <point x="512" y="247"/>
      <point x="487" y="255" type="curve"/>
      <point x="475" y="150"/>
      <point x="435" y="93"/>
      <point x="321" y="93" type="curve"/>
      <point x="321" y="630" type="line"/>
      <point x="378" y="625"/>
      <point x="391" y="574"/>
      <point x="391" y="432" type="curve"/>
      <point x="516" y="432"/>
      <point x="539" y="492"/>
      <point x="539" y="528" type="curve" smooth="yes"/>
      <point x="539" y="584"/>
      <point x="484" y="638"/>
      <point x="321" y="640" type="curve"/>
      <point x="321" y="714" type="line"/>
      <point x="311" y="714" type="line"/>
      <point x="311" y="640" type="line"/>
      <point x="158" y="640"/>
      <point x="37" y="573"/>
      <point x="37" y="356" type="curve" smooth="yes"/>
      <point x="37" y="163"/>
      <point x="120" y="79"/>
    </contour>
    <contour>
      <point x="311" y="630" type="curve"/>
      <point x="311" y="94" type="line"/>
      <point x="246" y="103"/>
      <point x="231" y="183"/>
      <point x="231" y="357" type="curve" smooth="yes"/>
      <point x="231" y="564"/>
      <point x="246" y="630"/>
    </contour>
  </outline>
</glyph>
<glyph name="sterling" format="2">
  <advance width="558"/>
  <unicode hex="00A3"/>
  <outline>
    <contour>
      <point x="338" y="725" type="curve" smooth="yes"/>
      <point x="206" y="725"/>
      <point x="125" y="661"/>
      <point x="125" y="510" type="curve" smooth="yes"/>
      <point x="125" y="452" type="line"/>
      <point x="52" y="452" type="line"/>
      <point x="52" y="317" type="line"/>
      <point x="125" y="317" type="line"/>
      <point x="125" y="269" type="line" smooth="yes"/>
      <point x="125" y="202"/>
      <point x="103" y="184"/>
      <point x="54" y="153" type="curve"/>
      <point x="54" y="0" type="line"/>
      <point x="544" y="0" type="line"/>
      <point x="544" y="159" type="line"/>
      <point x="248" y="159" type="line"/>
      <point x="281" y="176"/>
      <point x="323" y="206"/>
      <point x="323" y="270" type="curve" smooth="yes"/>
      <point x="323" y="317" type="line"/>
      <point x="473" y="317" type="line"/>
      <point x="473" y="452" type="line"/>
      <point x="323" y="452" type="line"/>
      <point x="323" y="504" type="line" smooth="yes"/>
      <point x="323" y="557"/>
      <point x="340" y="571"/>
      <point x="362" y="571" type="curve" smooth="yes"/>
      <point x="385" y="571"/>
      <point x="424" y="563"/>
      <point x="473" y="544" type="curve"/>
      <point x="528" y="685" type="line"/>
      <point x="472" y="709"/>
      <point x="404" y="725"/>
    </contour>
  </outline>
</glyph>
<glyph name="currency" format="2">
  <advance width="529"/>
  <unicode hex="00A4"/>
  <outline>
    <contour>
      <point x="81" y="353" type="curve"/>
      <point x="81" y="322"/>
      <point x="85" y="295"/>
      <point x="96" y="268" type="curve"/>
      <point x="41" y="210" type="line"/>
      <point x="131" y="123" type="line"/>
      <point x="184" y="179" type="line"/>
      <point x="207" y="166"/>
      <point x="233" y="161"/>
      <point x="259" y="161" type="curve" smooth="yes"/>
      <point x="286" y="161"/>
      <point x="313" y="169"/>
      <point x="335" y="180" type="curve"/>
      <point x="389" y="122" type="line"/>
      <point x="479" y="209" type="line"/>
      <point x="424" y="267" type="line"/>
      <point x="436" y="294"/>
      <point x="440" y="321"/>
      <point x="440" y="353" type="curve" smooth="yes"/>
      <point x="440" y="384"/>
      <point x="435" y="416"/>
      <point x="424" y="440" type="curve"/>
      <point x="482" y="501" type="line"/>
      <point x="389" y="586" type="line"/>
      <point x="335" y="524" type="line"/>
      <point x="309" y="539"/>
      <point x="286" y="546"/>
      <point x="259" y="546" type="curve" smooth="yes"/>
      <point x="238" y="546"/>
      <point x="208" y="538"/>
      <point x="187" y="526" type="curve"/>
      <point x="131" y="586" type="line"/>
      <point x="40" y="497" type="line"/>
      <point x="96" y="439" type="line"/>
      <point x="87" y="414"/>
      <point x="81" y="384"/>
    </contour>
    <contour>
      <point x="211" y="353" type="curve"/>
      <point x="211" y="391"/>
      <point x="233" y="420"/>
      <point x="259" y="420" type="curve" smooth="yes"/>
      <point x="287" y="420"/>
      <point x="311" y="391"/>
      <point x="311" y="353" type="curve" smooth="yes"/>
      <point x="311" y="316"/>
      <point x="287" y="287"/>
      <point x="259" y="287" type="curve" smooth="yes"/>
      <point x="233" y="287"/>
      <point x="211" y="316"/>
    </contour>
  </outline>
</glyph>
<glyph name="currency.serif" format="2">
  <advance width="559"/>
  <unicode hex="00A4"/>
  <outline>
    <contour>
      <point x="125" y="148" type="line"/>
      <point x="177" y="200" type="line"/>
      <point x="205" y="182"/>
      <point x="240" y="172"/>
      <point x="277" y="172" type="curve" smooth="yes"/>
      <point x="313" y="172"/>
      <point x="349" y="183"/>
      <point x="379" y="202" type="curve"/>
      <point x="432" y="148" type="line"/>
      <point x="488" y="204" type="line"/>
      <point x="434" y="258" type="line"/>
      <point x="451" y="286"/>
      <point x="461" y="318"/>
      <point x="461" y="355" type="curve" smooth="yes"/>
      <point x="461" y="391"/>
      <point x="450" y="425"/>
      <point x="431" y="453" type="curve"/>
      <point x="488" y="512" type="line"/>
      <point x="432" y="569" type="line"/>
      <point x="374" y="510" type="line"/>
      <point x="346" y="529"/>
      <point x="312" y="539"/>
      <point x="277" y="539" type="curve" smooth="yes"/>
      <point x="241" y="539"/>
      <point x="209" y="529"/>
      <point x="181" y="512" type="curve"/>
      <point x="125" y="568" type="line"/>
      <point x="69" y="512" type="line"/>
      <point x="124" y="456" type="line"/>
      <point x="104" y="428"/>
      <point x="94" y="391"/>
      <point x="94" y="355" type="curve" smooth="yes"/>
      <point x="94" y="318"/>
      <point x="102" y="286"/>
      <point x="120" y="258" type="curve"/>
      <point x="67" y="206" type="line"/>
    </contour>
    <contour>
      <point x="277" y="247" type="curve" smooth="yes"/>
      <point x="218" y="247"/>
      <point x="171" y="295"/>
      <point x="171" y="355" type="curve" smooth="yes"/>
      <point x="171" y="416"/>
      <point x="218" y="463"/>
      <point x="277" y="463" type="curve" smooth="yes"/>
      <point x="339" y="463"/>
      <point x="383" y="416"/>
      <point x="383" y="355" type="curve" smooth="yes"/>
      <point x="383" y="295"/>
      <point x="339" y="247"/>
    </contour>
  </outline>
</glyph>
